<?xml version="1.0" standalone="no"?>
<!DOCTYPE svg PUBLIC "-//W3C//DTD SVG 20010904//EN"
 "http://www.w3.org/TR/2001/REC-SVG-20010904/DTD/svg10.dtd">
<svg version="1.0" xmlns="http://www.w3.org/2000/svg"
 width="286.000000pt" height="286.000000pt" viewBox="0 0 286.000000 286.000000"
 preserveAspectRatio="xMidYMid meet">
<metadata>
Created by potrace 1.14, written by Peter Selinger 2001-2017
</metadata>
<g transform="translate(0.000000,286.000000) scale(0.100000,-0.100000)"
fill="#000000" stroke="none">
<path d="M1355 2544 c-80 -100 -251 -265 -377 -364 -57 -44 -108 -85 -115 -90
-26 -21 -257 -171 -303 -197 -27 -15 -50 -30 -50 -33 0 -3 24 -21 52 -40 332
-225 663 -525 813 -737 17 -24 32 -43 36 -43 3 0 30 30 61 68 197 239 439 473
663 640 36 27 156 102 163 102 4 0 16 6 27 13 16 13 10 19 -71 72 -189 123
-451 336 -693 564 -68 64 -128 117 -135 118 -6 1 -38 -32 -71 -73z m133 -419
c216 -190 279 -346 180 -445 -55 -56 -124 -84 -210 -86 -89 -3 -152 15 -257
72 -74 41 -231 151 -231 163 0 4 30 27 67 52 107 70 206 153 284 239 49 54 77
77 86 72 7 -5 44 -35 81 -67z"/>
<path d="M2233 1701 c-255 -172 -499 -406 -738 -709 l-80 -101 -20 27 c-168
229 -428 492 -650 658 -137 103 -177 128 -190 118 -93 -68 -279 -186 -345
-218 l-86 -42 96 -64 c87 -59 378 -274 390 -289 3 -3 28 -24 55 -45 226 -178
553 -518 716 -742 l44 -62 40 56 c37 50 84 112 168 216 314 391 666 698 1006
879 l102 54 -38 23 c-36 21 -243 168 -253 180 -9 10 -138 110 -141 110 -2 0
-36 -22 -76 -49z"/>
</g>
</svg>
