<?xml version="1.0" encoding="UTF-8" standalone="no"?>
<svg
   xmlns:dc="http://purl.org/dc/elements/1.1/"
   xmlns:cc="http://creativecommons.org/ns#"
   xmlns:rdf="http://www.w3.org/1999/02/22-rdf-syntax-ns#"
   xmlns:svg="http://www.w3.org/2000/svg"
   xmlns="http://www.w3.org/2000/svg"
   xmlns:sodipodi="http://sodipodi.sourceforge.net/DTD/sodipodi-0.dtd"
   xmlns:inkscape="http://www.inkscape.org/namespaces/inkscape"
   version="1.1"
   id="svg2"
   xml:space="preserve"
   width="4208"
   height="4208"
   viewBox="0 0 4208 4208"
   sodipodi:docname="vecteezy_error-404-with-the-cute-greece-flag-mascot_.eps"><metadata
     id="metadata8"><rdf:RDF><cc:Work
         rdf:about=""><dc:format>image/svg+xml</dc:format><dc:type
           rdf:resource="http://purl.org/dc/dcmitype/StillImage" /></cc:Work></rdf:RDF></metadata><defs
     id="defs6" /><sodipodi:namedview
     pagecolor="#ffffff"
     bordercolor="#666666"
     borderopacity="1"
     objecttolerance="10"
     gridtolerance="10"
     guidetolerance="10"
     inkscape:pageopacity="0"
     inkscape:pageshadow="2"
     inkscape:window-width="640"
     inkscape:window-height="480"
     id="namedview4" /><g
     id="g10"
     inkscape:groupmode="layer"
     inkscape:label="ink_ext_XXXXXX"
     transform="matrix(1.3333333,0,0,-1.3333333,0,4208)"><g
       id="g12"
       transform="scale(0.1)"><path
         d="M 0,8.23828 H 31551.8 V 31560.038 H 0 Z"
         style="fill:#ffffff;fill-opacity:1;fill-rule:nonzero;stroke:none"
         id="path14" /><path
         d="m 15775.6,15963.2 c -3,0.1 -6,0.1 -9,0 -0.9,0 -1.8,0 -2.7,-0.1 -3,-0.3 -6,-0.7 -9.1,-1.2 -2.9,-0.3 -5.9,-0.7 -8.8,-1.2 -2.9,-0.5 -5.9,-1.2 -8.8,-1.9 -2.6,-0.5 -5.3,-1 -7.9,-1.7 -0.4,0 -0.8,0 -1.2,0 -0.8,-0.3 -1.7,-0.7 -2.6,-1.1 -3.9,-1.2 -7.8,-2.5 -11.7,-4 -2.7,-1 -5.5,-2.1 -8.2,-3.3 -2.8,-1.2 -5.5,-2.4 -8.3,-3.7 -2.6,-1.3 -5.2,-2.7 -7.8,-4.2 -2.6,-1.4 -5.2,-2.8 -7.7,-4.4 -2.6,-1.6 -5,-3.2 -7.5,-4.9 -2.4,-1.7 -4.9,-3.4 -7.2,-5.2 -2.4,-1.9 -4.7,-3.7 -6.9,-5.6 -2.3,-1.9 -4.5,-3.9 -6.7,-6 -2.2,-2 -4.3,-4.1 -6.4,-6.3 -2,-2.1 -4,-4.3 -6,-6.6 -2,-2.2 -3.9,-4.5 -5.7,-6.9 -1.9,-2.3 -3.7,-4.7 -5.4,-7.1 -1.8,-2.4 -3.4,-4.9 -5,-7.4 -1.6,-2.5 -3.2,-5.1 -4.7,-7.7 -1.4,-2.6 -2.8,-5.2 -4.1,-8 -1.4,-2.6 -2.6,-5.3 -3.9,-7.9 -1.2,-2.8 -2.3,-5.6 -3.4,-8.4 -1.1,-2.7 -2.1,-5.5 -3,-8.3 -0.9,-2.9 -1.8,-5.7 -2.6,-8.6 -0.8,-2.9 -1.5,-5.7 -2.2,-8.6 -0.6,-2.9 -1.2,-5.9 -1.7,-8.8 -0.5,-3 -0.9,-5.9 -1.2,-8.9 -0.5,-2.9 -0.9,-5.9 -1.3,-8.9 0,-2.9 0,-5.9 0,-8.8 0,-1.2 0,-2.3 0,-3.5 0,-2.9 0,-5.9 0,-8.8 0.1,-1 0.1,-1.9 0.1,-2.9 0.4,-2.9 0.8,-5.9 1.2,-8.8 0.4,-3 0.7,-6 1.2,-8.9 0.6,-3 1.2,-5.9 1.9,-8.9 0.5,-2.6 1.1,-5.3 1.7,-8 0,-0.4 0,-0.8 0,-1.1 0.4,-0.9 0.8,-1.8 1.2,-2.7 1.2,-3.9 2.5,-7.8 3.9,-11.7 1.1,-2.8 2.2,-5.6 3.4,-8.3 1.1,-2.7 2.3,-5.4 3.5,-8.1 1.4,-2.7 2.8,-5.3 4.2,-7.9 1.4,-2.6 2.9,-5.2 4.4,-7.7 1.6,-2.6 3.2,-5.1 4.9,-7.5 1.7,-2.5 3.4,-4.9 5.2,-7.3 1.8,-2.4 3.6,-4.7 5.6,-6.9 1.9,-2.3 3.9,-4.6 5.9,-6.7 2.1,-2.2 4.2,-4.3 6.4,-6.3 2.1,-2.1 4.3,-4.1 6.5,-6.1 2.3,-2 4.6,-3.9 6.9,-5.7 2.3,-1.9 4.8,-3.7 7.2,-5.4 2.4,-1.7 4.9,-3.4 7.4,-5 2.5,-1.6 5,-3.2 7.6,-4.7 2.6,-1.4 5.2,-2.8 7.9,-4.2 2.6,-1.3 5.3,-2.6 8.1,-3.9 2.7,-1.2 5.4,-2.3 8.2,-3.3 2.8,-1.1 5.6,-2.2 8.5,-3.1 2.8,-0.9 5.7,-1.8 8.6,-2.5 2.8,-0.9 5.8,-1.6 8.7,-2.3 2.8,-0.6 5.8,-1.2 8.7,-1.6 2.9,-0.6 5.9,-1 8.8,-1.4 2.9,-0.4 5.9,-0.8 8.8,-1.2 3,0 6,0 9,0 1.1,0 2.3,-0.1 3.4,-0.1 3,0 6,0 9,0 0.9,0 1.8,0.1 2.7,0.1 3,0.3 6.1,0.7 9.1,1.2 2.9,0.3 5.9,0.7 8.8,1.2 2.9,0.6 5.8,1.2 8.7,1.9 2.7,0.5 5.3,1.1 8,1.7 0.4,0 0.8,0 1.2,0 0.9,0.4 1.8,0.8 2.6,1.2 4,1.1 7.9,2.5 11.8,3.9 2.8,1.1 5.5,2.2 8.3,3.3 2.7,1.2 5.5,2.4 8.2,3.7 2.6,1.4 5.3,2.7 7.8,4.2 2.7,1.4 5.2,2.9 7.8,4.4 2.5,1.6 5.1,3.2 7.5,4.9 2.5,1.7 4.9,3.5 7.3,5.2 2.3,1.9 4.6,3.7 6.9,5.7 2.3,1.8 4.5,3.8 6.7,5.8 2.1,2.1 4.2,4.2 6.3,6.3 2.1,2.1 4.1,4.3 6.1,6.5 2,2.2 3.9,4.5 5.7,6.9 1.8,2.3 3.6,4.7 5.4,7.1 1.7,2.5 3.4,4.9 5,7.4 1.6,2.6 3.2,5.1 4.6,7.7 1.5,2.6 2.9,5.3 4.2,7.9 1.3,2.7 2.6,5.4 3.8,8.1 1.2,2.6 2.3,5.4 3.4,8.2 1.1,2.8 2.1,5.6 3.1,8.4 0.9,2.8 1.7,5.7 2.5,8.5 0.8,2.9 1.6,5.8 2.2,8.7 0.7,3 1.2,5.9 1.7,8.8 0.5,3 0.9,5.9 1.3,8.9 0.5,2.9 0.9,5.9 1.2,8.9 0.1,2.9 0.1,5.9 0,8.9 0,1.1 0,2.3 0,3.4 0.1,2.9 0.1,6 0,8.9 0,0.9 -0.1,1.9 -0.1,2.8 -0.3,3 -0.7,6 -1.2,9 -0.3,3 -0.7,5.9 -1.2,8.9 -0.5,2.9 -1.2,5.8 -1.9,8.8 -0.5,2.7 -1,5.3 -1.6,8 0,0.4 0,0.8 0,1.2 -0.4,0.9 -0.8,1.7 -1.3,2.6 -1.1,3.9 -2.4,7.8 -3.9,11.7 -1,2.8 -2.2,5.6 -3.3,8.3 -1.2,2.7 -2.3,5.4 -3.6,8.1 -1.3,2.7 -2.7,5.3 -4.2,7.9 -1.4,2.6 -2.9,5.2 -4.4,7.8 -1.5,2.5 -3.2,4.9 -4.9,7.4 -1.7,2.4 -3.4,4.8 -5.2,7.2 -1.8,2.4 -3.7,4.7 -5.6,6.9 -2,2.4 -4,4.6 -6,6.8 -2,2.2 -4.1,4.3 -6.3,6.4 -2.1,2 -4.3,4.1 -6.6,6.1 -2.2,1.9 -4.5,3.7 -6.9,5.5 -2.3,1.9 -4.7,3.7 -7.2,5.4 -2.4,1.7 -4.9,3.4 -7.5,5 -2.5,1.6 -5,3.2 -7.6,4.7 -2.6,1.4 -5.2,2.8 -7.9,4.2 -2.6,1.3 -5.3,2.7 -8.1,3.9 -2.7,1.2 -5.4,2.3 -8.2,3.3 -2.8,1.1 -5.5,2.2 -8.3,3.1 -2.9,0.9 -5.7,1.8 -8.6,2.5 -2.9,0.9 -5.8,1.6 -8.8,2.3 -2.8,0.6 -5.7,1.2 -8.6,1.7 -3,0.5 -6,0.9 -9,1.3 -2.9,0.4 -5.9,0.8 -8.8,1.2 -3,0 -6,0 -8.9,0 -1.2,0 -2.3,0.1 -3.4,0.1 z"
         style="fill:#ffffff;fill-opacity:1;fill-rule:nonzero;stroke:none"
         id="path16" /><path
         d="m 15775.6,15963.2 c -3,0.1 -6,0.1 -9,0 -0.9,0 -1.8,0 -2.7,-0.1 -3,-0.3 -6,-0.7 -9.1,-1.2 -2.9,-0.3 -5.9,-0.7 -8.8,-1.2 -2.9,-0.5 -5.9,-1.2 -8.8,-1.9 -2.6,-0.5 -5.3,-1 -7.9,-1.7 -0.4,0 -0.8,0 -1.2,0 -0.8,-0.3 -1.7,-0.7 -2.6,-1.1 -3.9,-1.2 -7.8,-2.5 -11.7,-4 -2.7,-1 -5.5,-2.1 -8.2,-3.3 -2.8,-1.2 -5.5,-2.4 -8.3,-3.7 -2.6,-1.3 -5.2,-2.7 -7.8,-4.2 -2.6,-1.4 -5.2,-2.8 -7.7,-4.4 -2.6,-1.6 -5,-3.2 -7.5,-4.9 -2.4,-1.7 -4.9,-3.4 -7.2,-5.2 -2.4,-1.9 -4.7,-3.7 -6.9,-5.6 -2.3,-1.9 -4.5,-3.9 -6.7,-6 -2.2,-2 -4.3,-4.1 -6.4,-6.3 -2,-2.1 -4,-4.3 -6,-6.6 -2,-2.2 -3.9,-4.5 -5.7,-6.9 -1.9,-2.3 -3.7,-4.7 -5.4,-7.1 -1.8,-2.4 -3.4,-4.9 -5,-7.4 -1.6,-2.5 -3.2,-5.1 -4.7,-7.7 -1.4,-2.6 -2.8,-5.2 -4.1,-8 -1.4,-2.6 -2.6,-5.3 -3.9,-7.9 -1.2,-2.8 -2.3,-5.6 -3.4,-8.4 -1.1,-2.7 -2.1,-5.5 -3,-8.3 -0.9,-2.9 -1.8,-5.7 -2.6,-8.6 -0.8,-2.9 -1.5,-5.7 -2.2,-8.6 -0.6,-2.9 -1.2,-5.9 -1.7,-8.8 -0.5,-3 -0.9,-5.9 -1.2,-8.9 -0.5,-2.9 -0.9,-5.9 -1.3,-8.9 0,-2.9 0,-5.9 0,-8.8 0,-1.2 0,-2.3 0,-3.5 0,-2.9 0,-5.9 0,-8.8 0.1,-1 0.1,-1.9 0.1,-2.9 0.4,-2.9 0.8,-5.9 1.2,-8.8 0.4,-3 0.7,-6 1.2,-9.1 0.6,-2.9 1.2,-5.8 1.9,-8.8 0.5,-2.6 1.1,-5.2 1.7,-7.9 0,-0.4 0,-0.8 0,-1.1 0.4,-0.9 0.8,-1.8 1.2,-2.7 1.2,-3.9 2.5,-7.8 3.9,-11.7 1.1,-2.8 2.2,-5.6 3.4,-8.3 1.1,-2.7 2.3,-5.4 3.5,-8.1 1.4,-2.7 2.8,-5.3 4.2,-7.9 1.4,-2.6 2.9,-5.2 4.4,-7.7 1.6,-2.6 3.2,-5.1 4.9,-7.5 1.7,-2.5 3.4,-4.9 5.2,-7.3 1.8,-2.4 3.6,-4.7 5.6,-6.9 1.9,-2.3 3.9,-4.6 5.9,-6.7 2.1,-2.2 4.2,-4.3 6.4,-6.3 2.1,-2.1 4.3,-4.1 6.5,-6.1 2.3,-2 4.6,-3.9 6.9,-5.7 2.3,-1.9 4.8,-3.7 7.2,-5.4 2.4,-1.7 4.9,-3.4 7.4,-5 2.5,-1.6 5,-3.2 7.6,-4.7 2.6,-1.4 5.2,-2.8 7.9,-4.2 2.6,-1.3 5.3,-2.6 8.1,-3.9 2.7,-1.2 5.4,-2.3 8.2,-3.3 2.8,-1.1 5.6,-2.2 8.5,-3.1 2.8,-0.9 5.7,-1.8 8.6,-2.5 2.8,-0.8 5.8,-1.5 8.7,-2.2 2.8,-0.6 5.8,-1.2 8.7,-1.6 2.9,-0.5 5.9,-1 8.8,-1.4 2.9,-0.4 5.9,-0.8 8.8,-1.1 3,-0.1 6,-0.1 9,0 1.1,-0.1 2.3,-0.1 3.4,0 3,-0.1 6,-0.1 9,0 0.9,0 1.8,0 2.7,0.1 3,0.3 6.1,0.7 9.1,1.2 2.9,0.3 5.9,0.7 8.8,1.1 2.9,0.6 5.8,1.2 8.7,1.9 2.7,0.6 5.3,1.1 8,1.7 0.4,0 0.8,0 1.2,0 0.9,0.4 1.8,0.8 2.6,1.2 4,1.2 7.9,2.5 11.8,3.9 2.8,1.1 5.5,2.2 8.3,3.4 2.7,1.1 5.5,2.4 8.2,3.7 2.6,1.3 5.3,2.7 7.8,4.2 2.7,1.4 5.2,2.9 7.8,4.4 2.5,1.5 5.1,3.2 7.5,4.8 2.5,1.7 4.9,3.5 7.3,5.3 2.3,1.8 4.6,3.7 6.9,5.6 2.3,1.9 4.5,3.8 6.7,5.8 2.1,2.1 4.2,4.2 6.3,6.4 2.1,2.1 4.1,4.2 6.1,6.4 2,2.3 3.9,4.6 5.7,6.9 1.8,2.4 3.6,4.8 5.4,7.2 1.7,2.4 3.4,4.9 5,7.4 1.6,2.5 3.2,5 4.6,7.6 1.5,2.6 2.9,5.3 4.2,8 1.3,2.6 2.6,5.3 3.8,8 1.2,2.7 2.3,5.4 3.4,8.2 1.1,2.8 2.1,5.6 3.1,8.5 0.9,2.8 1.7,5.6 2.5,8.4 0.8,2.9 1.6,5.8 2.2,8.8 0.7,2.9 1.2,5.8 1.7,8.8 0.5,2.9 0.9,5.8 1.3,8.8 0.5,3 0.9,5.9 1.2,8.9 0.1,3 0.1,5.9 0,8.9 0,1.1 0,2.3 0,3.4 0.1,3.1 0.1,6.1 0,9.1 0,0.9 -0.1,1.8 -0.1,2.7 -0.3,3.1 -0.7,6.1 -1.2,9.1 -0.3,3 -0.7,5.9 -1.2,8.8 -0.5,3 -1.2,5.9 -1.9,8.8 -0.5,2.7 -1,5.3 -1.6,7.9 0,0.4 0,0.8 0,1.2 -0.4,0.9 -0.8,1.8 -1.3,2.6 -1.1,4 -2.4,7.9 -3.9,11.7 -1,2.8 -2.2,5.6 -3.3,8.3 -1.2,2.8 -2.3,5.5 -3.6,8.2 -1.3,2.6 -2.7,5.3 -4.2,7.8 -1.4,2.7 -2.9,5.3 -4.4,7.8 -1.5,2.5 -3.2,5 -4.9,7.4 -1.7,2.5 -3.4,4.9 -5.2,7.3 -1.8,2.3 -3.7,4.6 -5.6,6.9 -2,2.3 -4,4.6 -6,6.8 -2,2.2 -4.1,4.3 -6.3,6.3 -2.1,2.1 -4.3,4.1 -6.6,6.1 -2.2,1.9 -4.5,3.9 -6.9,5.7 -2.3,1.9 -4.7,3.7 -7.2,5.4 -2.4,1.7 -4.9,3.4 -7.5,5 -2.5,1.6 -5,3.1 -7.6,4.6 -2.6,1.5 -5.2,2.9 -7.9,4.2 -2.6,1.4 -5.3,2.7 -8.1,4 -2.7,1.1 -5.4,2.2 -8.2,3.3 -2.8,1.1 -5.5,2.1 -8.3,3.1 -2.9,0.9 -5.7,1.7 -8.6,2.5 -2.9,0.8 -5.8,1.6 -8.8,2.3 -2.8,0.6 -5.7,1.1 -8.6,1.6 -3,0.6 -6,1 -9,1.3 -2.9,0.5 -5.9,0.9 -8.8,1.2 -3,0.1 -6,0.1 -8.9,0 -1.2,0 -2.3,0 -3.4,0 z"
         style="fill:#ffffff;fill-opacity:1;fill-rule:nonzero;stroke:none"
         id="path18" /><path
         d="m 15775.6,15963.2 c -3,0.1 -6,0.1 -9,0 -0.9,0 -1.8,0 -2.7,-0.1 -3,-0.3 -6,-0.7 -9.1,-1.2 -2.9,-0.3 -5.9,-0.7 -8.8,-1.2 -2.9,-0.5 -5.9,-1.2 -8.8,-1.9 -2.6,-0.5 -5.3,-1 -7.9,-1.7 -0.4,0 -0.8,0 -1.2,0 -0.8,-0.3 -1.7,-0.7 -2.6,-1.1 -3.9,-1.2 -7.8,-2.5 -11.7,-4 -2.7,-1 -5.5,-2.1 -8.2,-3.3 -2.8,-1.2 -5.5,-2.4 -8.3,-3.7 -2.6,-1.3 -5.2,-2.7 -7.8,-4.2 -2.6,-1.4 -5.2,-2.8 -7.7,-4.4 -2.6,-1.6 -5,-3.2 -7.5,-4.9 -2.4,-1.7 -4.9,-3.4 -7.2,-5.2 -2.4,-1.9 -4.7,-3.7 -6.9,-5.6 -2.3,-1.9 -4.5,-3.9 -6.7,-6 -2.2,-2 -4.3,-4.1 -6.4,-6.3 -2,-2.1 -4,-4.3 -6,-6.6 -2,-2.2 -3.9,-4.5 -5.7,-6.9 -1.9,-2.3 -3.7,-4.7 -5.4,-7.1 -1.8,-2.4 -3.4,-4.9 -5,-7.4 -1.6,-2.5 -3.2,-5.1 -4.7,-7.7 -1.4,-2.6 -2.8,-5.2 -4.1,-8 -1.4,-2.6 -2.6,-5.3 -3.9,-7.9 -1.2,-2.8 -2.3,-5.6 -3.4,-8.4 -1.1,-2.7 -2.1,-5.5 -3,-8.3 -0.9,-2.9 -1.8,-5.7 -2.6,-8.6 -0.8,-2.9 -1.5,-5.7 -2.2,-8.6 -0.6,-2.9 -1.2,-5.9 -1.7,-8.8 -0.5,-3 -0.9,-5.9 -1.2,-8.9 -0.5,-2.9 -0.9,-5.9 -1.3,-8.9 0,-2.9 0,-5.9 0,-8.8 0,-1.2 0,-2.3 0,-3.5 0,-2.9 0,-5.9 0,-8.8 0.1,-1 0.1,-1.9 0.1,-2.9 0.4,-2.9 0.8,-5.9 1.2,-8.8 0.4,-3 0.7,-6 1.2,-9.1 0.6,-2.9 1.2,-5.8 1.9,-8.8 0.5,-2.6 1.1,-5.2 1.7,-7.9 0,-0.4 0,-0.8 0,-1.1 0.4,-0.9 0.8,-1.8 1.2,-2.7 1.2,-3.9 2.5,-7.8 3.9,-11.7 1.1,-2.8 2.2,-5.6 3.4,-8.3 1.1,-2.7 2.3,-5.4 3.5,-8.1 1.4,-2.7 2.8,-5.3 4.2,-7.9 1.4,-2.6 2.9,-5.2 4.4,-7.7 1.6,-2.6 3.2,-5.1 4.9,-7.5 1.7,-2.5 3.4,-4.9 5.2,-7.3 1.8,-2.4 3.6,-4.7 5.6,-6.9 1.9,-2.3 3.9,-4.6 5.9,-6.7 2.1,-2.2 4.2,-4.3 6.4,-6.3 2.1,-2.1 4.3,-4.1 6.5,-6.1 2.3,-2 4.6,-3.9 6.9,-5.7 2.3,-1.9 4.8,-3.7 7.2,-5.4 2.4,-1.7 4.9,-3.4 7.4,-5 2.5,-1.6 5,-3.2 7.6,-4.7 2.6,-1.4 5.2,-2.8 7.9,-4.2 2.6,-1.3 5.3,-2.6 8.1,-3.9 2.7,-1.2 5.4,-2.3 8.2,-3.3 2.8,-1.1 5.6,-2.2 8.5,-3.1 2.8,-0.9 5.7,-1.8 8.6,-2.5 2.8,-0.8 5.8,-1.5 8.7,-2.2 2.8,-0.6 5.8,-1.2 8.7,-1.6 2.9,-0.5 5.9,-1 8.8,-1.4 2.9,-0.4 5.9,-0.8 8.8,-1.1 3,-0.1 6,-0.1 9,0 1.1,-0.1 2.3,-0.1 3.4,0 3,-0.1 6,-0.1 9,0 0.9,0 1.8,0 2.7,0.1 3,0.3 6.1,0.7 9.1,1.2 2.9,0.3 5.9,0.7 8.8,1.1 2.9,0.6 5.8,1.2 8.7,1.9 2.7,0.6 5.3,1.1 8,1.7 0.4,0 0.8,0 1.2,0 0.9,0.4 1.8,0.8 2.6,1.2 4,1.2 7.9,2.5 11.8,3.9 2.8,1.1 5.5,2.2 8.3,3.4 2.7,1.1 5.5,2.4 8.2,3.7 2.6,1.3 5.3,2.7 7.8,4.2 2.7,1.4 5.2,2.9 7.8,4.4 2.5,1.5 5.1,3.2 7.5,4.8 2.5,1.7 4.9,3.5 7.3,5.3 2.3,1.8 4.6,3.7 6.9,5.6 2.3,1.9 4.5,3.8 6.7,5.8 2.1,2.1 4.2,4.2 6.3,6.4 2.1,2.1 4.1,4.2 6.1,6.4 2,2.3 3.9,4.6 5.7,6.9 1.8,2.4 3.6,4.8 5.4,7.2 1.7,2.4 3.4,4.9 5,7.4 1.6,2.5 3.2,5 4.6,7.6 1.5,2.6 2.9,5.3 4.2,8 1.3,2.6 2.6,5.3 3.8,8 1.2,2.7 2.3,5.4 3.4,8.2 1.1,2.8 2.1,5.6 3.1,8.5 0.9,2.8 1.7,5.6 2.5,8.4 0.8,2.9 1.6,5.8 2.2,8.8 0.7,2.9 1.2,5.8 1.7,8.8 0.5,2.9 0.9,5.8 1.3,8.8 0.5,3 0.9,5.9 1.2,8.9 0.1,3 0.1,5.9 0,8.9 0,1.1 0,2.3 0,3.4 0.1,3.1 0.1,6.1 0,9.1 0,0.9 -0.1,1.8 -0.1,2.7 -0.3,3.1 -0.7,6.1 -1.2,9.1 -0.3,3 -0.7,5.9 -1.2,8.8 -0.5,3 -1.2,5.9 -1.9,8.8 -0.5,2.7 -1,5.3 -1.6,7.9 0,0.4 0,0.8 0,1.2 -0.4,0.9 -0.8,1.8 -1.3,2.6 -1.1,4 -2.4,7.9 -3.9,11.7 -1,2.8 -2.2,5.6 -3.3,8.3 -1.2,2.8 -2.3,5.5 -3.6,8.2 -1.3,2.6 -2.7,5.3 -4.2,7.8 -1.4,2.7 -2.9,5.3 -4.4,7.8 -1.5,2.5 -3.2,5 -4.9,7.4 -1.7,2.5 -3.4,4.9 -5.2,7.3 -1.8,2.3 -3.7,4.6 -5.6,6.9 -2,2.3 -4,4.6 -6,6.8 -2,2.2 -4.1,4.3 -6.3,6.3 -2.1,2.1 -4.3,4.1 -6.6,6.1 -2.2,1.9 -4.5,3.9 -6.9,5.7 -2.3,1.9 -4.7,3.7 -7.2,5.4 -2.4,1.7 -4.9,3.4 -7.5,5 -2.5,1.6 -5,3.1 -7.6,4.6 -2.6,1.5 -5.2,2.9 -7.9,4.2 -2.6,1.4 -5.3,2.7 -8.1,4 -2.7,1.1 -5.4,2.2 -8.2,3.3 -2.8,1.1 -5.5,2.1 -8.3,3.1 -2.9,0.9 -5.7,1.7 -8.6,2.5 -2.9,0.8 -5.8,1.6 -8.8,2.3 -2.8,0.6 -5.7,1.1 -8.6,1.6 -3,0.6 -6,1 -9,1.3 -2.9,0.5 -5.9,0.9 -8.8,1.2 -3,0.1 -6,0.1 -8.9,0 -1.2,0 -2.3,0 -3.4,0 z"
         style="fill:#ffffff;fill-opacity:1;fill-rule:nonzero;stroke:none"
         id="path20" /><path
         d="m 15775.6,15963.2 c -3,0.1 -6,0.1 -9,0 -0.9,0 -1.8,0 -2.7,-0.1 -3,-0.3 -6,-0.7 -9.1,-1.2 -2.9,-0.3 -5.9,-0.7 -8.8,-1.2 -2.9,-0.5 -5.9,-1.2 -8.8,-1.9 -2.6,-0.5 -5.3,-1 -7.9,-1.7 -0.4,0 -0.8,0 -1.2,0 -0.8,-0.3 -1.7,-0.7 -2.6,-1.1 -3.9,-1.2 -7.8,-2.5 -11.7,-4 -2.7,-1 -5.5,-2.1 -8.2,-3.3 -2.8,-1.2 -5.5,-2.4 -8.3,-3.7 -2.6,-1.3 -5.2,-2.7 -7.8,-4.2 -2.6,-1.4 -5.2,-2.8 -7.7,-4.4 -2.6,-1.6 -5,-3.2 -7.5,-4.9 -2.4,-1.7 -4.9,-3.4 -7.2,-5.2 -2.4,-1.9 -4.7,-3.7 -6.9,-5.6 -2.3,-1.9 -4.5,-3.9 -6.7,-6 -2.2,-2 -4.3,-4.1 -6.4,-6.3 -2,-2.1 -4,-4.3 -6,-6.6 -2,-2.2 -3.9,-4.5 -5.7,-6.9 -1.9,-2.3 -3.7,-4.7 -5.4,-7.1 -1.8,-2.4 -3.4,-4.9 -5,-7.4 -1.6,-2.5 -3.2,-5.1 -4.7,-7.7 -1.4,-2.6 -2.8,-5.2 -4.1,-8 -1.4,-2.6 -2.6,-5.3 -3.9,-7.9 -1.2,-2.8 -2.3,-5.6 -3.4,-8.4 -1.1,-2.7 -2.1,-5.5 -3,-8.3 -0.9,-2.9 -1.8,-5.7 -2.6,-8.6 -0.8,-2.9 -1.5,-5.7 -2.2,-8.6 -0.6,-2.9 -1.2,-5.9 -1.7,-8.8 -0.5,-3 -0.9,-5.9 -1.2,-8.9 -0.5,-2.9 -0.9,-5.9 -1.3,-8.9 0,-2.9 0,-5.9 0,-8.8 0,-1.2 0,-2.3 0,-3.5 0,-2.9 0,-5.9 0,-8.8 0.1,-1 0.1,-1.9 0.1,-2.9 0.4,-2.9 0.8,-5.9 1.2,-8.8 0.4,-3 0.7,-6 1.2,-9.1 0.6,-2.9 1.2,-5.8 1.9,-8.8 0.5,-2.6 1.1,-5.2 1.7,-7.9 0,-0.4 0,-0.8 0,-1.1 0.4,-0.9 0.8,-1.8 1.2,-2.7 1.2,-3.9 2.5,-7.8 3.9,-11.7 1.1,-2.8 2.2,-5.6 3.4,-8.3 1.1,-2.7 2.3,-5.4 3.5,-8.1 1.4,-2.7 2.8,-5.3 4.2,-7.9 1.4,-2.6 2.9,-5.2 4.4,-7.7 1.6,-2.6 3.2,-5.1 4.9,-7.5 1.7,-2.5 3.4,-4.9 5.2,-7.3 1.8,-2.4 3.6,-4.7 5.6,-6.9 1.9,-2.3 3.9,-4.6 5.9,-6.7 2.1,-2.2 4.2,-4.3 6.4,-6.3 2.1,-2.1 4.3,-4.1 6.5,-6.1 2.3,-2 4.6,-3.9 6.9,-5.7 2.3,-1.9 4.8,-3.7 7.2,-5.4 2.4,-1.7 4.9,-3.4 7.4,-5 2.5,-1.6 5,-3.2 7.6,-4.7 2.6,-1.4 5.2,-2.8 7.9,-4.2 2.6,-1.3 5.3,-2.6 8.1,-3.9 2.7,-1.2 5.4,-2.3 8.2,-3.3 2.8,-1.1 5.6,-2.2 8.5,-3.1 2.8,-0.9 5.7,-1.8 8.6,-2.5 2.8,-0.8 5.8,-1.5 8.7,-2.2 2.8,-0.6 5.8,-1.2 8.7,-1.6 2.9,-0.5 5.9,-1 8.8,-1.4 2.9,-0.4 5.9,-0.8 8.8,-1.1 3,-0.1 6,-0.1 9,0 1.1,-0.1 2.3,-0.1 3.4,0 3,-0.1 6,-0.1 9,0 0.9,0 1.8,0 2.7,0.1 3,0.3 6.1,0.7 9.1,1.2 2.9,0.3 5.9,0.7 8.8,1.1 2.9,0.6 5.8,1.2 8.7,1.9 2.7,0.6 5.3,1.1 8,1.7 0.4,0 0.8,0 1.2,0 0.9,0.4 1.8,0.8 2.6,1.2 4,1.2 7.9,2.5 11.8,3.9 2.8,1.1 5.5,2.2 8.3,3.4 2.7,1.1 5.5,2.4 8.2,3.7 2.6,1.3 5.3,2.7 7.8,4.2 2.7,1.4 5.2,2.9 7.8,4.4 2.5,1.5 5.1,3.2 7.5,4.8 2.5,1.7 4.9,3.5 7.3,5.3 2.3,1.8 4.6,3.7 6.9,5.6 2.3,1.9 4.5,3.8 6.7,5.8 2.1,2.1 4.2,4.2 6.3,6.4 2.1,2.1 4.1,4.2 6.1,6.4 2,2.3 3.9,4.6 5.7,6.9 1.8,2.4 3.6,4.8 5.4,7.2 1.7,2.4 3.4,4.9 5,7.4 1.6,2.5 3.2,5 4.6,7.6 1.5,2.6 2.9,5.3 4.2,8 1.3,2.6 2.6,5.3 3.8,8 1.2,2.7 2.3,5.4 3.4,8.2 1.1,2.8 2.1,5.6 3.1,8.5 0.9,2.8 1.7,5.6 2.5,8.4 0.8,2.9 1.6,5.8 2.2,8.8 0.7,2.9 1.2,5.8 1.7,8.8 0.5,2.9 0.9,5.8 1.3,8.8 0.5,3 0.9,5.9 1.2,8.9 0.1,3 0.1,5.9 0,8.9 0,1.1 0,2.3 0,3.4 0.1,3.1 0.1,6.1 0,9.1 0,0.9 -0.1,1.8 -0.1,2.7 -0.3,3.1 -0.7,6.1 -1.2,9.1 -0.3,3 -0.7,5.9 -1.2,8.8 -0.5,3 -1.2,5.9 -1.9,8.8 -0.5,2.7 -1,5.3 -1.6,7.9 0,0.4 0,0.8 0,1.2 -0.4,0.9 -0.8,1.8 -1.3,2.6 -1.1,4 -2.4,7.9 -3.9,11.7 -1,2.8 -2.2,5.6 -3.3,8.3 -1.2,2.8 -2.3,5.5 -3.6,8.2 -1.3,2.6 -2.7,5.3 -4.2,7.8 -1.4,2.7 -2.9,5.3 -4.4,7.8 -1.5,2.5 -3.2,5 -4.9,7.4 -1.7,2.5 -3.4,4.9 -5.2,7.3 -1.8,2.3 -3.7,4.6 -5.6,6.9 -2,2.3 -4,4.6 -6,6.8 -2,2.2 -4.1,4.3 -6.3,6.3 -2.1,2.1 -4.3,4.1 -6.6,6.1 -2.2,1.9 -4.5,3.9 -6.9,5.7 -2.3,1.9 -4.7,3.7 -7.2,5.4 -2.4,1.7 -4.9,3.4 -7.5,5 -2.5,1.6 -5,3.1 -7.6,4.6 -2.6,1.5 -5.2,2.9 -7.9,4.2 -2.6,1.4 -5.3,2.7 -8.1,4 -2.7,1.1 -5.4,2.2 -8.2,3.3 -2.8,1.1 -5.5,2.1 -8.3,3.1 -2.9,0.9 -5.7,1.7 -8.6,2.5 -2.9,0.8 -5.8,1.6 -8.8,2.3 -2.8,0.6 -5.7,1.1 -8.6,1.6 -3,0.6 -6,1 -9,1.3 -2.9,0.5 -5.9,0.9 -8.8,1.2 -3,0.1 -6,0.1 -8.9,0 -1.2,0 -2.3,0 -3.4,0 z"
         style="fill:#ffffff;fill-opacity:1;fill-rule:nonzero;stroke:none"
         id="path22" /><path
         d="m 15775.6,15963.2 c -3,0.1 -6,0.1 -9,0 -0.9,0 -1.8,0 -2.7,-0.1 -3,-0.3 -6,-0.7 -9.1,-1.2 -2.9,-0.3 -5.9,-0.7 -8.8,-1.2 -2.9,-0.5 -5.9,-1.2 -8.8,-1.9 -2.6,-0.5 -5.3,-1 -7.9,-1.7 -0.4,0 -0.8,0 -1.2,0 -0.8,-0.3 -1.7,-0.7 -2.6,-1.1 -3.9,-1.2 -7.8,-2.5 -11.7,-4 -2.7,-1 -5.5,-2.1 -8.2,-3.3 -2.8,-1.2 -5.5,-2.4 -8.3,-3.7 -2.6,-1.3 -5.2,-2.7 -7.8,-4.2 -2.6,-1.4 -5.2,-2.8 -7.7,-4.4 -2.6,-1.6 -5,-3.2 -7.5,-4.9 -2.4,-1.7 -4.9,-3.4 -7.2,-5.2 -2.4,-1.9 -4.7,-3.7 -6.9,-5.6 -2.3,-1.9 -4.5,-3.9 -6.7,-6 -2.2,-2 -4.3,-4.1 -6.4,-6.3 -2,-2.1 -4,-4.3 -6,-6.6 -2,-2.2 -3.9,-4.5 -5.7,-6.9 -1.9,-2.3 -3.7,-4.7 -5.4,-7.1 -1.8,-2.4 -3.4,-4.9 -5,-7.4 -1.6,-2.5 -3.2,-5.1 -4.7,-7.7 -1.4,-2.6 -2.8,-5.2 -4.1,-8 -1.4,-2.6 -2.6,-5.3 -3.9,-7.9 -1.2,-2.8 -2.3,-5.6 -3.4,-8.4 -1.1,-2.7 -2.1,-5.5 -3,-8.3 -0.9,-2.9 -1.8,-5.7 -2.6,-8.6 -0.8,-2.9 -1.5,-5.7 -2.2,-8.6 -0.6,-2.9 -1.2,-5.9 -1.7,-8.8 -0.5,-3 -0.9,-5.9 -1.2,-8.9 -0.5,-2.9 -0.9,-5.9 -1.3,-8.9 0,-2.9 0,-5.9 0,-8.8 0,-1.2 0,-2.3 0,-3.5 0,-2.9 0,-5.9 0,-8.8 0.1,-1 0.1,-1.9 0.1,-2.9 0.4,-2.9 0.8,-5.9 1.2,-8.8 0.4,-3 0.7,-6 1.2,-9.1 0.6,-2.9 1.2,-5.8 1.9,-8.8 0.5,-2.6 1.1,-5.2 1.7,-7.9 0,-0.4 0,-0.8 0,-1.1 0.4,-0.9 0.8,-1.8 1.2,-2.7 1.2,-3.9 2.5,-7.8 3.9,-11.7 1.1,-2.8 2.2,-5.6 3.4,-8.3 1.1,-2.7 2.3,-5.4 3.5,-8.1 1.4,-2.7 2.8,-5.3 4.2,-7.9 1.4,-2.6 2.9,-5.2 4.4,-7.7 1.6,-2.6 3.2,-5.1 4.9,-7.5 1.7,-2.5 3.4,-4.9 5.2,-7.3 1.8,-2.4 3.6,-4.7 5.6,-6.9 1.9,-2.3 3.9,-4.6 5.9,-6.7 2.1,-2.2 4.2,-4.3 6.4,-6.3 2.1,-2.1 4.3,-4.1 6.5,-6.1 2.3,-2 4.6,-3.9 6.9,-5.7 2.3,-1.9 4.8,-3.7 7.2,-5.4 2.4,-1.7 4.9,-3.4 7.4,-5 2.5,-1.6 5,-3.2 7.6,-4.7 2.6,-1.4 5.2,-2.8 7.9,-4.2 2.6,-1.3 5.3,-2.6 8.1,-3.9 2.7,-1.2 5.4,-2.3 8.2,-3.3 2.8,-1.1 5.6,-2.2 8.5,-3.1 2.8,-0.9 5.7,-1.8 8.6,-2.5 2.8,-0.8 5.8,-1.5 8.7,-2.2 2.8,-0.6 5.8,-1.2 8.7,-1.6 2.9,-0.5 5.9,-1 8.8,-1.4 2.9,-0.4 5.9,-0.8 8.8,-1.1 3,-0.1 6,-0.1 9,0 1.1,-0.1 2.3,-0.1 3.4,0 3,-0.1 6,-0.1 9,0 0.9,0 1.8,0 2.7,0.1 3,0.3 6.1,0.7 9.1,1.2 2.9,0.3 5.9,0.7 8.8,1.1 2.9,0.6 5.8,1.2 8.7,1.9 2.7,0.6 5.3,1.1 8,1.7 0.4,0 0.8,0 1.2,0 0.9,0.4 1.8,0.8 2.6,1.2 4,1.2 7.9,2.5 11.8,3.9 2.8,1.1 5.5,2.2 8.3,3.4 2.7,1.1 5.5,2.4 8.2,3.7 2.6,1.3 5.3,2.7 7.8,4.2 2.7,1.4 5.2,2.9 7.8,4.4 2.5,1.5 5.1,3.2 7.5,4.8 2.5,1.7 4.9,3.5 7.3,5.3 2.3,1.8 4.6,3.7 6.9,5.6 2.3,1.9 4.5,3.8 6.7,5.8 2.1,2.1 4.2,4.2 6.3,6.4 2.1,2.1 4.1,4.2 6.1,6.4 2,2.3 3.9,4.6 5.7,6.9 1.8,2.4 3.6,4.8 5.4,7.2 1.7,2.4 3.4,4.9 5,7.4 1.6,2.5 3.2,5 4.6,7.6 1.5,2.6 2.9,5.3 4.2,8 1.3,2.6 2.6,5.3 3.8,8 1.2,2.7 2.3,5.4 3.4,8.2 1.1,2.8 2.1,5.6 3.1,8.5 0.9,2.8 1.7,5.6 2.5,8.4 0.8,2.9 1.6,5.8 2.2,8.8 0.7,2.9 1.2,5.8 1.7,8.8 0.5,2.9 0.9,5.8 1.3,8.8 0.5,3 0.9,5.9 1.2,8.9 0.1,3 0.1,5.9 0,8.9 0,1.1 0,2.3 0,3.4 0.1,3.1 0.1,6.1 0,9.1 0,0.9 -0.1,1.8 -0.1,2.7 -0.3,3.1 -0.7,6.1 -1.2,9.1 -0.3,3 -0.7,5.9 -1.2,8.8 -0.5,3 -1.2,5.9 -1.9,8.8 -0.5,2.7 -1,5.3 -1.6,7.9 0,0.4 0,0.8 0,1.2 -0.4,0.9 -0.8,1.8 -1.3,2.6 -1.1,4 -2.4,7.9 -3.9,11.7 -1,2.8 -2.2,5.6 -3.3,8.3 -1.2,2.8 -2.3,5.5 -3.6,8.2 -1.3,2.6 -2.7,5.3 -4.2,7.8 -1.4,2.7 -2.9,5.3 -4.4,7.8 -1.5,2.5 -3.2,5 -4.9,7.4 -1.7,2.5 -3.4,4.9 -5.2,7.3 -1.8,2.3 -3.7,4.6 -5.6,6.9 -2,2.3 -4,4.6 -6,6.8 -2,2.2 -4.1,4.3 -6.3,6.3 -2.1,2.1 -4.3,4.1 -6.6,6.1 -2.2,1.9 -4.5,3.9 -6.9,5.7 -2.3,1.9 -4.7,3.7 -7.2,5.4 -2.4,1.7 -4.9,3.4 -7.5,5 -2.5,1.6 -5,3.1 -7.6,4.6 -2.6,1.5 -5.2,2.9 -7.9,4.2 -2.6,1.4 -5.3,2.7 -8.1,4 -2.7,1.1 -5.4,2.2 -8.2,3.3 -2.8,1.1 -5.5,2.1 -8.3,3.1 -2.9,0.9 -5.7,1.7 -8.6,2.5 -2.9,0.8 -5.8,1.6 -8.8,2.3 -2.8,0.6 -5.7,1.1 -8.6,1.6 -3,0.6 -6,1 -9,1.3 -2.9,0.5 -5.9,0.9 -8.8,1.2 -3,0.1 -6,0.1 -8.9,0 -1.2,0 -2.3,0 -3.4,0 z"
         style="fill:#ffffff;fill-opacity:1;fill-rule:nonzero;stroke:none"
         id="path24" /><path
         d="m 15775.6,15963.2 c -3,0.1 -6,0.1 -9,0 -0.9,0 -1.8,0 -2.7,-0.1 -3,-0.3 -6,-0.7 -9.1,-1.2 -2.9,-0.3 -5.9,-0.7 -8.8,-1.2 -2.9,-0.5 -5.9,-1.2 -8.8,-1.9 -2.6,-0.5 -5.3,-1 -7.9,-1.7 -0.4,0 -0.8,0 -1.2,0 -0.8,-0.3 -1.7,-0.7 -2.6,-1.1 -3.9,-1.2 -7.8,-2.5 -11.7,-4 -2.7,-1 -5.5,-2.1 -8.2,-3.3 -2.8,-1.2 -5.5,-2.4 -8.3,-3.7 -2.6,-1.3 -5.2,-2.7 -7.8,-4.2 -2.6,-1.4 -5.2,-2.8 -7.7,-4.4 -2.6,-1.6 -5,-3.2 -7.5,-4.9 -2.4,-1.7 -4.9,-3.4 -7.2,-5.2 -2.4,-1.9 -4.7,-3.7 -6.9,-5.6 -2.3,-1.9 -4.5,-3.9 -6.7,-6 -2.2,-2 -4.3,-4.1 -6.4,-6.3 -2,-2.1 -4,-4.3 -6,-6.6 -2,-2.2 -3.9,-4.5 -5.7,-6.9 -1.9,-2.3 -3.7,-4.7 -5.4,-7.1 -1.8,-2.4 -3.4,-4.9 -5,-7.4 -1.6,-2.5 -3.2,-5.1 -4.7,-7.7 -1.4,-2.6 -2.8,-5.2 -4.1,-8 -1.4,-2.6 -2.6,-5.3 -3.9,-7.9 -1.2,-2.8 -2.3,-5.6 -3.4,-8.4 -1.1,-2.7 -2.1,-5.5 -3,-8.3 -0.9,-2.9 -1.8,-5.7 -2.6,-8.6 -0.8,-2.9 -1.5,-5.7 -2.2,-8.6 -0.6,-2.9 -1.2,-5.9 -1.7,-8.8 -0.5,-3 -0.9,-5.9 -1.2,-8.9 -0.5,-2.9 -0.9,-5.9 -1.3,-8.9 0,-2.9 0,-5.9 0,-8.8 0,-1.2 0,-2.3 0,-3.5 0,-2.9 0,-5.9 0,-8.8 0.1,-1 0.1,-1.9 0.1,-2.9 0.4,-2.9 0.8,-5.9 1.2,-8.8 0.4,-3 0.7,-6 1.2,-9.1 0.6,-2.9 1.2,-5.8 1.9,-8.8 0.5,-2.6 1.1,-5.2 1.7,-7.9 0,-0.4 0,-0.8 0,-1.1 0.4,-0.9 0.8,-1.8 1.2,-2.7 1.2,-3.9 2.5,-7.8 3.9,-11.7 1.1,-2.8 2.2,-5.6 3.4,-8.3 1.1,-2.7 2.3,-5.4 3.5,-8.1 1.4,-2.7 2.8,-5.3 4.2,-7.9 1.4,-2.6 2.9,-5.2 4.4,-7.7 1.6,-2.6 3.2,-5.1 4.9,-7.5 1.7,-2.5 3.4,-4.9 5.2,-7.3 1.8,-2.4 3.6,-4.7 5.6,-6.9 1.9,-2.3 3.9,-4.6 5.9,-6.7 2.1,-2.2 4.2,-4.3 6.4,-6.3 2.1,-2.1 4.3,-4.1 6.5,-6.1 2.3,-2 4.6,-3.9 6.9,-5.7 2.3,-1.9 4.8,-3.7 7.2,-5.4 2.4,-1.7 4.9,-3.4 7.4,-5 2.5,-1.6 5,-3.2 7.6,-4.7 2.6,-1.4 5.2,-2.8 7.9,-4.2 2.6,-1.3 5.3,-2.6 8.1,-3.9 2.7,-1.2 5.4,-2.3 8.2,-3.3 2.8,-1.1 5.6,-2.2 8.5,-3.1 2.8,-0.9 5.7,-1.8 8.6,-2.5 2.8,-0.8 5.8,-1.5 8.7,-2.2 2.8,-0.6 5.8,-1.2 8.7,-1.6 2.9,-0.5 5.9,-1 8.8,-1.4 2.9,-0.4 5.9,-0.8 8.8,-1.1 3,-0.1 6,-0.1 9,0 1.1,-0.1 2.3,-0.1 3.4,0 3,-0.1 6,-0.1 9,0 0.9,0 1.8,0 2.7,0.1 3,0.3 6.1,0.7 9.1,1.2 2.9,0.3 5.9,0.7 8.8,1.1 2.9,0.6 5.8,1.2 8.7,1.9 2.7,0.6 5.3,1.1 8,1.7 0.4,0 0.8,0 1.2,0 0.9,0.4 1.8,0.8 2.6,1.2 4,1.2 7.9,2.5 11.8,3.9 2.8,1.1 5.5,2.2 8.3,3.4 2.7,1.1 5.5,2.4 8.2,3.7 2.6,1.3 5.3,2.7 7.8,4.2 2.7,1.4 5.2,2.9 7.8,4.4 2.5,1.5 5.1,3.2 7.5,4.8 2.5,1.7 4.9,3.5 7.3,5.3 2.3,1.8 4.6,3.7 6.9,5.6 2.3,1.9 4.5,3.8 6.7,5.8 2.1,2.1 4.2,4.2 6.3,6.4 2.1,2.1 4.1,4.2 6.1,6.4 2,2.3 3.9,4.6 5.7,6.9 1.8,2.4 3.6,4.8 5.4,7.2 1.7,2.4 3.4,4.9 5,7.4 1.6,2.5 3.2,5 4.6,7.6 1.5,2.6 2.9,5.3 4.2,8 1.3,2.6 2.6,5.3 3.8,8 1.2,2.7 2.3,5.4 3.4,8.2 1.1,2.8 2.1,5.6 3.1,8.5 0.9,2.8 1.7,5.6 2.5,8.4 0.8,2.9 1.6,5.8 2.2,8.8 0.7,2.9 1.2,5.8 1.7,8.8 0.5,2.9 0.9,5.8 1.3,8.8 0.5,3 0.9,5.9 1.2,8.9 0.1,3 0.1,5.9 0,8.9 0,1.1 0,2.3 0,3.4 0.1,3.1 0.1,6.1 0,9.1 0,0.9 -0.1,1.8 -0.1,2.7 -0.3,3.1 -0.7,6.1 -1.2,9.1 -0.3,3 -0.7,5.9 -1.2,8.8 -0.5,3 -1.2,5.9 -1.9,8.8 -0.5,2.7 -1,5.3 -1.6,7.9 0,0.4 0,0.8 0,1.2 -0.4,0.9 -0.8,1.8 -1.3,2.6 -1.1,4 -2.4,7.9 -3.9,11.7 -1,2.8 -2.2,5.6 -3.3,8.3 -1.2,2.8 -2.3,5.5 -3.6,8.2 -1.3,2.6 -2.7,5.3 -4.2,7.8 -1.4,2.7 -2.9,5.3 -4.4,7.8 -1.5,2.5 -3.2,5 -4.9,7.4 -1.7,2.5 -3.4,4.9 -5.2,7.3 -1.8,2.3 -3.7,4.6 -5.6,6.9 -2,2.3 -4,4.6 -6,6.8 -2,2.2 -4.1,4.3 -6.3,6.3 -2.1,2.1 -4.3,4.1 -6.6,6.1 -2.2,1.9 -4.5,3.9 -6.9,5.7 -2.3,1.9 -4.7,3.7 -7.2,5.4 -2.4,1.7 -4.9,3.4 -7.5,5 -2.5,1.6 -5,3.1 -7.6,4.6 -2.6,1.5 -5.2,2.9 -7.9,4.2 -2.6,1.4 -5.3,2.7 -8.1,4 -2.7,1.1 -5.4,2.2 -8.2,3.3 -2.8,1.1 -5.5,2.1 -8.3,3.1 -2.9,0.9 -5.7,1.7 -8.6,2.5 -2.9,0.8 -5.8,1.6 -8.8,2.3 -2.8,0.6 -5.7,1.1 -8.6,1.6 -3,0.6 -6,1 -9,1.3 -2.9,0.5 -5.9,0.9 -8.8,1.2 -3,0.1 -6,0.1 -8.9,0 -1.2,0 -2.3,0 -3.4,0 z"
         style="fill:#ffffff;fill-opacity:1;fill-rule:nonzero;stroke:none"
         id="path26" /><path
         d="m 15775.6,15963.2 c -3,0.1 -6,0.1 -9,0 -0.9,0 -1.8,0 -2.7,-0.1 -3,-0.3 -6,-0.7 -9.1,-1.2 -2.9,-0.3 -5.9,-0.7 -8.8,-1.2 -2.9,-0.5 -5.9,-1.2 -8.8,-1.9 -2.6,-0.5 -5.3,-1 -7.9,-1.7 -0.4,0 -0.8,0 -1.2,0 -0.8,-0.3 -1.7,-0.7 -2.6,-1.1 -3.9,-1.2 -7.8,-2.5 -11.7,-4 -2.7,-1 -5.5,-2.1 -8.2,-3.3 -2.8,-1.2 -5.5,-2.4 -8.3,-3.7 -2.6,-1.3 -5.2,-2.7 -7.8,-4.2 -2.6,-1.4 -5.2,-2.8 -7.7,-4.4 -2.6,-1.6 -5,-3.2 -7.5,-4.9 -2.4,-1.7 -4.9,-3.4 -7.2,-5.2 -2.4,-1.9 -4.7,-3.7 -6.9,-5.6 -2.3,-1.9 -4.5,-3.9 -6.7,-6 -2.2,-2 -4.3,-4.1 -6.4,-6.3 -2,-2.1 -4,-4.3 -6,-6.6 -2,-2.2 -3.9,-4.5 -5.7,-6.9 -1.9,-2.3 -3.7,-4.7 -5.4,-7.1 -1.8,-2.4 -3.4,-4.9 -5,-7.4 -1.6,-2.5 -3.2,-5.1 -4.7,-7.7 -1.4,-2.6 -2.8,-5.2 -4.1,-8 -1.4,-2.6 -2.6,-5.3 -3.9,-7.9 -1.2,-2.8 -2.3,-5.6 -3.4,-8.4 -1.1,-2.7 -2.1,-5.5 -3,-8.3 -0.9,-2.9 -1.8,-5.7 -2.6,-8.6 -0.8,-2.9 -1.5,-5.7 -2.2,-8.6 -0.6,-2.9 -1.2,-5.9 -1.7,-8.8 -0.5,-3 -0.9,-5.9 -1.2,-8.9 -0.5,-2.9 -0.9,-5.9 -1.3,-8.9 0,-2.9 0,-5.9 0,-8.8 0,-1.2 0,-2.3 0,-3.5 0,-2.9 0,-5.9 0,-8.8 0.1,-1 0.1,-1.9 0.1,-2.9 0.4,-2.9 0.8,-5.9 1.2,-8.8 0.4,-3 0.7,-6 1.2,-9.1 0.6,-2.9 1.2,-5.8 1.9,-8.8 0.5,-2.6 1.1,-5.2 1.7,-7.9 0,-0.4 0,-0.8 0,-1.1 0.4,-0.9 0.8,-1.8 1.2,-2.7 1.2,-3.9 2.5,-7.8 3.9,-11.7 1.1,-2.8 2.2,-5.6 3.4,-8.3 1.1,-2.7 2.3,-5.4 3.5,-8.1 1.4,-2.7 2.8,-5.3 4.2,-7.9 1.4,-2.6 2.9,-5.2 4.4,-7.7 1.6,-2.6 3.2,-5.1 4.9,-7.5 1.7,-2.5 3.4,-4.9 5.2,-7.3 1.8,-2.4 3.6,-4.7 5.6,-6.9 1.9,-2.3 3.9,-4.6 5.9,-6.7 2.1,-2.2 4.2,-4.3 6.4,-6.3 2.1,-2.1 4.3,-4.1 6.5,-6.1 2.3,-2 4.6,-3.9 6.9,-5.7 2.3,-1.9 4.8,-3.7 7.2,-5.4 2.4,-1.7 4.9,-3.4 7.4,-5 2.5,-1.6 5,-3.2 7.6,-4.7 2.6,-1.4 5.2,-2.8 7.9,-4.2 2.6,-1.3 5.3,-2.6 8.1,-3.9 2.7,-1.2 5.4,-2.3 8.2,-3.3 2.8,-1.1 5.6,-2.2 8.5,-3.1 2.8,-0.9 5.7,-1.8 8.6,-2.5 2.8,-0.8 5.8,-1.5 8.7,-2.2 2.8,-0.6 5.8,-1.2 8.7,-1.6 2.9,-0.5 5.9,-1 8.8,-1.4 2.9,-0.4 5.9,-0.8 8.8,-1.1 3,-0.1 6,-0.1 9,0 1.1,-0.1 2.3,-0.1 3.4,0 3,-0.1 6,-0.1 9,0 0.9,0 1.8,0 2.7,0.1 3,0.3 6.1,0.7 9.1,1.2 2.9,0.3 5.9,0.7 8.8,1.1 2.9,0.6 5.8,1.2 8.7,1.9 2.7,0.6 5.3,1.1 8,1.7 0.4,0 0.8,0 1.2,0 0.9,0.4 1.8,0.8 2.6,1.2 4,1.2 7.9,2.5 11.8,3.9 2.8,1.1 5.5,2.2 8.3,3.4 2.7,1.1 5.5,2.4 8.2,3.7 2.6,1.3 5.3,2.7 7.8,4.2 2.7,1.4 5.2,2.9 7.8,4.4 2.5,1.5 5.1,3.2 7.5,4.8 2.5,1.7 4.9,3.5 7.3,5.3 2.3,1.8 4.6,3.7 6.9,5.6 2.3,1.9 4.5,3.8 6.7,5.8 2.1,2.1 4.2,4.2 6.3,6.4 2.1,2.1 4.1,4.2 6.1,6.4 2,2.3 3.9,4.6 5.7,6.9 1.8,2.4 3.6,4.8 5.4,7.2 1.7,2.4 3.4,4.9 5,7.4 1.6,2.5 3.2,5 4.6,7.6 1.5,2.6 2.9,5.3 4.2,8 1.3,2.6 2.6,5.3 3.8,8 1.2,2.7 2.3,5.4 3.4,8.2 1.1,2.8 2.1,5.6 3.1,8.5 0.9,2.8 1.7,5.6 2.5,8.4 0.8,2.9 1.6,5.8 2.2,8.8 0.7,2.9 1.2,5.8 1.7,8.8 0.5,2.9 0.9,5.8 1.3,8.8 0.5,3 0.9,5.9 1.2,8.9 0.1,3 0.1,5.9 0,8.9 0,1.1 0,2.3 0,3.4 0.1,3.1 0.1,6.1 0,9.1 0,0.9 -0.1,1.8 -0.1,2.7 -0.3,3.1 -0.7,6.1 -1.2,9.1 -0.3,3 -0.7,5.9 -1.2,8.8 -0.5,3 -1.2,5.9 -1.9,8.8 -0.5,2.7 -1,5.3 -1.6,7.9 0,0.4 0,0.8 0,1.2 -0.4,0.9 -0.8,1.8 -1.3,2.6 -1.1,4 -2.4,7.9 -3.9,11.7 -1,2.8 -2.2,5.6 -3.3,8.3 -1.2,2.8 -2.3,5.5 -3.6,8.2 -1.3,2.6 -2.7,5.3 -4.2,7.8 -1.4,2.7 -2.9,5.3 -4.4,7.8 -1.5,2.5 -3.2,5 -4.9,7.4 -1.7,2.5 -3.4,4.9 -5.2,7.3 -1.8,2.3 -3.7,4.6 -5.6,6.9 -2,2.3 -4,4.6 -6,6.8 -2,2.2 -4.1,4.3 -6.3,6.3 -2.1,2.1 -4.3,4.1 -6.6,6.1 -2.2,1.9 -4.5,3.9 -6.9,5.7 -2.3,1.9 -4.7,3.7 -7.2,5.4 -2.4,1.7 -4.9,3.4 -7.5,5 -2.5,1.6 -5,3.1 -7.6,4.6 -2.6,1.5 -5.2,2.9 -7.9,4.2 -2.6,1.4 -5.3,2.7 -8.1,4 -2.7,1.1 -5.4,2.2 -8.2,3.3 -2.8,1.1 -5.5,2.1 -8.3,3.1 -2.9,0.9 -5.7,1.7 -8.6,2.5 -2.9,0.8 -5.8,1.6 -8.8,2.3 -2.8,0.6 -5.7,1.1 -8.6,1.6 -3,0.6 -6,1 -9,1.3 -2.9,0.5 -5.9,0.9 -8.8,1.2 -3,0.1 -6,0.1 -8.9,0 -1.2,0 -2.3,0 -3.4,0 z"
         style="fill:#ffffff;fill-opacity:1;fill-rule:nonzero;stroke:none"
         id="path28" /><path
         d="m 15775.6,15963.2 c -3,0.1 -6,0.1 -9,0 -0.9,0 -1.8,0 -2.7,-0.1 -3,-0.3 -6,-0.7 -9.1,-1.2 -2.9,-0.3 -5.9,-0.7 -8.8,-1.2 -2.9,-0.5 -5.9,-1.2 -8.8,-1.9 -2.6,-0.5 -5.3,-1 -7.9,-1.7 -0.4,0 -0.8,0 -1.2,0 -0.8,-0.3 -1.7,-0.7 -2.6,-1.1 -3.9,-1.2 -7.8,-2.5 -11.7,-4 -2.7,-1 -5.5,-2.1 -8.2,-3.3 -2.8,-1.2 -5.5,-2.4 -8.3,-3.7 -2.6,-1.3 -5.2,-2.7 -7.8,-4.2 -2.6,-1.4 -5.2,-2.8 -7.7,-4.4 -2.6,-1.6 -5,-3.2 -7.5,-4.9 -2.4,-1.7 -4.9,-3.4 -7.2,-5.2 -2.4,-1.9 -4.7,-3.7 -6.9,-5.6 -2.3,-1.9 -4.5,-3.9 -6.7,-6 -2.2,-2 -4.3,-4.1 -6.4,-6.3 -2,-2.1 -4,-4.3 -6,-6.6 -2,-2.2 -3.9,-4.5 -5.7,-6.9 -1.9,-2.3 -3.7,-4.7 -5.4,-7.1 -1.8,-2.4 -3.4,-4.9 -5,-7.4 -1.6,-2.5 -3.2,-5.1 -4.7,-7.7 -1.4,-2.6 -2.8,-5.2 -4.1,-8 -1.4,-2.6 -2.6,-5.3 -3.9,-7.9 -1.2,-2.8 -2.3,-5.6 -3.4,-8.4 -1.1,-2.7 -2.1,-5.5 -3,-8.3 -0.9,-2.9 -1.8,-5.7 -2.6,-8.6 -0.8,-2.9 -1.5,-5.7 -2.2,-8.6 -0.6,-2.9 -1.2,-5.9 -1.7,-8.8 -0.5,-3 -0.9,-5.9 -1.2,-8.9 -0.5,-2.9 -0.9,-5.9 -1.3,-8.9 0,-2.9 0,-5.9 0,-8.8 0,-1.2 0,-2.3 0,-3.5 0,-2.9 0,-5.9 0,-8.8 0.1,-1 0.1,-1.9 0.1,-2.9 0.4,-2.9 0.8,-5.9 1.2,-8.8 0.4,-3 0.7,-6 1.2,-9.1 0.6,-2.9 1.2,-5.8 1.9,-8.8 0.5,-2.6 1.1,-5.2 1.7,-7.9 0,-0.4 0,-0.8 0,-1.1 0.4,-0.9 0.8,-1.8 1.2,-2.7 1.2,-3.9 2.5,-7.8 3.9,-11.7 1.1,-2.8 2.2,-5.6 3.4,-8.3 1.1,-2.7 2.3,-5.4 3.5,-8.1 1.4,-2.7 2.8,-5.3 4.2,-7.9 1.4,-2.6 2.9,-5.2 4.4,-7.7 1.6,-2.6 3.2,-5.1 4.9,-7.5 1.7,-2.5 3.4,-4.9 5.2,-7.3 1.8,-2.4 3.6,-4.7 5.6,-6.9 1.9,-2.3 3.9,-4.6 5.9,-6.7 2.1,-2.2 4.2,-4.3 6.4,-6.3 2.1,-2.1 4.3,-4.1 6.5,-6.1 2.3,-2 4.6,-3.9 6.9,-5.7 2.3,-1.9 4.8,-3.7 7.2,-5.4 2.4,-1.7 4.9,-3.4 7.4,-5 2.5,-1.6 5,-3.2 7.6,-4.7 2.6,-1.4 5.2,-2.8 7.9,-4.2 2.6,-1.3 5.3,-2.6 8.1,-3.9 2.7,-1.2 5.4,-2.3 8.2,-3.3 2.8,-1.1 5.6,-2.2 8.5,-3.1 2.8,-0.9 5.7,-1.8 8.6,-2.5 2.8,-0.8 5.8,-1.5 8.7,-2.2 2.8,-0.6 5.8,-1.2 8.7,-1.6 2.9,-0.5 5.9,-1 8.8,-1.4 2.9,-0.4 5.9,-0.8 8.8,-1.1 3,-0.1 6,-0.1 9,0 1.1,-0.1 2.3,-0.1 3.4,0 3,-0.1 6,-0.1 9,0 0.9,0 1.8,0 2.7,0.1 3,0.3 6.1,0.7 9.1,1.2 2.9,0.3 5.9,0.7 8.8,1.1 2.9,0.6 5.8,1.2 8.7,1.9 2.7,0.6 5.3,1.1 8,1.7 0.4,0 0.8,0 1.2,0 0.9,0.4 1.8,0.8 2.6,1.2 4,1.2 7.9,2.5 11.8,3.9 2.8,1.1 5.5,2.2 8.3,3.4 2.7,1.1 5.5,2.4 8.2,3.7 2.6,1.3 5.3,2.7 7.8,4.2 2.7,1.4 5.2,2.9 7.8,4.4 2.5,1.5 5.1,3.2 7.5,4.8 2.5,1.7 4.9,3.5 7.3,5.3 2.3,1.8 4.6,3.7 6.9,5.6 2.3,1.9 4.5,3.8 6.7,5.8 2.1,2.1 4.2,4.2 6.3,6.4 2.1,2.1 4.1,4.2 6.1,6.4 2,2.3 3.9,4.6 5.7,6.9 1.8,2.4 3.6,4.8 5.4,7.2 1.7,2.4 3.4,4.9 5,7.4 1.6,2.5 3.2,5 4.6,7.6 1.5,2.6 2.9,5.3 4.2,8 1.3,2.6 2.6,5.3 3.8,8 1.2,2.7 2.3,5.4 3.4,8.2 1.1,2.8 2.1,5.6 3.1,8.5 0.9,2.8 1.7,5.6 2.5,8.4 0.8,2.9 1.6,5.8 2.2,8.8 0.7,2.9 1.2,5.8 1.7,8.8 0.5,2.9 0.9,5.8 1.3,8.8 0.5,3 0.9,5.9 1.2,8.9 0.1,3 0.1,5.9 0,8.9 0,1.1 0,2.3 0,3.4 0.1,3.1 0.1,6.1 0,9.1 0,0.9 -0.1,1.8 -0.1,2.7 -0.3,3.1 -0.7,6.1 -1.2,9.1 -0.3,3 -0.7,5.9 -1.2,8.8 -0.5,3 -1.2,5.9 -1.9,8.8 -0.5,2.7 -1,5.3 -1.6,7.9 0,0.4 0,0.8 0,1.2 -0.4,0.9 -0.8,1.8 -1.3,2.6 -1.1,4 -2.4,7.9 -3.9,11.7 -1,2.8 -2.2,5.6 -3.3,8.3 -1.2,2.8 -2.3,5.5 -3.6,8.2 -1.3,2.6 -2.7,5.3 -4.2,7.8 -1.4,2.7 -2.9,5.3 -4.4,7.8 -1.5,2.5 -3.2,5 -4.9,7.4 -1.7,2.5 -3.4,4.9 -5.2,7.3 -1.8,2.3 -3.7,4.6 -5.6,6.9 -2,2.3 -4,4.6 -6,6.8 -2,2.2 -4.1,4.3 -6.3,6.3 -2.1,2.1 -4.3,4.1 -6.6,6.1 -2.2,1.9 -4.5,3.9 -6.9,5.7 -2.3,1.9 -4.7,3.7 -7.2,5.4 -2.4,1.7 -4.9,3.4 -7.5,5 -2.5,1.6 -5,3.1 -7.6,4.6 -2.6,1.5 -5.2,2.9 -7.9,4.2 -2.6,1.4 -5.3,2.7 -8.1,4 -2.7,1.1 -5.4,2.2 -8.2,3.3 -2.8,1.1 -5.5,2.1 -8.3,3.1 -2.9,0.9 -5.7,1.7 -8.6,2.5 -2.9,0.8 -5.8,1.6 -8.8,2.3 -2.8,0.6 -5.7,1.1 -8.6,1.6 -3,0.6 -6,1 -9,1.3 -2.9,0.5 -5.9,0.9 -8.8,1.2 -3,0.1 -6,0.1 -8.9,0 -1.2,0 -2.3,0 -3.4,0 z"
         style="fill:#ffffff;fill-opacity:1;fill-rule:nonzero;stroke:none"
         id="path30" /><path
         d="m 15775.6,15963.2 c -3,0.1 -6,0.1 -9,0 -0.9,0 -1.8,0 -2.7,-0.1 -3,-0.3 -6,-0.7 -9.1,-1.2 -2.9,-0.3 -5.9,-0.7 -8.8,-1.2 -2.9,-0.5 -5.9,-1.2 -8.8,-1.9 -2.6,-0.5 -5.3,-1 -7.9,-1.7 -0.4,0 -0.8,0 -1.2,0 -0.8,-0.3 -1.7,-0.7 -2.6,-1.1 -3.9,-1.2 -7.8,-2.5 -11.7,-4 -2.7,-1 -5.5,-2.1 -8.2,-3.3 -2.8,-1.2 -5.5,-2.4 -8.3,-3.7 -2.6,-1.3 -5.2,-2.7 -7.8,-4.2 -2.6,-1.4 -5.2,-2.8 -7.7,-4.4 -2.6,-1.6 -5,-3.2 -7.5,-4.9 -2.4,-1.7 -4.9,-3.4 -7.2,-5.2 -2.4,-1.9 -4.7,-3.7 -6.9,-5.6 -2.3,-1.9 -4.5,-3.9 -6.7,-6 -2.2,-2 -4.3,-4.1 -6.4,-6.3 -2,-2.1 -4,-4.3 -6,-6.6 -2,-2.2 -3.9,-4.5 -5.7,-6.9 -1.9,-2.3 -3.7,-4.7 -5.4,-7.1 -1.8,-2.4 -3.4,-4.9 -5,-7.4 -1.6,-2.5 -3.2,-5.1 -4.7,-7.7 -1.4,-2.6 -2.8,-5.2 -4.1,-8 -1.4,-2.6 -2.6,-5.3 -3.9,-7.9 -1.2,-2.8 -2.3,-5.6 -3.4,-8.4 -1.1,-2.7 -2.1,-5.5 -3,-8.3 -0.9,-2.9 -1.8,-5.7 -2.6,-8.6 -0.8,-2.9 -1.5,-5.7 -2.2,-8.6 -0.6,-2.9 -1.2,-5.9 -1.7,-8.8 -0.5,-3 -0.9,-5.9 -1.2,-8.9 -0.5,-2.9 -0.9,-5.9 -1.3,-8.9 0,-2.9 0,-5.9 0,-8.8 0,-1.2 0,-2.3 0,-3.5 0,-2.9 0,-5.9 0,-8.8 0.1,-1 0.1,-1.9 0.1,-2.9 0.4,-2.9 0.8,-5.9 1.2,-8.8 0.4,-3 0.7,-6 1.2,-9.1 0.6,-2.9 1.2,-5.8 1.9,-8.8 0.5,-2.6 1.1,-5.2 1.7,-7.9 0,-0.4 0,-0.8 0,-1.1 0.4,-0.9 0.8,-1.8 1.2,-2.7 1.2,-3.9 2.5,-7.8 3.9,-11.7 1.1,-2.8 2.2,-5.6 3.4,-8.3 1.1,-2.7 2.3,-5.4 3.5,-8.1 1.4,-2.7 2.8,-5.3 4.2,-7.9 1.4,-2.6 2.9,-5.2 4.4,-7.7 1.6,-2.6 3.2,-5.1 4.9,-7.5 1.7,-2.5 3.4,-4.9 5.2,-7.3 1.8,-2.4 3.6,-4.7 5.6,-6.9 1.9,-2.3 3.9,-4.6 5.9,-6.7 2.1,-2.2 4.2,-4.3 6.4,-6.3 2.1,-2.1 4.3,-4.1 6.5,-6.1 2.3,-2 4.6,-3.9 6.9,-5.7 2.3,-1.9 4.8,-3.7 7.2,-5.4 2.4,-1.7 4.9,-3.4 7.4,-5 2.5,-1.6 5,-3.2 7.6,-4.7 2.6,-1.4 5.2,-2.8 7.9,-4.2 2.6,-1.3 5.3,-2.6 8.1,-3.9 2.7,-1.2 5.4,-2.3 8.2,-3.3 2.8,-1.1 5.6,-2.2 8.5,-3.1 2.8,-0.9 5.7,-1.8 8.6,-2.5 2.8,-0.8 5.8,-1.5 8.7,-2.2 2.8,-0.6 5.8,-1.2 8.7,-1.6 2.9,-0.5 5.9,-1 8.8,-1.4 2.9,-0.4 5.9,-0.8 8.8,-1.1 3,-0.1 6,-0.1 9,0 1.1,-0.1 2.3,-0.1 3.4,0 3,-0.1 6,-0.1 9,0 0.9,0 1.8,0 2.7,0.1 3,0.3 6.1,0.7 9.1,1.2 2.9,0.3 5.9,0.7 8.8,1.1 2.9,0.6 5.8,1.2 8.7,1.9 2.7,0.6 5.3,1.1 8,1.7 0.4,0 0.8,0 1.2,0 0.9,0.4 1.8,0.8 2.6,1.2 4,1.2 7.9,2.5 11.8,3.9 2.8,1.1 5.5,2.2 8.3,3.4 2.7,1.1 5.5,2.4 8.2,3.7 2.6,1.3 5.3,2.7 7.8,4.2 2.7,1.4 5.2,2.9 7.8,4.4 2.5,1.5 5.1,3.2 7.5,4.8 2.5,1.7 4.9,3.5 7.3,5.3 2.3,1.8 4.6,3.7 6.9,5.6 2.3,1.9 4.5,3.8 6.7,5.8 2.1,2.1 4.2,4.2 6.3,6.4 2.1,2.1 4.1,4.2 6.1,6.4 2,2.3 3.9,4.6 5.7,6.9 1.8,2.4 3.6,4.8 5.4,7.2 1.7,2.4 3.4,4.9 5,7.4 1.6,2.5 3.2,5 4.6,7.6 1.5,2.6 2.9,5.3 4.2,8 1.3,2.6 2.6,5.3 3.8,8 1.2,2.7 2.3,5.4 3.4,8.2 1.1,2.8 2.1,5.6 3.1,8.5 0.9,2.8 1.7,5.6 2.5,8.4 0.8,2.9 1.6,5.8 2.2,8.8 0.7,2.9 1.2,5.8 1.7,8.8 0.5,2.9 0.9,5.8 1.3,8.8 0.5,3 0.9,5.9 1.2,8.9 0.1,3 0.1,5.9 0,8.9 0,1.1 0,2.3 0,3.4 0.1,3.1 0.1,6.1 0,9.1 0,0.9 -0.1,1.8 -0.1,2.7 -0.3,3.1 -0.7,6.1 -1.2,9.1 -0.3,3 -0.7,5.9 -1.2,8.8 -0.5,3 -1.2,5.9 -1.9,8.8 -0.5,2.7 -1,5.3 -1.6,7.9 0,0.4 0,0.8 0,1.2 -0.4,0.9 -0.8,1.8 -1.3,2.6 -1.1,4 -2.4,7.9 -3.9,11.7 -1,2.8 -2.2,5.6 -3.3,8.3 -1.2,2.8 -2.3,5.5 -3.6,8.2 -1.3,2.6 -2.7,5.3 -4.2,7.8 -1.4,2.7 -2.9,5.3 -4.4,7.8 -1.5,2.5 -3.2,5 -4.9,7.4 -1.7,2.5 -3.4,4.9 -5.2,7.3 -1.8,2.3 -3.7,4.6 -5.6,6.9 -2,2.3 -4,4.6 -6,6.8 -2,2.2 -4.1,4.3 -6.3,6.3 -2.1,2.1 -4.3,4.1 -6.6,6.1 -2.2,1.9 -4.5,3.9 -6.9,5.7 -2.3,1.9 -4.7,3.7 -7.2,5.4 -2.4,1.7 -4.9,3.4 -7.5,5 -2.5,1.6 -5,3.1 -7.6,4.6 -2.6,1.5 -5.2,2.9 -7.9,4.2 -2.6,1.4 -5.3,2.7 -8.1,4 -2.7,1.1 -5.4,2.2 -8.2,3.3 -2.8,1.1 -5.5,2.1 -8.3,3.1 -2.9,0.9 -5.7,1.7 -8.6,2.5 -2.9,0.8 -5.8,1.6 -8.8,2.3 -2.8,0.6 -5.7,1.1 -8.6,1.6 -3,0.6 -6,1 -9,1.3 -2.9,0.5 -5.9,0.9 -8.8,1.2 -3,0.1 -6,0.1 -8.9,0 -1.2,0 -2.3,0 -3.4,0 z"
         style="fill:#ffffff;fill-opacity:1;fill-rule:nonzero;stroke:none"
         id="path32" /><path
         d="m 15775.6,15963.2 c -3,0.1 -6,0.1 -9,0 -0.9,0 -1.8,0 -2.7,-0.1 -3,-0.3 -6,-0.7 -9.1,-1.2 -2.9,-0.3 -5.9,-0.7 -8.8,-1.2 -2.9,-0.5 -5.9,-1.2 -8.8,-1.9 -2.6,-0.5 -5.3,-1 -7.9,-1.7 -0.4,0 -0.8,0 -1.2,0 -0.8,-0.3 -1.7,-0.7 -2.6,-1.1 -3.9,-1.2 -7.8,-2.5 -11.7,-4 -2.7,-1 -5.5,-2.1 -8.2,-3.3 -2.8,-1.2 -5.5,-2.4 -8.3,-3.7 -2.6,-1.3 -5.2,-2.7 -7.8,-4.2 -2.6,-1.4 -5.2,-2.8 -7.7,-4.4 -2.6,-1.6 -5,-3.2 -7.5,-4.9 -2.4,-1.7 -4.9,-3.4 -7.2,-5.2 -2.4,-1.9 -4.7,-3.7 -6.9,-5.6 -2.3,-1.9 -4.5,-3.9 -6.7,-6 -2.2,-2 -4.3,-4.1 -6.4,-6.3 -2,-2.1 -4,-4.3 -6,-6.6 -2,-2.2 -3.9,-4.5 -5.7,-6.9 -1.9,-2.3 -3.7,-4.7 -5.4,-7.1 -1.8,-2.4 -3.4,-4.9 -5,-7.4 -1.6,-2.5 -3.2,-5.1 -4.7,-7.7 -1.4,-2.6 -2.8,-5.2 -4.1,-8 -1.4,-2.6 -2.6,-5.3 -3.9,-7.9 -1.2,-2.8 -2.3,-5.6 -3.4,-8.4 -1.1,-2.7 -2.1,-5.5 -3,-8.3 -0.9,-2.9 -1.8,-5.7 -2.6,-8.6 -0.8,-2.9 -1.5,-5.7 -2.2,-8.6 -0.6,-2.9 -1.2,-5.9 -1.7,-8.8 -0.5,-3 -0.9,-5.9 -1.2,-8.9 -0.5,-2.9 -0.9,-5.9 -1.3,-8.9 0,-2.9 0,-5.9 0,-8.8 0,-1.2 0,-2.3 0,-3.5 0,-2.9 0,-5.9 0,-8.8 0.1,-1 0.1,-1.9 0.1,-2.9 0.4,-2.9 0.8,-5.9 1.2,-8.8 0.4,-3 0.7,-6 1.2,-9.1 0.6,-2.9 1.2,-5.8 1.9,-8.8 0.5,-2.6 1.1,-5.2 1.7,-7.9 0,-0.4 0,-0.8 0,-1.1 0.4,-0.9 0.8,-1.8 1.2,-2.7 1.2,-3.9 2.5,-7.8 3.9,-11.7 1.1,-2.8 2.2,-5.6 3.4,-8.3 1.1,-2.7 2.3,-5.4 3.5,-8.1 1.4,-2.7 2.8,-5.3 4.2,-7.9 1.4,-2.6 2.9,-5.2 4.4,-7.7 1.6,-2.6 3.2,-5.1 4.9,-7.5 1.7,-2.5 3.4,-4.9 5.2,-7.3 1.8,-2.4 3.6,-4.7 5.6,-6.9 1.9,-2.3 3.9,-4.6 5.9,-6.7 2.1,-2.2 4.2,-4.3 6.4,-6.3 2.1,-2.1 4.3,-4.1 6.5,-6.1 2.3,-2 4.6,-3.9 6.9,-5.7 2.3,-1.9 4.8,-3.7 7.2,-5.4 2.4,-1.7 4.9,-3.4 7.4,-5 2.5,-1.6 5,-3.2 7.6,-4.7 2.6,-1.4 5.2,-2.8 7.9,-4.2 2.6,-1.3 5.3,-2.6 8.1,-3.9 2.7,-1.2 5.4,-2.3 8.2,-3.3 2.8,-1.1 5.6,-2.2 8.5,-3.1 2.8,-0.9 5.7,-1.8 8.6,-2.5 2.8,-0.8 5.8,-1.5 8.7,-2.2 2.8,-0.6 5.8,-1.2 8.7,-1.6 2.9,-0.5 5.9,-1 8.8,-1.4 2.9,-0.4 5.9,-0.8 8.8,-1.1 3,-0.1 6,-0.1 9,0 1.1,-0.1 2.3,-0.1 3.4,0 3,-0.1 6,-0.1 9,0 0.9,0 1.8,0 2.7,0.1 3,0.3 6.1,0.7 9.1,1.2 2.9,0.3 5.9,0.7 8.8,1.1 2.9,0.6 5.8,1.2 8.7,1.9 2.7,0.6 5.3,1.1 8,1.7 0.4,0 0.8,0 1.2,0 0.9,0.4 1.8,0.8 2.6,1.2 4,1.2 7.9,2.5 11.8,3.9 2.8,1.1 5.5,2.2 8.3,3.4 2.7,1.1 5.5,2.4 8.2,3.7 2.6,1.3 5.3,2.7 7.8,4.2 2.7,1.4 5.2,2.9 7.8,4.4 2.5,1.5 5.1,3.2 7.5,4.8 2.5,1.7 4.9,3.5 7.3,5.3 2.3,1.8 4.6,3.7 6.9,5.6 2.3,1.9 4.5,3.8 6.7,5.8 2.1,2.1 4.2,4.2 6.3,6.4 2.1,2.1 4.1,4.2 6.1,6.4 2,2.3 3.9,4.6 5.7,6.9 1.8,2.4 3.6,4.8 5.4,7.2 1.7,2.4 3.4,4.9 5,7.4 1.6,2.5 3.2,5 4.6,7.6 1.5,2.6 2.9,5.3 4.2,8 1.3,2.6 2.6,5.3 3.8,8 1.2,2.7 2.3,5.4 3.4,8.2 1.1,2.8 2.1,5.6 3.1,8.5 0.9,2.8 1.7,5.6 2.5,8.4 0.8,2.9 1.6,5.8 2.2,8.8 0.7,2.9 1.2,5.8 1.7,8.8 0.5,2.9 0.9,5.8 1.3,8.8 0.5,3 0.9,5.9 1.2,8.9 0.1,3 0.1,5.9 0,8.9 0,1.1 0,2.3 0,3.4 0.1,3.1 0.1,6.1 0,9.1 0,0.9 -0.1,1.8 -0.1,2.7 -0.3,3.1 -0.7,6.1 -1.2,9.1 -0.3,3 -0.7,5.9 -1.2,8.8 -0.5,3 -1.2,5.9 -1.9,8.8 -0.5,2.7 -1,5.3 -1.6,7.9 0,0.4 0,0.8 0,1.2 -0.4,0.9 -0.8,1.8 -1.3,2.6 -1.1,4 -2.4,7.9 -3.9,11.7 -1,2.8 -2.2,5.6 -3.3,8.3 -1.2,2.8 -2.3,5.5 -3.6,8.2 -1.3,2.6 -2.7,5.3 -4.2,7.8 -1.4,2.7 -2.9,5.3 -4.4,7.8 -1.5,2.5 -3.2,5 -4.9,7.4 -1.7,2.5 -3.4,4.9 -5.2,7.3 -1.8,2.3 -3.7,4.6 -5.6,6.9 -2,2.3 -4,4.6 -6,6.8 -2,2.2 -4.1,4.3 -6.3,6.3 -2.1,2.1 -4.3,4.1 -6.6,6.1 -2.2,1.9 -4.5,3.9 -6.9,5.7 -2.3,1.9 -4.7,3.7 -7.2,5.4 -2.4,1.7 -4.9,3.4 -7.5,5 -2.5,1.6 -5,3.1 -7.6,4.6 -2.6,1.5 -5.2,2.9 -7.9,4.2 -2.6,1.4 -5.3,2.7 -8.1,4 -2.7,1.1 -5.4,2.2 -8.2,3.3 -2.8,1.1 -5.5,2.1 -8.3,3.1 -2.9,0.9 -5.7,1.7 -8.6,2.5 -2.9,0.8 -5.8,1.6 -8.8,2.3 -2.8,0.6 -5.7,1.1 -8.6,1.6 -3,0.6 -6,1 -9,1.3 -2.9,0.5 -5.9,0.9 -8.8,1.2 -3,0.1 -6,0.1 -8.9,0 -1.2,0 -2.3,0 -3.4,0 z"
         style="fill:#ffffff;fill-opacity:1;fill-rule:nonzero;stroke:none"
         id="path34" /><path
         d="m 18962.5,12174.8 c 0,-440 -1426.7,-796.6 -3186.6,-796.6 -1759.9,0 -3186.6,356.6 -3186.6,796.6 0,211.3 335.7,414 933.3,563.4 597.6,149.3 1408.1,233.3 2253.3,233.3 845.2,0 1655.7,-84 2253.3,-233.3 597.6,-149.4 933.3,-352.1 933.3,-563.4 z"
         style="fill:#cccccc;fill-opacity:1;fill-rule:nonzero;stroke:none"
         id="path36" /><path
         d="m 14864.6,14178.5 c -106.7,-809.9 -528.3,-1925.7 -861.5,-1881.9 -333.2,43.9 -451.7,1230.8 -345.1,2040.7 106.6,810 484.5,924.8 731.2,892.3 246.7,-32.5 582,-241.2 475.4,-1051.1 z"
         style="fill:#128cd6;fill-opacity:1;fill-rule:nonzero;stroke:none"
         id="path38" /><path
         d="m 14411.4,15398 c -160.2,21.1 -375.7,-10.5 -554.5,-172.9 -178.8,-162.4 -310.7,-435.9 -367.3,-865.6 -55.8,-423.7 -52.7,-931.8 7.9,-1353.9 30.3,-211.1 74,-399.8 140.2,-552.9 66.3,-153.2 163,-300.7 343.2,-324.4 180.3,-23.8 311.8,93.7 415.4,224.5 103.7,130.7 194.7,301.7 278.6,497.8 167.8,392.1 302.2,882.1 358,1305.7 56.6,429.7 0,728.1 -130.7,931.2 -130.7,203.1 -330.7,289.4 -490.8,310.5 z m -44.4,-336.7 c 86.6,-11.4 177.6,-45.7 249.6,-157.6 72,-111.9 129.7,-322.8 79.6,-703.1 -50.8,-386.2 -180.6,-859.1 -333.5,-1216.4 -76.5,-178.6 -160.1,-329 -232.5,-420.4 -54.4,-68.6 -93.9,-88.9 -104.5,-95.5 -8.6,9.1 -41.5,38.9 -76.3,119.2 -46.3,107.1 -88.1,274 -115.7,466.3 -55.3,384.8 -58.2,875.1 -7.4,1261.4 50.1,380.2 160.5,569 258.9,658.4 98.5,89.5 195.3,99.1 281.8,87.7 z"
         style="fill:#1a1a1a;fill-opacity:1;fill-rule:nonzero;stroke:none"
         id="path40" /><path
         d="m 17893.8,14337.3 c 106.6,-809.9 -12,-1996.8 -345.1,-2040.7 -333.2,-43.8 -754.9,1072 -861.5,1881.9 -106.7,809.9 228.6,1018.6 475.3,1051.1 246.7,32.5 624.6,-82.4 731.3,-892.3 z"
         style="fill:#128cd6;fill-opacity:1;fill-rule:nonzero;stroke:none"
         id="path42" /><path
         d="m 17140.4,15398 c -160.2,-21.1 -360.2,-107.4 -490.9,-310.5 -130.7,-203.1 -187.3,-501.5 -130.7,-931.2 55.8,-423.7 190.2,-913.7 358,-1305.7 83.9,-196.1 175,-367.1 278.6,-497.8 103.6,-130.8 235.2,-248.3 415.4,-224.5 180.3,23.7 276.9,171.2 343.2,324.4 66.2,153.1 109.9,341.8 140.2,552.9 60.6,422.1 63.7,930.2 7.9,1353.9 -56.6,429.6 -188.5,703.2 -367.3,865.6 -178.8,162.4 -394.3,194 -554.4,172.9 z m 44.3,-336.7 c 86.5,11.4 183.3,1.8 281.8,-87.7 98.5,-89.4 208.8,-278.2 258.9,-658.4 50.8,-386.3 47.9,-876.6 -7.4,-1261.4 -27.6,-192.3 -69.4,-359.2 -115.7,-466.3 -34.8,-80.3 -67.7,-110.1 -76.2,-119.2 -10.7,6.6 -50.2,26.9 -104.5,95.5 -72.5,91.4 -156,241.8 -232.5,420.4 -153,357.3 -282.7,830.2 -333.6,1216.4 -50.1,380.3 7.7,591.2 79.7,703.1 71.9,111.9 162.9,146.1 249.5,157.6 z"
         style="fill:#1a1a1a;fill-opacity:1;fill-rule:nonzero;stroke:none"
         id="path44" /><path
         d="m 11875.2,18074.8 c -497.3,-648.2 -1420.4,-1403.6 -1687,-1199 -266.68,204.6 224.1,1291.7 721.4,1939.8 497.3,648.1 882,558.6 1079.5,407.1 197.3,-151.4 383.4,-499.8 -113.9,-1147.9 z"
         style="fill:#128cd6;fill-opacity:1;fill-rule:nonzero;stroke:none"
         id="path46" /><path
         d="m 12092.4,19357.5 c -128.1,98.3 -330.6,178.7 -566.6,127.5 -236,-51.2 -487,-222.2 -750.9,-566 -260.1,-339 -511.5,-780.6 -670.1,-1176.5 -79.3,-198 -135.85,-383.2 -155.03,-548.9 -19.14,-165.8 -9.22,-341.9 135.03,-452.5 144.2,-110.7 316.9,-74.7 472,-13.3 155.1,61.4 319.5,164 490.1,291.8 341.4,255.6 702.8,612.7 963,951.8 263.8,343.8 364,630.5 352.3,871.8 -11.6,241.2 -141.6,415.9 -269.8,514.3 z m -206.7,-269.5 c 69.2,-53.1 130.9,-128.3 137.3,-261.2 6.4,-132.9 -49.1,-344.4 -282.6,-648.7 -237.1,-309 -585.9,-653.7 -897,-886.7 -155.6,-116.4 -303.1,-204.9 -411.6,-247.8 -81.4,-32.2 -125.7,-30 -138.2,-30.4 -2.9,12.1 -16.5,54.4 -6.4,141.3 13.4,115.9 60.6,281.3 132.9,461.8 144.5,360.8 387.1,786.9 624.3,1095.9 233.5,304.3 423.5,412.6 553.5,440.9 130,28.2 218.5,-11.9 287.8,-65.1 z"
         style="fill:#1a1a1a;fill-opacity:1;fill-rule:nonzero;stroke:none"
         id="path48" /><path
         d="m 20642.1,18815.6 c 497.3,-648.1 988.1,-1735.2 721.5,-1939.8 -266.6,-204.6 -1189.7,550.8 -1687,1198.9 -497.3,648.2 -311.3,996.6 -113.9,1148 197.4,151.5 582.1,241 1079.4,-407.1 z"
         style="fill:#128cd6;fill-opacity:1;fill-rule:nonzero;stroke:none"
         id="path50" /><path
         d="m 19459.3,19357.5 c -128.1,-98.4 -258.1,-273.1 -269.8,-514.3 -11.6,-241.3 88.6,-528 352.4,-871.8 260.1,-339.1 621.6,-696.2 962.9,-951.8 170.8,-127.8 335,-230.4 490.2,-291.8 155.1,-61.5 327.7,-97.4 472,13.3 144.3,110.6 154.2,286.7 135,452.5 -19.2,165.7 -75.7,350.9 -155,548.9 -158.6,395.9 -410,837.5 -670.2,1176.5 -263.7,343.8 -514.8,514.8 -750.8,566 -236,51.2 -438.5,-29.2 -566.7,-127.5 z m 206.8,-269.5 c 69.3,53.1 157.8,93.3 287.8,65.1 130.1,-28.3 320,-136.6 553.5,-440.9 237.2,-309 479.8,-735.2 624.3,-1096 72.2,-180.4 119.5,-345.8 132.9,-461.7 10.1,-86.9 -3.5,-129.2 -6.4,-141.3 -12.5,0.6 -56.8,-1.9 -138.2,30.4 -108.5,42.9 -256,131.3 -411.6,247.8 -311.1,233 -659.9,577.6 -897,886.7 -233.5,304.3 -289,515.8 -282.6,648.7 6.4,132.9 68.1,208.1 137.3,261.2 z"
         style="fill:#1a1a1a;fill-opacity:1;fill-rule:nonzero;stroke:none"
         id="path52" /><path
         d="m 15775.9,23066.1 c -2628.8,0 -4765.5,-2136.8 -4765.5,-4765.5 0,-2628.7 2136.7,-4765.5 4765.5,-4765.5 2628.6,0 4765.5,2136.8 4765.5,4765.5 0,2628.7 -2136.9,4765.5 -4765.5,4765.5 z m 0,-543.5 c 2334.9,0 4221.9,-1887.1 4221.9,-4222 0,-2335 -1887,-4222 -4221.9,-4222 -2335,0 -4222,1887 -4222,4222 0,2334.9 1887,4222 4222,4222 z"
         style="fill:#1a1a1a;fill-opacity:1;fill-rule:nonzero;stroke:none"
         id="path54" /><path
         d="m 20269.6,18300.6 c 0,-1191.8 -473.4,-2334.9 -1316.2,-3177.6 -842.7,-842.7 -1985.7,-1316.2 -3177.5,-1316.2 -1191.9,0 -2334.9,473.5 -3177.6,1316.2 -842.7,842.7 -1316.2,1985.8 -1316.2,3177.6 0,1191.8 473.5,2334.8 1316.2,3177.5 842.7,842.8 1985.7,1316.2 3177.6,1316.2 1191.8,0 2334.8,-473.4 3177.5,-1316.2 842.8,-842.7 1316.2,-1985.7 1316.2,-3177.5 z"
         style="fill:#0c559d;fill-opacity:1;fill-rule:nonzero;stroke:none"
         id="path56" /><path
         d="m 19698.6,18534.8 c 0,-1102.5 -438,-2159.8 -1217.6,-2939.4 -779.6,-779.6 -1836.9,-1217.5 -2939.4,-1217.5 -1102.5,0 -2159.8,437.9 -2939.5,1217.5 -779.5,779.6 -1217.5,1836.9 -1217.5,2939.4 0,1102.5 438,2159.9 1217.5,2939.5 779.7,779.6 1837,1217.5 2939.5,1217.5 1102.5,0 2159.8,-437.9 2939.4,-1217.5 779.6,-779.6 1217.6,-1837 1217.6,-2939.5 z"
         style="fill:#128cd6;fill-opacity:1;fill-rule:nonzero;stroke:none"
         id="path58" /><path
         d="m 14652.3,22651.6 c -393.5,-101.6 -771.4,-256.1 -1123.4,-459.3 v -1644.7 h -1644.7 c -203.2,-352 -357.8,-730 -459.4,-1123.5 h 2104.1 v -2246.8 h -2104.1 c 101.5,-393.5 256.1,-771.5 459.3,-1123.5 h 7783.5 c 203.2,352 357.7,730 459.3,1123.5 h -5474.5 v 2246.8 h 2246.8 v 1123.5 h -2246.8 v 2104 z m 2246.9,-2104 h 2768.3 c -243.6,421.8 -554.1,801.3 -919.5,1123.4 h -1848.8 z m 0,-1123.5 v -1123.5 h 3370.4 c 0,379 -48,756.5 -142.7,1123.5 z m -4095.8,-4493.8 c 821,-724 1877.9,-1123.5 2972.5,-1123.5 h 1.9 c 1093.9,0.5 2150.1,400 2970.4,1123.5 z"
         style="fill:#c3d2d5;fill-opacity:1;fill-rule:nonzero;stroke:none"
         id="path60" /><path
         d="m 15775.9,22862.3 c -2518.6,0 -4561.8,-2043.2 -4561.8,-4561.7 0,-2518.6 2043.2,-4561.7 4561.8,-4561.7 2518.5,0 4561.6,2043.1 4561.6,4561.7 0,2518.5 -2043.1,4561.7 -4561.6,4561.7 z m 0,-135.9 c 2445,0 4425.7,-1980.7 4425.7,-4425.8 0,-2445.1 -1980.7,-4425.8 -4425.7,-4425.8 -2445.2,0 -4425.9,1980.7 -4425.9,4425.8 0,2445.1 1980.7,4425.8 4425.9,4425.8 z"
         style="fill:#1a1a1a;fill-opacity:1;fill-rule:nonzero;stroke:none"
         id="path62" /><path
         d="m 14652.4,22595.6 c -393,-86.1 -771.4,-228.7 -1123.5,-423.5 v -1624.5 h -1624.5 c -194.8,-352 -337.5,-730.5 -423.6,-1123.5 h 2048.1 v -2246.8 h -1916.4 c 139.2,-402.7 339.4,-781.6 593.7,-1123.5 h 6670.7 c 254.4,341.9 454.6,720.8 593.7,1123.5 h -4818.2 v 2246.8 h 2246.8 v 1123.5 h -2246.8 z m 2246.8,-2048 h 2279.6 c -235,424.7 -542.6,804.9 -908.8,1123.5 h -1370.8 z m 0,-1123.5 v -1123.5 h 2792.7 c 4.5,78 6.7,156.1 6.7,234.2 0,299.1 -32.3,597.2 -96.3,889.3 z m -3428.3,-4493.8 c 630.1,-361.9 1344,-552.4 2070.7,-552.4 726.6,0 1440.6,190.5 2070.7,552.4 z"
         style="fill:#ffffff;fill-opacity:1;fill-rule:nonzero;stroke:none"
         id="path64" /><path
         d="m 15775.9,22413.6 c -1090.9,0 -2137.1,-433.3 -2908.4,-1204.7 -771.4,-771.3 -1204.7,-1817.5 -1204.7,-2908.3 1.3,-541.5 109.4,-1077.3 318.2,-1576.8 -104.1,377.7 -157,767.7 -157.1,1159.5 0,1158.8 460.3,2270.1 1279.7,3089.6 819.4,819.3 1930.7,1279.7 3089.6,1279.7 407.1,-1.2 812.2,-59.4 1203.2,-172.7 -512,219.9 -1063.3,333.4 -1620.5,333.7 z"
         style="fill:#ffffff;fill-opacity:1;fill-rule:nonzero;stroke:none"
         id="path66" /><path
         d="m 14203.1,15782.7 c -181.7,0 -328,146.2 -328,328 v 370.1 c 0,1049.8 851,1900.7 1900.8,1900.7 1049.7,0 1900.7,-850.9 1900.7,-1900.7 v -370.1 c 0,-181.8 -146.3,-328 -328,-328 z"
         style="fill:#ffffff;fill-opacity:1;fill-rule:nonzero;stroke:none"
         id="path68" /><path
         d="m 16147.2,15782.7 -0.7,0.8 c 0,0 322.6,619.7 0,1192.1 402.6,636 48.3,1359.4 48.3,1359.4 848.1,-190.9 1481.6,-948.5 1481.6,-1854.3 v -370.1 c 0,-181.7 -146.3,-328 -328,-328 z"
         style="fill:#b9dae9;fill-opacity:1;fill-rule:nonzero;stroke:none"
         id="path70" /><path
         d="m 17079.9,15782.7 v 0.8 c 0,0 369.9,425.3 0,876.8 425.8,395.7 29.2,1175.3 29.2,1175.3 350.4,-344.8 567.8,-824.4 567.8,-1354.9 v -370.1 c 0,-181.7 -146.3,-328 -328,-328 z"
         style="fill:#1a1a1a;fill-opacity:1;fill-rule:nonzero;stroke:none"
         id="path72" /><path
         d="m 14472.1,15782.7 v 0.8 c 0,0 -369.8,425.3 0,876.8 -425.8,395.7 -29.1,1175.3 -29.1,1175.3 -350.5,-344.8 -567.8,-824.4 -567.8,-1354.8 v -370.2 c 0,-181.7 146.2,-328 327.9,-328 z"
         style="fill:#1a1a1a;fill-opacity:1;fill-rule:nonzero;stroke:none"
         id="path74" /><path
         d="m 15775.9,18449.4 c -1086.5,0 -1968.7,-882.1 -1968.7,-1968.6 v -370.2 c 0,-218.1 177.8,-395.9 395.9,-395.9 h 3145.5 c 218.2,0 396,177.8 396,395.9 v 370.2 c 0,1086.5 -882.3,1968.6 -1968.7,1968.6 z m 0,-135.8 c 1013,0 1832.8,-819.8 1832.8,-1832.8 v -370.2 c 0,-145.2 -114.8,-260 -260.1,-260 h -3145.5 c -145.2,0 -260,114.8 -260,260 v 370.2 c 0,1013 819.8,1832.8 1832.8,1832.8 z"
         style="fill:#1a1a1a;fill-opacity:1;fill-rule:nonzero;stroke:none"
         id="path76" /><path
         d="m 14331.9,20167.5 c 387.7,0 699.9,-312.1 699.9,-699.9 v -350.8 c 0,-387.7 -312.2,-699.9 -699.9,-699.9 -387.8,0 -700,312.2 -700,699.9 v 350.8 c 0,387.8 312.2,699.9 700,699.9 z"
         style="fill:#1a1a1a;fill-opacity:1;fill-rule:nonzero;stroke:none"
         id="path78" /><path
         d="m 14739.3,19665.7 c 0,-59.9 -23.8,-117.4 -66.2,-159.8 -42.4,-42.3 -99.9,-66.1 -159.8,-66.1 -124.7,0 -225.9,101.1 -225.9,225.9 0,124.8 101.2,225.9 225.9,225.9 59.9,0 117.4,-23.8 159.8,-66.2 42.4,-42.3 66.2,-99.8 66.2,-159.7 z"
         style="fill:#ffffff;fill-opacity:1;fill-rule:nonzero;stroke:none"
         id="path80" /><path
         d="m 17219.9,20167.5 c -387.8,0 -699.9,-312.1 -699.9,-699.9 v -578.2 h 1399.8 v 578.2 c 0,387.8 -312.2,699.9 -699.9,699.9 z"
         style="fill:#1a1a1a;fill-opacity:1;fill-rule:nonzero;stroke:none"
         id="path82" /><path
         d="m 17627.3,19665.7 c 0,-124.8 -101.2,-225.9 -226,-225.9 -124.7,0 -225.9,101.1 -225.9,225.9 0,124.8 101.2,225.9 225.9,225.9 124.8,0 226,-101.1 226,-225.9 z"
         style="fill:#ffffff;fill-opacity:1;fill-rule:nonzero;stroke:none"
         id="path84" /><path
         d="m 15596.3,25741.7 c -466.8,0 -851,-384.2 -851,-851 v -2650 h 543.5 v 2650 c 0,175 132.4,307.5 307.5,307.5 h 359.2 c 175,0 307.5,-132.5 307.5,-307.5 v -2650 h 543.5 v 2650 c 0,466.8 -384.3,851 -851,851 z"
         style="fill:#1a1a1a;fill-opacity:1;fill-rule:nonzero;stroke:none"
         id="path86" /><path
         d="m 15775.9,25605.3 c -1325.9,0 -2406.5,-1080.7 -2406.5,-2406.5 v -613.5 c 0,-336.8 279.6,-616.4 616.3,-616.4 H 17566 c 336.7,0 616.4,279.6 616.4,616.4 v 613.5 c 0,1325.8 -1080.7,2406.5 -2406.5,2406.5 z m 0,-543.5 c 1032.1,0 1863,-830.9 1863,-1863 v -613.5 c 0,-45.1 -27.8,-72.8 -72.9,-72.8 h -3580.3 c -45.1,0 -72.8,27.7 -72.8,72.8 v 613.5 c 0,1032.1 830.9,1863 1863,1863 z"
         style="fill:#1a1a1a;fill-opacity:1;fill-rule:nonzero;stroke:none"
         id="path88" /><path
         d="m 13705,23316.4 c -395.4,0 -722.3,-326.9 -722.3,-722.4 v -42.8 c 0,-858.8 699.8,-1558.7 1558.7,-1558.7 h 2469 c 858.8,0 1558.7,699.9 1558.7,1558.7 v 42.8 c 0,395.5 -326.9,722.4 -722.4,722.4 z m 0,-543.5 h 4141.7 c 103.8,0 178.9,-75.1 178.9,-178.9 v -42.8 c 0,-567.1 -448.1,-1015.2 -1015.2,-1015.2 h -2469 c -567.1,0 -1015.2,448.1 -1015.2,1015.2 v 42.8 c 0,103.8 75.1,178.9 178.8,178.9 z"
         style="fill:#1a1a1a;fill-opacity:1;fill-rule:nonzero;stroke:none"
         id="path90" /><path
         d="m 13705,23044.6 c -249.6,0 -450.6,-201 -450.6,-450.6 v -42.8 c 0,-713 574,-1287 1287,-1287 h 2469 c 712.9,0 1286.9,574 1286.9,1287 v 42.8 c 0,249.6 -200.9,450.6 -450.6,450.6 z"
         style="fill:#ffb31c;fill-opacity:1;fill-rule:nonzero;stroke:none"
         id="path92" /><path
         d="m 13705,23112.5 c -286.1,0 -518.5,-232.4 -518.5,-518.5 v -42.8 c 0,-749.4 605.5,-1354.9 1354.9,-1354.9 h 2469 c 749.4,0 1354.8,605.5 1354.8,1354.9 v 42.8 c 0,286.1 -232.4,518.5 -518.5,518.5 z m 0,-135.8 h 4141.7 c 213.2,0 382.7,-169.5 382.7,-382.7 v -42.8 c 0,-676.5 -542.5,-1219 -1219,-1219 h -2469 c -676.5,0 -1219,542.5 -1219,1219 v 42.8 c 0,213.2 169.4,382.7 382.6,382.7 z"
         style="fill:#1a1a1a;fill-opacity:1;fill-rule:nonzero;stroke:none"
         id="path94" /><path
         d="m 14489.7,21962.2 h 2571 c 470.3,0 849,378.7 849,849.1 l 0.9,387.5 c 0,1178.9 -955.8,2134.7 -2134.8,2134.7 -1179,0 -2132.6,-955.8 -2134.7,-2134.7 l -0.7,-387.5 c 0,-470.4 378.9,-849.1 849.3,-849.1 z"
         style="fill:#ffb31c;fill-opacity:1;fill-rule:nonzero;stroke:none"
         id="path96" /><path
         d="m 14607.5,24985.2 c -581.2,-381.3 -965.1,-1038.9 -966.4,-1786.4 l -0.7,-387.5 c 0,-303.2 157.6,-568.2 395.5,-718.3 l 0.6,1259.5 c 1,630.7 217.4,1204.4 571,1632.7 z"
         style="fill:#ffffff;fill-opacity:1;fill-rule:nonzero;stroke:none"
         id="path98" /><path
         d="m 16422.9,25233.6 c 70.3,-95.9 111.8,-214.4 111.8,-342.9 v -2928.5 h 525.9 c 470.4,0 849.1,378.7 849.1,849.1 l 0.9,387.5 c 0,953.4 -625,1760.6 -1487.7,2034.8 z"
         style="fill:#ff8c03;fill-opacity:1;fill-rule:nonzero;stroke:none"
         id="path100" /><path
         d="m 15775.8,25401.5 c -1215.7,0 -2200.5,-987.1 -2202.7,-2202.6 l -0.6,-387.6 c 0,-506.9 410.4,-917 917.2,-917 h 2570.9 c 506.8,0 916.9,410.1 917,916.9 v 0.1 l 0.9,387.5 c 0,1215.6 -986.9,2202.7 -2202.7,2202.7 z m 0,-135.9 c 1142.3,0 2066.9,-924.6 2066.9,-2066.8 l -0.9,-387.4 v -0.2 c 0,-433.9 -347.3,-781.1 -781.2,-781.1 h -2570.9 c -433.9,0 -781.3,347.2 -781.3,781 v 0.2 l 0.6,387.4 c 2.1,1142.4 924.6,2066.9 2066.8,2066.9 z"
         style="fill:#1a1a1a;fill-opacity:1;fill-rule:nonzero;stroke:none"
         id="path102" /><path
         d="m 15596.3,25470 c -320.9,0 -579.3,-258.4 -579.3,-579.3 v -2650 h 1517.7 v 2650 c 0,320.9 -258.3,579.3 -579.2,579.3 z"
         style="fill:#ffb31c;fill-opacity:1;fill-rule:nonzero;stroke:none"
         id="path104" /><path
         d="m 15258,22178.6 h 135.902 v 2813.36 H 15258 Z"
         style="fill:#ffffff;fill-opacity:1;fill-rule:nonzero;stroke:none"
         id="path106" /><path
         d="m 15596.3,25537.9 c -357.4,0 -647.2,-289.8 -647.2,-647.2 v -2928.5 h 135.9 v 2928.5 c 0,284.5 226.8,511.3 511.3,511.3 h 359.2 c 284.4,0 511.3,-226.8 511.3,-511.3 v -2928.5 h 135.9 v 2928.5 c 0,357.4 -289.9,647.2 -647.2,647.2 z"
         style="fill:#1a1a1a;fill-opacity:1;fill-rule:nonzero;stroke:none"
         id="path108" /><path
         d="m 8109.57,8770.43 c 0,103.05 29.96,184.53 89.88,244.45 59.93,59.92 141.41,89.89 244.46,89.89 h 1186.36 c 16.76,-26.37 31.14,-61.1 43.13,-104.26 14.37,-43.13 21.56,-88.67 21.56,-136.6 0,-91.06 -20.35,-155.79 -61.09,-194.14 -38.36,-38.32 -89.89,-57.5 -154.61,-57.5 h -758.52 v -334.34 h 808.87 c 16.76,-26.37 31.17,-61.13 43.12,-104.26 14.38,-40.74 21.61,-85.08 21.61,-133.01 0,-91.09 -19.18,-155.78 -57.54,-194.14 -38.36,-38.36 -89.89,-57.5 -154.57,-57.5 h -661.49 v -377.5 h 923.91 c 16.76,-26.36 31.13,-61.09 43.12,-104.25 14.38,-43.13 21.57,-88.68 21.57,-136.61 0,-91.05 -20.36,-156.99 -61.1,-197.73 -38.36,-38.32 -89.88,-57.5 -154.57,-57.5 H 8443.91 c -103.05,0 -184.53,29.96 -244.46,89.88 -59.92,59.89 -89.88,141.37 -89.88,244.46 z"
         style="fill:#1a1a1a;fill-opacity:1;fill-rule:nonzero;stroke:none"
         id="path110" /><path
         d="m 10626.1,6929.8 c -24,-7.18 -62.3,-14.37 -115.1,-21.56 -50.3,-7.19 -103,-10.78 -158.1,-10.78 -52.8,0 -100.7,3.59 -143.8,10.78 -40.8,7.19 -75.5,21.56 -104.3,43.13 -28.8,21.56 -51.5,50.35 -68.3,86.29 -14.4,38.36 -21.6,87.46 -21.6,147.38 v 1078.51 c 0,55.12 9.6,101.84 28.8,140.2 21.5,40.74 51.5,76.68 89.9,107.85 38.3,31.13 85,58.71 140.2,82.7 57.5,26.36 118.6,49.1 183.3,68.28 64.7,19.18 131.8,33.55 201.3,43.16 69.5,11.96 139,17.97 208.5,17.97 115,0 206.2,-22.77 273.3,-68.32 67.1,-43.12 100.6,-115.04 100.6,-215.7 0,-33.56 -4.8,-67.11 -14.4,-100.67 -9.6,-31.13 -21.6,-59.88 -35.9,-86.25 -50.3,0 -101.9,-2.42 -154.6,-7.18 -52.7,-4.81 -104.3,-12 -154.6,-21.61 -50.3,-9.57 -98.2,-20.35 -143.8,-32.34 -43.1,-9.57 -80.3,-21.56 -111.4,-35.94 z"
         style="fill:#1a1a1a;fill-opacity:1;fill-rule:nonzero;stroke:none"
         id="path112" /><path
         d="m 12067.7,6929.8 c -24,-7.18 -62.3,-14.37 -115.1,-21.56 -50.3,-7.19 -103,-10.78 -158.2,-10.78 -52.7,0 -100.6,3.59 -143.8,10.78 -40.7,7.19 -75.4,21.56 -104.2,43.13 -28.8,21.56 -51.6,50.35 -68.3,86.29 -14.4,38.36 -21.6,87.46 -21.6,147.38 v 1078.51 c 0,55.12 9.6,101.84 28.8,140.2 21.5,40.74 51.5,76.68 89.9,107.85 38.3,31.13 85,58.71 140.2,82.7 57.5,26.36 118.6,49.1 183.3,68.28 64.7,19.18 131.8,33.55 201.3,43.16 69.5,11.96 139,17.97 208.5,17.97 115.1,0 206.1,-22.77 273.2,-68.32 67.1,-43.12 100.7,-115.04 100.7,-215.7 0,-33.56 -4.8,-67.11 -14.4,-100.67 -9.6,-31.13 -21.6,-59.88 -35.9,-86.25 -50.3,0 -101.9,-2.42 -154.6,-7.18 -52.7,-4.81 -104.3,-12 -154.6,-21.61 -50.3,-9.57 -98.3,-20.35 -143.8,-32.34 -43.1,-9.57 -80.3,-21.56 -111.4,-35.94 z"
         style="fill:#1a1a1a;fill-opacity:1;fill-rule:nonzero;stroke:none"
         id="path114" /><path
         d="m 14674,7799.8 c 0,-148.59 -22.7,-281.6 -68.3,-399.06 -45.5,-115.04 -110.2,-212.11 -194.1,-291.17 -81.5,-79.1 -179.8,-139.02 -294.8,-179.77 -115,-40.74 -243.3,-61.13 -384.7,-61.13 -141.4,0 -269.6,21.6 -384.6,64.73 -115.1,43.12 -214.5,104.26 -298.4,183.36 -81.5,81.48 -145,179.72 -190.5,294.76 -45.6,115.04 -68.4,244.46 -68.4,388.28 0,141.41 22.8,269.61 68.4,384.65 45.5,115.04 109,212.11 190.5,291.21 83.9,81.49 183.3,143.79 298.4,186.92 115,43.16 243.2,64.72 384.6,64.72 141.4,0 269.7,-22.77 384.7,-68.32 115,-43.12 213.3,-105.43 294.8,-186.91 83.9,-79.1 148.6,-176.17 194.1,-291.21 45.6,-115.04 68.3,-242.07 68.3,-381.06 z m -1258.2,0 c 0,-146.21 27.5,-258.86 82.6,-337.93 57.6,-76.71 136.7,-115.03 237.3,-115.03 100.7,0 177.4,39.53 230.1,118.63 55.1,79.06 82.7,190.51 82.7,334.33 0,143.79 -27.6,254.03 -82.7,330.71 -55.1,79.1 -133,118.67 -233.7,118.67 -100.6,0 -178.5,-39.57 -233.7,-118.67 -55.1,-76.68 -82.6,-186.92 -82.6,-330.71 z"
         style="fill:#1a1a1a;fill-opacity:1;fill-rule:nonzero;stroke:none"
         id="path116" /><path
         d="m 15583.6,6929.8 c -24,-7.18 -62.3,-14.37 -115.1,-21.56 -50.3,-7.19 -103,-10.78 -158.2,-10.78 -52.7,0 -100.6,3.59 -143.8,10.78 -40.7,7.19 -75.5,21.56 -104.2,43.13 -28.8,21.56 -51.6,50.35 -68.3,86.29 -14.4,38.36 -21.6,87.46 -21.6,147.38 v 1078.51 c 0,55.12 9.6,101.84 28.8,140.2 21.5,40.74 51.5,76.68 89.8,107.85 38.4,31.13 85.1,58.71 140.3,82.7 57.5,26.36 118.6,49.1 183.3,68.28 64.7,19.18 131.8,33.55 201.3,43.16 69.5,11.96 139,17.97 208.5,17.97 115,0 206.1,-22.77 273.2,-68.32 67.1,-43.12 100.7,-115.04 100.7,-215.7 0,-33.56 -4.8,-67.11 -14.4,-100.67 -9.6,-31.13 -21.6,-59.88 -35.9,-86.25 -50.4,0 -101.9,-2.42 -154.6,-7.18 -52.7,-4.81 -104.3,-12 -154.6,-21.61 -50.3,-9.57 -98.2,-20.35 -143.8,-32.34 -43.2,-9.57 -80.3,-21.56 -111.4,-35.94 z"
         style="fill:#1a1a1a;fill-opacity:1;fill-rule:nonzero;stroke:none"
         id="path118" /><path
         d="m 18010.2,9086.8 c 45.5,14.37 97,26.36 154.5,35.93 60,9.61 113.9,14.38 161.8,14.38 55.1,0 107.9,-5.98 158.2,-17.97 52.7,-9.57 99.5,-27.54 140.2,-53.91 40.8,-23.98 73.1,-57.53 97,-100.66 24,-43.12 36,-97.07 36,-161.76 v -956.29 h 320 c 14.4,-26.36 28.7,-61.13 43.1,-104.25 14.4,-43.13 21.6,-88.68 21.6,-136.61 0,-91.09 -20.4,-155.78 -61.1,-194.14 -40.8,-38.36 -92.3,-57.5 -154.6,-57.5 h -169 V 6929.8 c -26.3,-4.8 -65.9,-10.78 -118.6,-17.96 -52.7,-9.61 -103.1,-14.38 -151,-14.38 -52.7,0 -99.5,2.38 -140.2,7.19 -40.8,4.76 -75.5,15.58 -104.3,32.34 -26.3,19.18 -46.7,45.55 -61.1,79.1 -14.3,33.56 -21.6,79.07 -21.6,136.61 v 201.32 h -902.3 c -55.1,28.75 -103.1,70.71 -143.8,125.82 -38.3,57.5 -57.5,127.03 -57.5,208.52 0,45.51 6,95.86 18,150.98 12,55.11 32.3,103.04 61.1,143.78 z m 183.3,-564.42 h -10.8 l -478.1,-675.86 h 488.9 z"
         style="fill:#1a1a1a;fill-opacity:1;fill-rule:nonzero;stroke:none"
         id="path120" /><path
         d="m 20634.5,8019.1 c 0,210.9 -31.2,373.87 -93.5,488.91 -59.9,115.04 -146.2,172.54 -258.8,172.54 -112.7,0 -198.9,-57.5 -258.8,-172.54 -57.6,-115.04 -86.3,-278.01 -86.3,-488.91 0,-210.94 28.7,-375.08 86.3,-492.54 59.9,-115.04 146.1,-172.54 258.8,-172.54 112.6,0 198.9,57.5 258.8,172.54 62.3,117.46 93.5,281.6 93.5,492.54 z m 614.8,0 c 0,-184.57 -24,-348.75 -72,-492.54 -47.9,-143.79 -115,-264.84 -201.3,-363.08 -83.8,-95.86 -185.7,-168.95 -305.6,-219.3 -117.4,-50.31 -245.6,-75.51 -384.6,-75.51 -141.4,0 -272,25.2 -391.9,75.51 -117.4,50.35 -219.2,123.44 -305.5,219.3 -84,98.24 -149.8,219.29 -197.8,363.08 -45.5,143.79 -68.3,307.97 -68.3,492.54 0,184.53 22.8,347.5 68.3,488.91 48,143.79 113.8,263.63 197.8,359.49 86.3,98.28 188.1,172.58 305.5,222.89 119.9,50.31 250.5,75.51 391.9,75.51 139,0 267.2,-25.2 384.6,-75.51 119.9,-50.31 221.8,-124.61 305.6,-222.89 86.3,-95.86 153.4,-215.7 201.3,-359.49 48,-141.41 72,-304.38 72,-488.91 z"
         style="fill:#1a1a1a;fill-opacity:1;fill-rule:nonzero;stroke:none"
         id="path122" /><path
         d="m 22421.2,9086.8 c 45.5,14.37 97.1,26.36 154.6,35.93 59.9,9.61 113.8,14.38 161.8,14.38 55.1,0 107.8,-5.98 158.1,-17.97 52.8,-9.57 99.5,-27.54 140.2,-53.91 40.8,-23.98 73.2,-57.53 97.1,-100.66 24,-43.12 35.9,-97.07 35.9,-161.76 v -956.29 h 320 c 14.4,-26.36 28.8,-61.13 43.2,-104.25 14.3,-43.13 21.5,-88.68 21.5,-136.61 0,-91.09 -20.4,-155.78 -61.1,-194.14 -40.7,-38.36 -92.3,-57.5 -154.6,-57.5 h -169 V 6929.8 c -26.3,-4.8 -65.8,-10.78 -118.6,-17.96 -52.7,-9.61 -103,-14.38 -151,-14.38 -52.7,0 -99.4,2.38 -140.2,7.19 -40.7,4.76 -75.5,15.58 -104.2,32.34 -26.4,19.18 -46.8,45.55 -61.1,79.1 -14.4,33.56 -21.6,79.07 -21.6,136.61 v 201.32 h -902.4 c -55.1,28.75 -103,70.71 -143.7,125.82 -38.4,57.5 -57.6,127.03 -57.6,208.52 0,45.51 6,95.86 18,150.98 12,55.11 32.4,103.04 61.1,143.78 z m 183.3,-564.42 h -10.7 l -478.2,-675.86 h 488.9 z"
         style="fill:#1a1a1a;fill-opacity:1;fill-rule:nonzero;stroke:none"
         id="path124" /><path
         d="m 22932,22110.2 -117.7,-71.6 c -319.4,-194.2 -568.9,-484.7 -712.5,-829.8 l -0.2,-0.3 -0.2,-0.3 c -205.1,-496.6 -169.1,-1056.3 87.1,-1522.5 l -1635.9,-3949.5 c -231.8,-559.6 36.7,-1207.7 596.2,-1439.5 559.6,-231.8 1207.8,36.7 1439.6,596.2 l 1635.7,3949 c 511,148.6 932.4,519.2 1138.3,1015.6 l 0.1,0.4 0.2,0.3 c 142.3,345.6 171.2,727.6 82.6,1090.7 l -32.7,133.8 -1050.1,435 -318.7,-769.4 -380,157.4 318.7,769.4 z m 56,-611.4 284.3,-117.9 -145.9,-352.4 c -93.9,-226.7 17.5,-495.7 244.2,-589.6 l 550.5,-228 c 226.6,-93.9 495.7,17.6 589.5,244.2 l 146,352.5 284.2,-117.7 c 27.8,-211 1,-426.2 -80.5,-624.3 -156.3,-376.6 -489.4,-649.9 -889.2,-729.6 l -142.4,-28.3 -1742.4,-4206.8 c -120.2,-290 -439.4,-422.3 -729.5,-302.1 -290.1,120.2 -422.3,439.3 -302.1,729.4 l 1742.7,4207.3 -80.6,120.7 c -226.3,339 -268.6,767.5 -113.1,1144.2 82.4,197.7 215.6,368.9 384.3,498.4 z"
         style="fill:#1a1a1a;fill-opacity:1;fill-rule:nonzero;stroke:none"
         id="path126" /><path
         d="m 23654.5,20345.9 c 424.8,-176 625.2,-659.7 449.2,-1084.5 l -1766.4,-4264.5 c -176,-424.8 -659.6,-625.2 -1084.5,-449.2 -424.8,176 -625.2,659.7 -449.2,1084.5 l 1766.4,4264.4 c 176,424.9 659.7,625.2 1084.5,449.3 z"
         style="fill:#cccccc;fill-opacity:1;fill-rule:nonzero;stroke:none"
         id="path128" /><path
         d="m 21760.2,15202.3 c -46.1,-111.3 -173.8,-164.2 -285.2,-118.1 -111.3,46.2 -164.2,173.9 -118.1,285.2 22.2,53.5 64.7,96 118.1,118.1 53.5,22.2 113.6,22.2 167.1,0 53.5,-22.1 96,-64.6 118.1,-118.1 22.2,-53.5 22.2,-113.6 0,-167.1 z"
         style="fill:#1a1a1a;fill-opacity:1;fill-rule:nonzero;stroke:none"
         id="path130" /><path
         d="m 22955.4,21806.4 c -270.2,-164.3 -481.3,-410.1 -602.8,-702 -315.5,-761.8 46.2,-1635.2 808,-1950.8 365.9,-151.5 776.9,-151.5 1142.8,0 365.8,151.6 656.5,442.2 808,808.1 120.4,292.4 144.9,615.4 69.9,922.7 l -671.8,278.2 -250,-603.5 c -38,-91.9 -142.6,-135.2 -234.5,-97.2 l -550.4,228.1 c -91.9,38 -135.2,142.6 -97.2,234.4 l 250,603.6 z"
         style="fill:#cccccc;fill-opacity:1;fill-rule:nonzero;stroke:none"
         id="path132" /><path
         d="m 24509.5,21162.6 -250,-603.5 c -38,-91.9 -142.6,-135.2 -234.4,-97.2 l -550.6,228.1 c -91.8,38.1 -135.1,142.6 -97.1,234.4 l 33.7,81.3 -1157.2,-668 c 29.6,-226.1 110.7,-442.4 236.9,-632.3 l -329.4,-795.1 3054.7,1763.6 c -6.5,70.9 -18.2,141.3 -34.8,210.5 z"
         style="fill:#ffffff;fill-opacity:1;fill-rule:nonzero;stroke:none"
         id="path134" /><path
         d="m 22949.6,21882.3 -29.5,-17.9 c -282.4,-171.7 -503.1,-428.7 -630.2,-733.9 l -0.1,-0.1 v -0.2 c -193.9,-469.3 -145.3,-1002.1 125.4,-1429.9 l -1674.4,-4042.2 c -189.9,-458.5 27.4,-983.3 486,-1173.2 458.5,-189.9 983.3,27.4 1173.2,485.9 l 1674.1,4041.7 c 494.1,111.1 905.4,453.8 1100,923.1 l 0.1,0.1 v 0.1 c 125.9,305.7 151.5,643.5 73.1,964.7 l -8.2,33.4 -766.3,317.5 -276,-666.3 c -24.1,-58.2 -87.6,-84.5 -145.7,-60.4 l -550.5,228 c -58.2,24.1 -84.5,87.6 -60.4,145.8 l 276,666.3 z m 13.2,-152.5 575.8,-238.5 -223.9,-540.8 c -52,-125.6 8.3,-271.3 133.9,-323.3 l 550.5,-228 c 125.5,-52 271.2,8.3 323.2,133.9 l 224,540.8 575.7,-238.5 c 62.1,-283.3 37.3,-579 -73.3,-847.7 l -0.1,-0.1 c -182.2,-439.2 -571.3,-758.5 -1037.6,-851.4 l -35.6,-7.1 -1700.8,-4106.2 c -162.1,-391.1 -604.6,-574.4 -995.8,-412.3 -391.1,161.9 -574.4,604.5 -412.4,995.6 l 1701,4106.7 -20.1,30.2 c -263.9,395.3 -313.4,895.9 -131.9,1335.2 v 0.1 c 111.7,268.3 303.2,494.9 547.4,651.4 z"
         style="fill:#1a1a1a;fill-opacity:1;fill-rule:nonzero;stroke:none"
         id="path136" /><path
         d="m 23247.9,19364.3 c -196.5,81.4 -401.4,-3.4 -482.8,-200 l -1075.4,-2596.1 c -81.3,-196.5 3.5,-401.4 200,-482.8 196.6,-81.4 401.5,3.5 482.9,200 l 1075.3,2596.1 c 81.4,196.5 -3.4,401.4 -200,482.8 z"
         style="fill:#939393;fill-opacity:1;fill-rule:nonzero;stroke:none"
         id="path138" /><path
         d="m 23273.9,19427.1 c -227.3,94.2 -477.4,-9.4 -571.6,-236.8 L 21627,16594.2 c -94.2,-227.4 9.4,-477.4 236.8,-571.6 227.3,-94.2 477.4,9.4 571.6,236.8 l 1075.3,2596.1 c 94.1,227.3 -9.4,477.4 -236.8,571.6 z m -52,-125.6 c 165.7,-68.6 231.9,-228.3 163.2,-394 l -1075.3,-2596.1 c -68.6,-165.7 -228.4,-231.9 -394.1,-163.2 -165.6,68.6 -231.8,228.3 -163.2,394 l 1075.4,2596.1 c 68.6,165.7 228.4,231.9 394,163.2 z"
         style="fill:#1a1a1a;fill-opacity:1;fill-rule:nonzero;stroke:none"
         id="path140" /></g></g></svg>
