<?xml version="1.0" encoding="UTF-8" standalone="no"?>
<svg
   xmlns:dc="http://purl.org/dc/elements/1.1/"
   xmlns:cc="http://creativecommons.org/ns#"
   xmlns:rdf="http://www.w3.org/1999/02/22-rdf-syntax-ns#"
   xmlns:svg="http://www.w3.org/2000/svg"
   xmlns="http://www.w3.org/2000/svg"
   xmlns:sodipodi="http://sodipodi.sourceforge.net/DTD/sodipodi-0.dtd"
   xmlns:inkscape="http://www.inkscape.org/namespaces/inkscape"
   version="1.1"
   id="svg2"
   xml:space="preserve"
   width="4666.6665"
   height="3733.3333"
   viewBox="0 0 4666.6665 3733.3333"
   sodipodi:docname="brain100_43.eps"><metadata
     id="metadata8"><rdf:RDF><cc:Work
         rdf:about=""><dc:format>image/svg+xml</dc:format><dc:type
           rdf:resource="http://purl.org/dc/dcmitype/StillImage" /></cc:Work></rdf:RDF></metadata><defs
     id="defs6" /><sodipodi:namedview
     pagecolor="#ffffff"
     bordercolor="#666666"
     borderopacity="1"
     objecttolerance="10"
     gridtolerance="10"
     guidetolerance="10"
     inkscape:pageopacity="0"
     inkscape:pageshadow="2"
     inkscape:window-width="640"
     inkscape:window-height="480"
     id="namedview4" /><g
     id="g10"
     inkscape:groupmode="layer"
     inkscape:label="ink_ext_XXXXXX"
     transform="matrix(1.3333333,0,0,-1.3333333,0,3733.3333)"><g
       id="g12"
       transform="scale(0.1)"><path
         d="M 0,4.60938 H 34994.3 V 28000.009 H 0 Z"
         style="fill:#ffffff;fill-opacity:1;fill-rule:nonzero;stroke:none"
         id="path14" /><path
         d="m 17496.9,14161.2 c -2.6,0.1 -5.3,0.1 -8,0 -0.8,0 -1.6,0 -2.4,-0.1 -2.7,-0.3 -5.4,-0.6 -8,-1 -2.6,-0.3 -5.3,-0.7 -7.9,-1.1 -2.6,-0.5 -5.2,-1.1 -7.8,-1.7 -2.3,-0.4 -4.6,-0.9 -7,-1.5 -0.3,0 -0.7,0 -1,0 -0.8,-0.3 -1.6,-0.7 -2.3,-1 -3.6,-1.1 -7,-2.2 -10.4,-3.5 -2.5,-0.9 -4.9,-1.9 -7.3,-3 -2.5,-1 -4.9,-2.1 -7.3,-3.3 -2.4,-1.1 -4.7,-2.4 -7,-3.7 -2.3,-1.2 -4.6,-2.5 -6.9,-3.9 -2.2,-1.4 -4.4,-2.8 -6.5,-4.3 -2.3,-1.5 -4.4,-3.1 -6.5,-4.7 -2.1,-1.6 -4.2,-3.2 -6.2,-5 -2,-1.6 -3.9,-3.4 -5.9,-5.2 -1.9,-1.9 -3.7,-3.8 -5.6,-5.7 -1.8,-1.8 -3.6,-3.8 -5.4,-5.8 -1.7,-2 -3.4,-4 -5,-6.1 -1.7,-2.1 -3.3,-4.2 -4.8,-6.3 -1.5,-2.2 -3,-4.4 -4.5,-6.6 -1.4,-2.2 -2.8,-4.5 -4.1,-6.8 -1.3,-2.3 -2.5,-4.7 -3.7,-7.1 -1.2,-2.3 -2.3,-4.7 -3.4,-7 -1.1,-2.5 -2.1,-5 -3.1,-7.5 -0.9,-2.4 -1.7,-4.9 -2.6,-7.4 -0.8,-2.5 -1.6,-5 -2.3,-7.6 -0.7,-2.5 -1.3,-5 -1.9,-7.6 -0.6,-2.6 -1.1,-5.2 -1.5,-7.8 -0.4,-2.6 -0.8,-5.3 -1.2,-7.9 -0.4,-2.6 -0.7,-5.3 -1,-7.9 -0.1,-2.6 -0.1,-5.2 0,-7.8 0,-1 0,-2.1 0,-3.1 -0.1,-2.6 -0.1,-5.2 0,-7.8 0,-0.9 0,-1.7 0.1,-2.6 0.3,-2.6 0.6,-5.2 1,-7.8 0.3,-2.7 0.7,-5.3 1.1,-7.9 0.5,-2.7 1,-5.3 1.7,-7.9 0.4,-2.3 0.9,-4.7 1.5,-7.1 0,-0.3 0,-0.7 0,-1 0.3,-0.8 0.6,-1.6 1,-2.3 1.1,-3.5 2.2,-7 3.5,-10.4 0.9,-2.5 1.9,-5 3,-7.4 1,-2.5 2,-4.8 3.1,-7.2 1.2,-2.4 2.4,-4.7 3.8,-7 1.2,-2.3 2.5,-4.6 3.9,-6.9 1.3,-2.2 2.8,-4.5 4.3,-6.6 1.5,-2.2 3,-4.4 4.5,-6.5 1.6,-2.1 3.3,-4.1 5,-6.2 1.7,-1.9 3.5,-3.9 5.3,-5.8 1.9,-2 3.7,-3.8 5.6,-5.7 1.9,-1.8 3.9,-3.6 5.9,-5.4 2,-1.7 4,-3.4 6.1,-5 2.1,-1.7 4.2,-3.3 6.3,-4.8 2.2,-1.5 4.3,-3 6.6,-4.5 2.2,-1.4 4.5,-2.7 6.8,-4.1 2.2,-1.2 4.6,-2.5 6.9,-3.7 2.4,-1.2 4.8,-2.4 7.2,-3.5 2.4,-1 4.9,-2 7.3,-2.9 2.5,-1 5,-1.9 7.6,-2.8 2.5,-0.8 5,-1.5 7.6,-2.2 2.5,-0.7 5.1,-1.4 7.7,-2 2.6,-0.6 5.1,-1.1 7.7,-1.5 2.6,-0.5 5.2,-0.8 7.9,-1.2 2.5,-0.4 5.2,-0.7 7.8,-1 2.6,-0.1 5.3,-0.1 7.9,0 1,-0.1 2.1,-0.1 3.1,-0.1 2.6,-0.1 5.3,-0.1 7.9,0 0.8,0 1.7,0 2.4,0.1 2.7,0.3 5.4,0.6 8.1,1 2.6,0.3 5.2,0.7 7.8,1.1 2.6,0.5 5.2,1 7.7,1.7 2.4,0.4 4.8,0.9 7.1,1.5 0.4,0 0.7,0 1.1,0 0.8,0.3 1.6,0.6 2.3,1 3.6,1.1 7,2.2 10.5,3.5 2.5,0.9 4.9,1.9 7.3,3 2.5,1 4.9,2.1 7.3,3.2 2.4,1.2 4.7,2.4 7,3.7 2.3,1.3 4.6,2.6 6.9,3.9 2.2,1.5 4.4,2.9 6.6,4.4 2.2,1.5 4.4,3.1 6.5,4.7 2.1,1.6 4.1,3.2 6.1,4.9 2,1.7 4,3.4 5.9,5.2 2,1.8 3.8,3.7 5.7,5.6 1.8,1.9 3.6,3.8 5.4,5.7 1.7,2 3.4,4.1 5,6.2 1.7,2.1 3.2,4.2 4.8,6.3 1.5,2.2 3,4.3 4.4,6.6 1.5,2.2 2.8,4.5 4.2,6.7 1.2,2.4 2.5,4.8 3.7,7.2 1.1,2.3 2.3,4.6 3.3,7 1.1,2.4 2.1,4.9 3,7.3 1,2.5 1.9,5 2.8,7.6 0.8,2.4 1.5,4.9 2.2,7.5 0.7,2.5 1.4,5.1 2,7.7 0.5,2.6 1,5.2 1.5,7.8 0.4,2.6 0.8,5.2 1.1,7.9 0.5,2.6 0.8,5.2 1.1,7.9 0.1,2.6 0.1,5.2 0,7.8 0,1 0,2.1 0,3.1 0.1,2.6 0.1,5.3 0,7.9 0,0.8 0,1.6 -0.1,2.4 -0.3,2.7 -0.6,5.4 -1,8.1 -0.4,2.6 -0.7,5.2 -1.1,7.8 -0.5,2.7 -1.1,5.2 -1.7,7.9 -0.4,2.3 -0.9,4.7 -1.5,7 0,0.4 0,0.7 0,1.1 -0.3,0.8 -0.7,1.5 -1.1,2.3 -1,3.5 -2.1,7 -3.4,10.4 -1,2.5 -1.9,5 -3,7.4 -1,2.4 -2.1,4.8 -3.2,7.2 -1.1,2.4 -2.4,4.7 -3.7,7 -1.2,2.3 -2.5,4.6 -3.9,6.9 -1.4,2.2 -2.8,4.4 -4.3,6.5 -1.5,2.2 -3.1,4.3 -4.7,6.5 -1.6,2.1 -3.2,4.1 -5,6.1 -1.7,2.1 -3.4,4.1 -5.2,6 -1.9,2 -3.7,3.8 -5.7,5.6 -1.8,1.9 -3.8,3.7 -5.8,5.5 -2,1.6 -4,3.3 -6.1,4.9 -2.1,1.7 -4.2,3.2 -6.3,4.8 -2.2,1.5 -4.4,3 -6.7,4.4 -2.2,1.4 -4.5,2.8 -6.8,4.1 -2.3,1.3 -4.6,2.6 -7,3.8 -2.3,1.2 -4.7,2.3 -7.2,3.4 -2.4,1.1 -4.8,2.1 -7.3,3 -2.4,1 -4.9,1.9 -7.4,2.8 -2.5,0.8 -5.1,1.5 -7.6,2.2 -2.5,0.7 -5.1,1.4 -7.7,2 -2.6,0.5 -5.1,1 -7.7,1.5 -2.7,0.4 -5.3,0.8 -8,1.1 -2.6,0.4 -5.2,0.8 -7.8,1.1 -2.7,0 -5.3,0 -7.9,0 -1,0 -2,0.1 -3,0.1 z"
         style="fill:#ffffff;fill-opacity:1;fill-rule:nonzero;stroke:none"
         id="path16" /><path
         d="m 17496.9,14161.2 c -2.6,0.1 -5.3,0.1 -8,0 -0.8,0 -1.6,0 -2.4,-0.1 -2.7,-0.3 -5.4,-0.6 -8,-1 -2.6,-0.3 -5.3,-0.7 -7.9,-1.1 -2.6,-0.5 -5.2,-1.1 -7.8,-1.7 -2.3,-0.4 -4.6,-0.9 -7,-1.5 -0.3,0 -0.7,0 -1,0 -0.8,-0.3 -1.6,-0.7 -2.3,-1 -3.6,-1.1 -7,-2.2 -10.4,-3.5 -2.5,-0.9 -4.9,-1.9 -7.3,-3 -2.5,-1 -4.9,-2.1 -7.3,-3.3 -2.4,-1.1 -4.7,-2.4 -7,-3.7 -2.3,-1.2 -4.6,-2.5 -6.9,-3.9 -2.2,-1.4 -4.4,-2.8 -6.5,-4.3 -2.3,-1.5 -4.4,-3.1 -6.5,-4.7 -2.1,-1.6 -4.2,-3.2 -6.2,-5 -2,-1.6 -3.9,-3.4 -5.9,-5.2 -1.9,-1.9 -3.7,-3.8 -5.6,-5.7 -1.8,-1.8 -3.6,-3.8 -5.4,-5.8 -1.7,-2 -3.4,-4 -5,-6.1 -1.7,-2.1 -3.3,-4.2 -4.8,-6.3 -1.5,-2.2 -3,-4.4 -4.5,-6.6 -1.4,-2.2 -2.8,-4.5 -4.1,-6.8 -1.3,-2.3 -2.5,-4.7 -3.7,-7.1 -1.2,-2.3 -2.3,-4.7 -3.4,-7 -1.1,-2.5 -2.1,-5 -3.1,-7.5 -0.9,-2.4 -1.7,-4.9 -2.6,-7.4 -0.8,-2.5 -1.6,-5 -2.3,-7.6 -0.7,-2.5 -1.3,-5 -1.9,-7.6 -0.6,-2.6 -1.1,-5.2 -1.5,-7.8 -0.4,-2.6 -0.8,-5.3 -1.2,-7.9 -0.4,-2.6 -0.7,-5.3 -1,-7.9 -0.1,-2.6 -0.1,-5.2 0,-7.8 0,-1 0,-2.1 0,-3.1 -0.1,-2.6 -0.1,-5.2 0,-7.8 0,-0.9 0,-1.7 0.1,-2.6 0.3,-2.6 0.6,-5.2 1,-7.8 0.3,-2.7 0.7,-5.4 1.1,-8.1 0.5,-2.6 1,-5.2 1.7,-7.8 0.4,-2.3 0.9,-4.6 1.5,-7 0,-0.3 0,-0.7 0,-1 0.3,-0.8 0.6,-1.6 1,-2.3 1.1,-3.5 2.2,-7 3.5,-10.4 0.9,-2.5 1.9,-5 3,-7.4 1,-2.5 2,-4.8 3.1,-7.2 1.2,-2.4 2.4,-4.7 3.8,-7 1.2,-2.3 2.5,-4.6 3.9,-6.9 1.3,-2.2 2.8,-4.5 4.3,-6.6 1.5,-2.2 3,-4.4 4.5,-6.5 1.6,-2.1 3.3,-4.1 5,-6.2 1.7,-1.9 3.5,-3.9 5.3,-5.8 1.9,-2 3.7,-3.8 5.6,-5.7 1.9,-1.8 3.9,-3.6 5.9,-5.4 2,-1.7 4,-3.4 6.1,-5 2.1,-1.7 4.2,-3.3 6.3,-4.8 2.2,-1.5 4.3,-3 6.6,-4.5 2.2,-1.4 4.5,-2.7 6.8,-4.1 2.2,-1.2 4.6,-2.5 6.9,-3.7 2.4,-1.2 4.8,-2.4 7.2,-3.5 2.4,-1 4.9,-2 7.3,-2.9 2.5,-1 5,-1.9 7.6,-2.8 2.5,-0.8 5,-1.5 7.6,-2.2 2.5,-0.7 5.1,-1.3 7.7,-1.9 2.6,-0.6 5.1,-1 7.7,-1.5 2.6,-0.4 5.2,-0.8 7.9,-1.2 2.5,-0.4 5.2,-0.7 7.8,-1 2.6,-0.1 5.3,-0.1 7.9,0 1,0 2.1,0 3.1,0 2.6,-0.1 5.3,-0.1 7.9,0 0.8,0 1.7,0 2.4,0.1 2.7,0.2 5.4,0.6 8.1,1 2.6,0.3 5.2,0.7 7.8,1.1 2.6,0.5 5.2,1 7.7,1.7 2.4,0.4 4.8,0.9 7.1,1.4 0.4,0 0.7,0 1.1,0 0.8,0.4 1.6,0.7 2.3,1.1 3.6,1.1 7,2.2 10.5,3.5 2.5,0.9 4.9,1.9 7.3,3 2.5,1 4.9,2.1 7.3,3.3 2.4,1.1 4.7,2.3 7,3.7 2.3,1.2 4.6,2.5 6.9,3.9 2.2,1.4 4.4,2.8 6.6,4.3 2.2,1.5 4.4,3.1 6.5,4.7 2.1,1.6 4.1,3.2 6.1,4.9 2,1.7 4,3.5 5.9,5.2 2,1.9 3.8,3.7 5.7,5.6 1.8,1.9 3.6,3.8 5.4,5.8 1.7,1.9 3.4,4 5,6.1 1.7,2.1 3.2,4.2 4.8,6.4 1.5,2.1 3,4.3 4.4,6.5 1.5,2.2 2.8,4.5 4.2,6.8 1.2,2.3 2.5,4.7 3.7,7 1.1,2.4 2.3,4.8 3.3,7.2 1.1,2.3 2.1,4.8 3,7.3 1,2.4 1.9,4.9 2.8,7.5 0.8,2.5 1.5,5 2.2,7.5 0.7,2.5 1.4,5.1 2,7.7 0.5,2.6 1,5.2 1.5,7.8 0.4,2.6 0.8,5.2 1.1,7.9 0.5,2.6 0.8,5.2 1.1,7.9 0.1,2.6 0.1,5.2 0,7.8 0,1.1 0,2.1 0,3.1 0.1,2.7 0.1,5.3 0,8 0,0.9 0,1.7 -0.1,2.5 -0.3,2.7 -0.6,5.3 -1,8 -0.4,2.6 -0.7,5.2 -1.1,7.9 -0.5,2.6 -1.1,5.2 -1.7,7.8 -0.4,2.3 -0.9,4.7 -1.5,7 0,0.3 0,0.7 0,1 -0.3,0.8 -0.7,1.6 -1.1,2.3 -1,3.5 -2.1,7 -3.4,10.4 -1,2.5 -1.9,5 -3,7.4 -1,2.4 -2.1,4.8 -3.2,7.2 -1.1,2.4 -2.4,4.7 -3.7,7 -1.2,2.3 -2.5,4.6 -3.9,6.9 -1.4,2.2 -2.8,4.4 -4.3,6.5 -1.5,2.2 -3.1,4.4 -4.7,6.5 -1.6,2.1 -3.2,4.1 -5,6.1 -1.7,2 -3.4,4.1 -5.2,6 -1.9,2 -3.7,3.8 -5.7,5.7 -1.8,1.8 -3.8,3.6 -5.8,5.3 -2,1.8 -4,3.5 -6.1,5.1 -2.1,1.7 -4.2,3.3 -6.3,4.8 -2.2,1.5 -4.4,3 -6.7,4.5 -2.2,1.4 -4.5,2.8 -6.8,4.1 -2.3,1.2 -4.6,2.5 -7,3.7 -2.3,1.2 -4.7,2.3 -7.2,3.4 -2.4,1.1 -4.8,2.1 -7.3,3 -2.4,1 -4.9,1.9 -7.4,2.8 -2.5,0.8 -5.1,1.5 -7.6,2.2 -2.5,0.7 -5.1,1.4 -7.7,2 -2.6,0.6 -5.1,1.1 -7.7,1.5 -2.7,0.4 -5.3,0.8 -8,1.2 -2.6,0.4 -5.2,0.7 -7.8,1 -2.7,0.1 -5.3,0.1 -7.9,0 -1.1,0 -2,0 -3,0 z"
         style="fill:#ffffff;fill-opacity:1;fill-rule:nonzero;stroke:none"
         id="path18" /><path
         d="m 17496.9,14161.2 c -2.6,0.1 -5.3,0.1 -8,0 -0.8,0 -1.6,0 -2.4,-0.1 -2.7,-0.3 -5.4,-0.6 -8,-1 -2.6,-0.3 -5.3,-0.7 -7.9,-1.1 -2.6,-0.5 -5.2,-1.1 -7.8,-1.7 -2.3,-0.4 -4.6,-0.9 -7,-1.5 -0.3,0 -0.7,0 -1,0 -0.8,-0.3 -1.6,-0.7 -2.3,-1 -3.6,-1.1 -7,-2.2 -10.4,-3.5 -2.5,-0.9 -4.9,-1.9 -7.3,-3 -2.5,-1 -4.9,-2.1 -7.3,-3.3 -2.4,-1.1 -4.7,-2.4 -7,-3.7 -2.3,-1.2 -4.6,-2.5 -6.9,-3.9 -2.2,-1.4 -4.4,-2.8 -6.5,-4.3 -2.3,-1.5 -4.4,-3.1 -6.5,-4.7 -2.1,-1.6 -4.2,-3.2 -6.2,-5 -2,-1.6 -3.9,-3.4 -5.9,-5.2 -1.9,-1.9 -3.7,-3.8 -5.6,-5.7 -1.8,-1.8 -3.6,-3.8 -5.4,-5.8 -1.7,-2 -3.4,-4 -5,-6.1 -1.7,-2.1 -3.3,-4.2 -4.8,-6.3 -1.5,-2.2 -3,-4.4 -4.5,-6.6 -1.4,-2.2 -2.8,-4.5 -4.1,-6.8 -1.3,-2.3 -2.5,-4.7 -3.7,-7.1 -1.2,-2.3 -2.3,-4.7 -3.4,-7 -1.1,-2.5 -2.1,-5 -3.1,-7.5 -0.9,-2.4 -1.7,-4.9 -2.6,-7.4 -0.8,-2.5 -1.6,-5 -2.3,-7.6 -0.7,-2.5 -1.3,-5 -1.9,-7.6 -0.6,-2.6 -1.1,-5.2 -1.5,-7.8 -0.4,-2.6 -0.8,-5.3 -1.2,-7.9 -0.4,-2.6 -0.7,-5.3 -1,-7.9 -0.1,-2.6 -0.1,-5.2 0,-7.8 0,-1 0,-2.1 0,-3.1 -0.1,-2.6 -0.1,-5.2 0,-7.8 0,-0.9 0,-1.7 0.1,-2.6 0.3,-2.6 0.6,-5.2 1,-7.8 0.3,-2.7 0.7,-5.4 1.1,-8.1 0.5,-2.6 1,-5.2 1.7,-7.8 0.4,-2.3 0.9,-4.6 1.5,-7 0,-0.3 0,-0.7 0,-1 0.3,-0.8 0.6,-1.6 1,-2.3 1.1,-3.5 2.2,-7 3.5,-10.4 0.9,-2.5 1.9,-5 3,-7.4 1,-2.5 2,-4.8 3.1,-7.2 1.2,-2.4 2.4,-4.7 3.8,-7 1.2,-2.3 2.5,-4.6 3.9,-6.9 1.3,-2.2 2.8,-4.5 4.3,-6.6 1.5,-2.2 3,-4.4 4.5,-6.5 1.6,-2.1 3.3,-4.1 5,-6.2 1.7,-1.9 3.5,-3.9 5.3,-5.8 1.9,-2 3.7,-3.8 5.6,-5.7 1.9,-1.8 3.9,-3.6 5.9,-5.4 2,-1.7 4,-3.4 6.1,-5 2.1,-1.7 4.2,-3.3 6.3,-4.8 2.2,-1.5 4.3,-3 6.6,-4.5 2.2,-1.4 4.5,-2.7 6.8,-4.1 2.2,-1.2 4.6,-2.5 6.9,-3.7 2.4,-1.2 4.8,-2.4 7.2,-3.5 2.4,-1 4.9,-2 7.3,-2.9 2.5,-1 5,-1.9 7.6,-2.8 2.5,-0.8 5,-1.5 7.6,-2.2 2.5,-0.7 5.1,-1.3 7.7,-1.9 2.6,-0.6 5.1,-1 7.7,-1.5 2.6,-0.4 5.2,-0.8 7.9,-1.2 2.5,-0.4 5.2,-0.7 7.8,-1 2.6,-0.1 5.3,-0.1 7.9,0 1,0 2.1,0 3.1,0 2.6,-0.1 5.3,-0.1 7.9,0 0.8,0 1.7,0 2.4,0.1 2.7,0.2 5.4,0.6 8.1,1 2.6,0.3 5.2,0.7 7.8,1.1 2.6,0.5 5.2,1 7.7,1.7 2.4,0.4 4.8,0.9 7.1,1.4 0.4,0 0.7,0 1.1,0 0.8,0.4 1.6,0.7 2.3,1.1 3.6,1.1 7,2.2 10.5,3.5 2.5,0.9 4.9,1.9 7.3,3 2.5,1 4.9,2.1 7.3,3.3 2.4,1.1 4.7,2.3 7,3.7 2.3,1.2 4.6,2.5 6.9,3.9 2.2,1.4 4.4,2.8 6.6,4.3 2.2,1.5 4.4,3.1 6.5,4.7 2.1,1.6 4.1,3.2 6.1,4.9 2,1.7 4,3.5 5.9,5.2 2,1.9 3.8,3.7 5.7,5.6 1.8,1.9 3.6,3.8 5.4,5.8 1.7,1.9 3.4,4 5,6.1 1.7,2.1 3.2,4.2 4.8,6.4 1.5,2.1 3,4.3 4.4,6.5 1.5,2.2 2.8,4.5 4.2,6.8 1.2,2.3 2.5,4.7 3.7,7 1.1,2.4 2.3,4.8 3.3,7.2 1.1,2.3 2.1,4.8 3,7.3 1,2.4 1.9,4.9 2.8,7.5 0.8,2.5 1.5,5 2.2,7.5 0.7,2.5 1.4,5.1 2,7.7 0.5,2.6 1,5.2 1.5,7.8 0.4,2.6 0.8,5.2 1.1,7.9 0.5,2.6 0.8,5.2 1.1,7.9 0.1,2.6 0.1,5.2 0,7.8 0,1.1 0,2.1 0,3.1 0.1,2.7 0.1,5.3 0,8 0,0.9 0,1.7 -0.1,2.5 -0.3,2.7 -0.6,5.3 -1,8 -0.4,2.6 -0.7,5.2 -1.1,7.9 -0.5,2.6 -1.1,5.2 -1.7,7.8 -0.4,2.3 -0.9,4.7 -1.5,7 0,0.3 0,0.7 0,1 -0.3,0.8 -0.7,1.6 -1.1,2.3 -1,3.5 -2.1,7 -3.4,10.4 -1,2.5 -1.9,5 -3,7.4 -1,2.4 -2.1,4.8 -3.2,7.2 -1.1,2.4 -2.4,4.7 -3.7,7 -1.2,2.3 -2.5,4.6 -3.9,6.9 -1.4,2.2 -2.8,4.4 -4.3,6.5 -1.5,2.2 -3.1,4.4 -4.7,6.5 -1.6,2.1 -3.2,4.1 -5,6.1 -1.7,2 -3.4,4.1 -5.2,6 -1.9,2 -3.7,3.8 -5.7,5.7 -1.8,1.8 -3.8,3.6 -5.8,5.3 -2,1.8 -4,3.5 -6.1,5.1 -2.1,1.7 -4.2,3.3 -6.3,4.8 -2.2,1.5 -4.4,3 -6.7,4.5 -2.2,1.4 -4.5,2.8 -6.8,4.1 -2.3,1.2 -4.6,2.5 -7,3.7 -2.3,1.2 -4.7,2.3 -7.2,3.4 -2.4,1.1 -4.8,2.1 -7.3,3 -2.4,1 -4.9,1.9 -7.4,2.8 -2.5,0.8 -5.1,1.5 -7.6,2.2 -2.5,0.7 -5.1,1.4 -7.7,2 -2.6,0.6 -5.1,1.1 -7.7,1.5 -2.7,0.4 -5.3,0.8 -8,1.2 -2.6,0.4 -5.2,0.7 -7.8,1 -2.7,0.1 -5.3,0.1 -7.9,0 -1.1,0 -2,0 -3,0 z"
         style="fill:#ffffff;fill-opacity:1;fill-rule:nonzero;stroke:none"
         id="path20" /><path
         d="m 17496.9,14161.2 c -2.6,0.1 -5.3,0.1 -8,0 -0.8,0 -1.6,0 -2.4,-0.1 -2.7,-0.3 -5.4,-0.6 -8,-1 -2.6,-0.3 -5.3,-0.7 -7.9,-1.1 -2.6,-0.5 -5.2,-1.1 -7.8,-1.7 -2.3,-0.4 -4.6,-0.9 -7,-1.5 -0.3,0 -0.7,0 -1,0 -0.8,-0.3 -1.6,-0.7 -2.3,-1 -3.6,-1.1 -7,-2.2 -10.4,-3.5 -2.5,-0.9 -4.9,-1.9 -7.3,-3 -2.5,-1 -4.9,-2.1 -7.3,-3.3 -2.4,-1.1 -4.7,-2.4 -7,-3.7 -2.3,-1.2 -4.6,-2.5 -6.9,-3.9 -2.2,-1.4 -4.4,-2.8 -6.5,-4.3 -2.3,-1.5 -4.4,-3.1 -6.5,-4.7 -2.1,-1.6 -4.2,-3.2 -6.2,-5 -2,-1.6 -3.9,-3.4 -5.9,-5.2 -1.9,-1.9 -3.7,-3.8 -5.6,-5.7 -1.8,-1.8 -3.6,-3.8 -5.4,-5.8 -1.7,-2 -3.4,-4 -5,-6.1 -1.7,-2.1 -3.3,-4.2 -4.8,-6.3 -1.5,-2.2 -3,-4.4 -4.5,-6.6 -1.4,-2.2 -2.8,-4.5 -4.1,-6.8 -1.3,-2.3 -2.5,-4.7 -3.7,-7.1 -1.2,-2.3 -2.3,-4.7 -3.4,-7 -1.1,-2.5 -2.1,-5 -3.1,-7.5 -0.9,-2.4 -1.7,-4.9 -2.6,-7.4 -0.8,-2.5 -1.6,-5 -2.3,-7.6 -0.7,-2.5 -1.3,-5 -1.9,-7.6 -0.6,-2.6 -1.1,-5.2 -1.5,-7.8 -0.4,-2.6 -0.8,-5.3 -1.2,-7.9 -0.4,-2.6 -0.7,-5.3 -1,-7.9 -0.1,-2.6 -0.1,-5.2 0,-7.8 0,-1 0,-2.1 0,-3.1 -0.1,-2.6 -0.1,-5.2 0,-7.8 0,-0.9 0,-1.7 0.1,-2.6 0.3,-2.6 0.6,-5.2 1,-7.8 0.3,-2.7 0.7,-5.4 1.1,-8.1 0.5,-2.6 1,-5.2 1.7,-7.8 0.4,-2.3 0.9,-4.6 1.5,-7 0,-0.3 0,-0.7 0,-1 0.3,-0.8 0.6,-1.6 1,-2.3 1.1,-3.5 2.2,-7 3.5,-10.4 0.9,-2.5 1.9,-5 3,-7.4 1,-2.5 2,-4.8 3.1,-7.2 1.2,-2.4 2.4,-4.7 3.8,-7 1.2,-2.3 2.5,-4.6 3.9,-6.9 1.3,-2.2 2.8,-4.5 4.3,-6.6 1.5,-2.2 3,-4.4 4.5,-6.5 1.6,-2.1 3.3,-4.1 5,-6.2 1.7,-1.9 3.5,-3.9 5.3,-5.8 1.9,-2 3.7,-3.8 5.6,-5.7 1.9,-1.8 3.9,-3.6 5.9,-5.4 2,-1.7 4,-3.4 6.1,-5 2.1,-1.7 4.2,-3.3 6.3,-4.8 2.2,-1.5 4.3,-3 6.6,-4.5 2.2,-1.4 4.5,-2.7 6.8,-4.1 2.2,-1.2 4.6,-2.5 6.9,-3.7 2.4,-1.2 4.8,-2.4 7.2,-3.5 2.4,-1 4.9,-2 7.3,-2.9 2.5,-1 5,-1.9 7.6,-2.8 2.5,-0.8 5,-1.5 7.6,-2.2 2.5,-0.7 5.1,-1.3 7.7,-1.9 2.6,-0.6 5.1,-1 7.7,-1.5 2.6,-0.4 5.2,-0.8 7.9,-1.2 2.5,-0.4 5.2,-0.7 7.8,-1 2.6,-0.1 5.3,-0.1 7.9,0 1,0 2.1,0 3.1,0 2.6,-0.1 5.3,-0.1 7.9,0 0.8,0 1.7,0 2.4,0.1 2.7,0.2 5.4,0.6 8.1,1 2.6,0.3 5.2,0.7 7.8,1.1 2.6,0.5 5.2,1 7.7,1.7 2.4,0.4 4.8,0.9 7.1,1.4 0.4,0 0.7,0 1.1,0 0.8,0.4 1.6,0.7 2.3,1.1 3.6,1.1 7,2.2 10.5,3.5 2.5,0.9 4.9,1.9 7.3,3 2.5,1 4.9,2.1 7.3,3.3 2.4,1.1 4.7,2.3 7,3.7 2.3,1.2 4.6,2.5 6.9,3.9 2.2,1.4 4.4,2.8 6.6,4.3 2.2,1.5 4.4,3.1 6.5,4.7 2.1,1.6 4.1,3.2 6.1,4.9 2,1.7 4,3.5 5.9,5.2 2,1.9 3.8,3.7 5.7,5.6 1.8,1.9 3.6,3.8 5.4,5.8 1.7,1.9 3.4,4 5,6.1 1.7,2.1 3.2,4.2 4.8,6.4 1.5,2.1 3,4.3 4.4,6.5 1.5,2.2 2.8,4.5 4.2,6.8 1.2,2.3 2.5,4.7 3.7,7 1.1,2.4 2.3,4.8 3.3,7.2 1.1,2.3 2.1,4.8 3,7.3 1,2.4 1.9,4.9 2.8,7.5 0.8,2.5 1.5,5 2.2,7.5 0.7,2.5 1.4,5.1 2,7.7 0.5,2.6 1,5.2 1.5,7.8 0.4,2.6 0.8,5.2 1.1,7.9 0.5,2.6 0.8,5.2 1.1,7.9 0.1,2.6 0.1,5.2 0,7.8 0,1.1 0,2.1 0,3.1 0.1,2.7 0.1,5.3 0,8 0,0.9 0,1.7 -0.1,2.5 -0.3,2.7 -0.6,5.3 -1,8 -0.4,2.6 -0.7,5.2 -1.1,7.9 -0.5,2.6 -1.1,5.2 -1.7,7.8 -0.4,2.3 -0.9,4.7 -1.5,7 0,0.3 0,0.7 0,1 -0.3,0.8 -0.7,1.6 -1.1,2.3 -1,3.5 -2.1,7 -3.4,10.4 -1,2.5 -1.9,5 -3,7.4 -1,2.4 -2.1,4.8 -3.2,7.2 -1.1,2.4 -2.4,4.7 -3.7,7 -1.2,2.3 -2.5,4.6 -3.9,6.9 -1.4,2.2 -2.8,4.4 -4.3,6.5 -1.5,2.2 -3.1,4.4 -4.7,6.5 -1.6,2.1 -3.2,4.1 -5,6.1 -1.7,2 -3.4,4.1 -5.2,6 -1.9,2 -3.7,3.8 -5.7,5.7 -1.8,1.8 -3.8,3.6 -5.8,5.3 -2,1.8 -4,3.5 -6.1,5.1 -2.1,1.7 -4.2,3.3 -6.3,4.8 -2.2,1.5 -4.4,3 -6.7,4.5 -2.2,1.4 -4.5,2.8 -6.8,4.1 -2.3,1.2 -4.6,2.5 -7,3.7 -2.3,1.2 -4.7,2.3 -7.2,3.4 -2.4,1.1 -4.8,2.1 -7.3,3 -2.4,1 -4.9,1.9 -7.4,2.8 -2.5,0.8 -5.1,1.5 -7.6,2.2 -2.5,0.7 -5.1,1.4 -7.7,2 -2.6,0.6 -5.1,1.1 -7.7,1.5 -2.7,0.4 -5.3,0.8 -8,1.2 -2.6,0.4 -5.2,0.7 -7.8,1 -2.7,0.1 -5.3,0.1 -7.9,0 -1.1,0 -2,0 -3,0 z"
         style="fill:#ffffff;fill-opacity:1;fill-rule:nonzero;stroke:none"
         id="path22" /><path
         d="m 17496.9,14161.2 c -2.6,0.1 -5.3,0.1 -8,0 -0.8,0 -1.6,0 -2.4,-0.1 -2.7,-0.3 -5.4,-0.6 -8,-1 -2.6,-0.3 -5.3,-0.7 -7.9,-1.1 -2.6,-0.5 -5.2,-1.1 -7.8,-1.7 -2.3,-0.4 -4.6,-0.9 -7,-1.5 -0.3,0 -0.7,0 -1,0 -0.8,-0.3 -1.6,-0.7 -2.3,-1 -3.6,-1.1 -7,-2.2 -10.4,-3.5 -2.5,-0.9 -4.9,-1.9 -7.3,-3 -2.5,-1 -4.9,-2.1 -7.3,-3.3 -2.4,-1.1 -4.7,-2.4 -7,-3.7 -2.3,-1.2 -4.6,-2.5 -6.9,-3.9 -2.2,-1.4 -4.4,-2.8 -6.5,-4.3 -2.3,-1.5 -4.4,-3.1 -6.5,-4.7 -2.1,-1.6 -4.2,-3.2 -6.2,-5 -2,-1.6 -3.9,-3.4 -5.9,-5.2 -1.9,-1.9 -3.7,-3.8 -5.6,-5.7 -1.8,-1.8 -3.6,-3.8 -5.4,-5.8 -1.7,-2 -3.4,-4 -5,-6.1 -1.7,-2.1 -3.3,-4.2 -4.8,-6.3 -1.5,-2.2 -3,-4.4 -4.5,-6.6 -1.4,-2.2 -2.8,-4.5 -4.1,-6.8 -1.3,-2.3 -2.5,-4.7 -3.7,-7.1 -1.2,-2.3 -2.3,-4.7 -3.4,-7 -1.1,-2.5 -2.1,-5 -3.1,-7.5 -0.9,-2.4 -1.7,-4.9 -2.6,-7.4 -0.8,-2.5 -1.6,-5 -2.3,-7.6 -0.7,-2.5 -1.3,-5 -1.9,-7.6 -0.6,-2.6 -1.1,-5.2 -1.5,-7.8 -0.4,-2.6 -0.8,-5.3 -1.2,-7.9 -0.4,-2.6 -0.7,-5.3 -1,-7.9 -0.1,-2.6 -0.1,-5.2 0,-7.8 0,-1 0,-2.1 0,-3.1 -0.1,-2.6 -0.1,-5.2 0,-7.8 0,-0.9 0,-1.7 0.1,-2.6 0.3,-2.6 0.6,-5.2 1,-7.8 0.3,-2.7 0.7,-5.4 1.1,-8.1 0.5,-2.6 1,-5.2 1.7,-7.8 0.4,-2.3 0.9,-4.6 1.5,-7 0,-0.3 0,-0.7 0,-1 0.3,-0.8 0.6,-1.6 1,-2.3 1.1,-3.5 2.2,-7 3.5,-10.4 0.9,-2.5 1.9,-5 3,-7.4 1,-2.5 2,-4.8 3.1,-7.2 1.2,-2.4 2.4,-4.7 3.8,-7 1.2,-2.3 2.5,-4.6 3.9,-6.9 1.3,-2.2 2.8,-4.5 4.3,-6.6 1.5,-2.2 3,-4.4 4.5,-6.5 1.6,-2.1 3.3,-4.1 5,-6.2 1.7,-1.9 3.5,-3.9 5.3,-5.8 1.9,-2 3.7,-3.8 5.6,-5.7 1.9,-1.8 3.9,-3.6 5.9,-5.4 2,-1.7 4,-3.4 6.1,-5 2.1,-1.7 4.2,-3.3 6.3,-4.8 2.2,-1.5 4.3,-3 6.6,-4.5 2.2,-1.4 4.5,-2.7 6.8,-4.1 2.2,-1.2 4.6,-2.5 6.9,-3.7 2.4,-1.2 4.8,-2.4 7.2,-3.5 2.4,-1 4.9,-2 7.3,-2.9 2.5,-1 5,-1.9 7.6,-2.8 2.5,-0.8 5,-1.5 7.6,-2.2 2.5,-0.7 5.1,-1.3 7.7,-1.9 2.6,-0.6 5.1,-1 7.7,-1.5 2.6,-0.4 5.2,-0.8 7.9,-1.2 2.5,-0.4 5.2,-0.7 7.8,-1 2.6,-0.1 5.3,-0.1 7.9,0 1,0 2.1,0 3.1,0 2.6,-0.1 5.3,-0.1 7.9,0 0.8,0 1.7,0 2.4,0.1 2.7,0.2 5.4,0.6 8.1,1 2.6,0.3 5.2,0.7 7.8,1.1 2.6,0.5 5.2,1 7.7,1.7 2.4,0.4 4.8,0.9 7.1,1.4 0.4,0 0.7,0 1.1,0 0.8,0.4 1.6,0.7 2.3,1.1 3.6,1.1 7,2.2 10.5,3.5 2.5,0.9 4.9,1.9 7.3,3 2.5,1 4.9,2.1 7.3,3.3 2.4,1.1 4.7,2.3 7,3.7 2.3,1.2 4.6,2.5 6.9,3.9 2.2,1.4 4.4,2.8 6.6,4.3 2.2,1.5 4.4,3.1 6.5,4.7 2.1,1.6 4.1,3.2 6.1,4.9 2,1.7 4,3.5 5.9,5.2 2,1.9 3.8,3.7 5.7,5.6 1.8,1.9 3.6,3.8 5.4,5.8 1.7,1.9 3.4,4 5,6.1 1.7,2.1 3.2,4.2 4.8,6.4 1.5,2.1 3,4.3 4.4,6.5 1.5,2.2 2.8,4.5 4.2,6.8 1.2,2.3 2.5,4.7 3.7,7 1.1,2.4 2.3,4.8 3.3,7.2 1.1,2.3 2.1,4.8 3,7.3 1,2.4 1.9,4.9 2.8,7.5 0.8,2.5 1.5,5 2.2,7.5 0.7,2.5 1.4,5.1 2,7.7 0.5,2.6 1,5.2 1.5,7.8 0.4,2.6 0.8,5.2 1.1,7.9 0.5,2.6 0.8,5.2 1.1,7.9 0.1,2.6 0.1,5.2 0,7.8 0,1.1 0,2.1 0,3.1 0.1,2.7 0.1,5.3 0,8 0,0.9 0,1.7 -0.1,2.5 -0.3,2.7 -0.6,5.3 -1,8 -0.4,2.6 -0.7,5.2 -1.1,7.9 -0.5,2.6 -1.1,5.2 -1.7,7.8 -0.4,2.3 -0.9,4.7 -1.5,7 0,0.3 0,0.7 0,1 -0.3,0.8 -0.7,1.6 -1.1,2.3 -1,3.5 -2.1,7 -3.4,10.4 -1,2.5 -1.9,5 -3,7.4 -1,2.4 -2.1,4.8 -3.2,7.2 -1.1,2.4 -2.4,4.7 -3.7,7 -1.2,2.3 -2.5,4.6 -3.9,6.9 -1.4,2.2 -2.8,4.4 -4.3,6.5 -1.5,2.2 -3.1,4.4 -4.7,6.5 -1.6,2.1 -3.2,4.1 -5,6.1 -1.7,2 -3.4,4.1 -5.2,6 -1.9,2 -3.7,3.8 -5.7,5.7 -1.8,1.8 -3.8,3.6 -5.8,5.3 -2,1.8 -4,3.5 -6.1,5.1 -2.1,1.7 -4.2,3.3 -6.3,4.8 -2.2,1.5 -4.4,3 -6.7,4.5 -2.2,1.4 -4.5,2.8 -6.8,4.1 -2.3,1.2 -4.6,2.5 -7,3.7 -2.3,1.2 -4.7,2.3 -7.2,3.4 -2.4,1.1 -4.8,2.1 -7.3,3 -2.4,1 -4.9,1.9 -7.4,2.8 -2.5,0.8 -5.1,1.5 -7.6,2.2 -2.5,0.7 -5.1,1.4 -7.7,2 -2.6,0.6 -5.1,1.1 -7.7,1.5 -2.7,0.4 -5.3,0.8 -8,1.2 -2.6,0.4 -5.2,0.7 -7.8,1 -2.7,0.1 -5.3,0.1 -7.9,0 -1.1,0 -2,0 -3,0 z"
         style="fill:#ffffff;fill-opacity:1;fill-rule:nonzero;stroke:none"
         id="path24" /><path
         d="m 17496.9,14161.2 c -2.6,0.1 -5.3,0.1 -8,0 -0.8,0 -1.6,0 -2.4,-0.1 -2.7,-0.3 -5.4,-0.6 -8,-1 -2.6,-0.3 -5.3,-0.7 -7.9,-1.1 -2.6,-0.5 -5.2,-1.1 -7.8,-1.7 -2.3,-0.4 -4.6,-0.9 -7,-1.5 -0.3,0 -0.7,0 -1,0 -0.8,-0.3 -1.6,-0.7 -2.3,-1 -3.6,-1.1 -7,-2.2 -10.4,-3.5 -2.5,-0.9 -4.9,-1.9 -7.3,-3 -2.5,-1 -4.9,-2.1 -7.3,-3.3 -2.4,-1.1 -4.7,-2.4 -7,-3.7 -2.3,-1.2 -4.6,-2.5 -6.9,-3.9 -2.2,-1.4 -4.4,-2.8 -6.5,-4.3 -2.3,-1.5 -4.4,-3.1 -6.5,-4.7 -2.1,-1.6 -4.2,-3.2 -6.2,-5 -2,-1.6 -3.9,-3.4 -5.9,-5.2 -1.9,-1.9 -3.7,-3.8 -5.6,-5.7 -1.8,-1.8 -3.6,-3.8 -5.4,-5.8 -1.7,-2 -3.4,-4 -5,-6.1 -1.7,-2.1 -3.3,-4.2 -4.8,-6.3 -1.5,-2.2 -3,-4.4 -4.5,-6.6 -1.4,-2.2 -2.8,-4.5 -4.1,-6.8 -1.3,-2.3 -2.5,-4.7 -3.7,-7.1 -1.2,-2.3 -2.3,-4.7 -3.4,-7 -1.1,-2.5 -2.1,-5 -3.1,-7.5 -0.9,-2.4 -1.7,-4.9 -2.6,-7.4 -0.8,-2.5 -1.6,-5 -2.3,-7.6 -0.7,-2.5 -1.3,-5 -1.9,-7.6 -0.6,-2.6 -1.1,-5.2 -1.5,-7.8 -0.4,-2.6 -0.8,-5.3 -1.2,-7.9 -0.4,-2.6 -0.7,-5.3 -1,-7.9 -0.1,-2.6 -0.1,-5.2 0,-7.8 0,-1 0,-2.1 0,-3.1 -0.1,-2.6 -0.1,-5.2 0,-7.8 0,-0.9 0,-1.7 0.1,-2.6 0.3,-2.6 0.6,-5.2 1,-7.8 0.3,-2.7 0.7,-5.4 1.1,-8.1 0.5,-2.6 1,-5.2 1.7,-7.8 0.4,-2.3 0.9,-4.6 1.5,-7 0,-0.3 0,-0.7 0,-1 0.3,-0.8 0.6,-1.6 1,-2.3 1.1,-3.5 2.2,-7 3.5,-10.4 0.9,-2.5 1.9,-5 3,-7.4 1,-2.5 2,-4.8 3.1,-7.2 1.2,-2.4 2.4,-4.7 3.8,-7 1.2,-2.3 2.5,-4.6 3.9,-6.9 1.3,-2.2 2.8,-4.5 4.3,-6.6 1.5,-2.2 3,-4.4 4.5,-6.5 1.6,-2.1 3.3,-4.1 5,-6.2 1.7,-1.9 3.5,-3.9 5.3,-5.8 1.9,-2 3.7,-3.8 5.6,-5.7 1.9,-1.8 3.9,-3.6 5.9,-5.4 2,-1.7 4,-3.4 6.1,-5 2.1,-1.7 4.2,-3.3 6.3,-4.8 2.2,-1.5 4.3,-3 6.6,-4.5 2.2,-1.4 4.5,-2.7 6.8,-4.1 2.2,-1.2 4.6,-2.5 6.9,-3.7 2.4,-1.2 4.8,-2.4 7.2,-3.5 2.4,-1 4.9,-2 7.3,-2.9 2.5,-1 5,-1.9 7.6,-2.8 2.5,-0.8 5,-1.5 7.6,-2.2 2.5,-0.7 5.1,-1.3 7.7,-1.9 2.6,-0.6 5.1,-1 7.7,-1.5 2.6,-0.4 5.2,-0.8 7.9,-1.2 2.5,-0.4 5.2,-0.7 7.8,-1 2.6,-0.1 5.3,-0.1 7.9,0 1,0 2.1,0 3.1,0 2.6,-0.1 5.3,-0.1 7.9,0 0.8,0 1.7,0 2.4,0.1 2.7,0.2 5.4,0.6 8.1,1 2.6,0.3 5.2,0.7 7.8,1.1 2.6,0.5 5.2,1 7.7,1.7 2.4,0.4 4.8,0.9 7.1,1.4 0.4,0 0.7,0 1.1,0 0.8,0.4 1.6,0.7 2.3,1.1 3.6,1.1 7,2.2 10.5,3.5 2.5,0.9 4.9,1.9 7.3,3 2.5,1 4.9,2.1 7.3,3.3 2.4,1.1 4.7,2.3 7,3.7 2.3,1.2 4.6,2.5 6.9,3.9 2.2,1.4 4.4,2.8 6.6,4.3 2.2,1.5 4.4,3.1 6.5,4.7 2.1,1.6 4.1,3.2 6.1,4.9 2,1.7 4,3.5 5.9,5.2 2,1.9 3.8,3.7 5.7,5.6 1.8,1.9 3.6,3.8 5.4,5.8 1.7,1.9 3.4,4 5,6.1 1.7,2.1 3.2,4.2 4.8,6.4 1.5,2.1 3,4.3 4.4,6.5 1.5,2.2 2.8,4.5 4.2,6.8 1.2,2.3 2.5,4.7 3.7,7 1.1,2.4 2.3,4.8 3.3,7.2 1.1,2.3 2.1,4.8 3,7.3 1,2.4 1.9,4.9 2.8,7.5 0.8,2.5 1.5,5 2.2,7.5 0.7,2.5 1.4,5.1 2,7.7 0.5,2.6 1,5.2 1.5,7.8 0.4,2.6 0.8,5.2 1.1,7.9 0.5,2.6 0.8,5.2 1.1,7.9 0.1,2.6 0.1,5.2 0,7.8 0,1.1 0,2.1 0,3.1 0.1,2.7 0.1,5.3 0,8 0,0.9 0,1.7 -0.1,2.5 -0.3,2.7 -0.6,5.3 -1,8 -0.4,2.6 -0.7,5.2 -1.1,7.9 -0.5,2.6 -1.1,5.2 -1.7,7.8 -0.4,2.3 -0.9,4.7 -1.5,7 0,0.3 0,0.7 0,1 -0.3,0.8 -0.7,1.6 -1.1,2.3 -1,3.5 -2.1,7 -3.4,10.4 -1,2.5 -1.9,5 -3,7.4 -1,2.4 -2.1,4.8 -3.2,7.2 -1.1,2.4 -2.4,4.7 -3.7,7 -1.2,2.3 -2.5,4.6 -3.9,6.9 -1.4,2.2 -2.8,4.4 -4.3,6.5 -1.5,2.2 -3.1,4.4 -4.7,6.5 -1.6,2.1 -3.2,4.1 -5,6.1 -1.7,2 -3.4,4.1 -5.2,6 -1.9,2 -3.7,3.8 -5.7,5.7 -1.8,1.8 -3.8,3.6 -5.8,5.3 -2,1.8 -4,3.5 -6.1,5.1 -2.1,1.7 -4.2,3.3 -6.3,4.8 -2.2,1.5 -4.4,3 -6.7,4.5 -2.2,1.4 -4.5,2.8 -6.8,4.1 -2.3,1.2 -4.6,2.5 -7,3.7 -2.3,1.2 -4.7,2.3 -7.2,3.4 -2.4,1.1 -4.8,2.1 -7.3,3 -2.4,1 -4.9,1.9 -7.4,2.8 -2.5,0.8 -5.1,1.5 -7.6,2.2 -2.5,0.7 -5.1,1.4 -7.7,2 -2.6,0.6 -5.1,1.1 -7.7,1.5 -2.7,0.4 -5.3,0.8 -8,1.2 -2.6,0.4 -5.2,0.7 -7.8,1 -2.7,0.1 -5.3,0.1 -7.9,0 -1.1,0 -2,0 -3,0 z"
         style="fill:#ffffff;fill-opacity:1;fill-rule:nonzero;stroke:none"
         id="path26" /><path
         d="m 17496.9,14161.2 c -2.6,0.1 -5.3,0.1 -8,0 -0.8,0 -1.6,0 -2.4,-0.1 -2.7,-0.3 -5.4,-0.6 -8,-1 -2.6,-0.3 -5.3,-0.7 -7.9,-1.1 -2.6,-0.5 -5.2,-1.1 -7.8,-1.7 -2.3,-0.4 -4.6,-0.9 -7,-1.5 -0.3,0 -0.7,0 -1,0 -0.8,-0.3 -1.6,-0.7 -2.3,-1 -3.6,-1.1 -7,-2.2 -10.4,-3.5 -2.5,-0.9 -4.9,-1.9 -7.3,-3 -2.5,-1 -4.9,-2.1 -7.3,-3.3 -2.4,-1.1 -4.7,-2.4 -7,-3.7 -2.3,-1.2 -4.6,-2.5 -6.9,-3.9 -2.2,-1.4 -4.4,-2.8 -6.5,-4.3 -2.3,-1.5 -4.4,-3.1 -6.5,-4.7 -2.1,-1.6 -4.2,-3.2 -6.2,-5 -2,-1.6 -3.9,-3.4 -5.9,-5.2 -1.9,-1.9 -3.7,-3.8 -5.6,-5.7 -1.8,-1.8 -3.6,-3.8 -5.4,-5.8 -1.7,-2 -3.4,-4 -5,-6.1 -1.7,-2.1 -3.3,-4.2 -4.8,-6.3 -1.5,-2.2 -3,-4.4 -4.5,-6.6 -1.4,-2.2 -2.8,-4.5 -4.1,-6.8 -1.3,-2.3 -2.5,-4.7 -3.7,-7.1 -1.2,-2.3 -2.3,-4.7 -3.4,-7 -1.1,-2.5 -2.1,-5 -3.1,-7.5 -0.9,-2.4 -1.7,-4.9 -2.6,-7.4 -0.8,-2.5 -1.6,-5 -2.3,-7.6 -0.7,-2.5 -1.3,-5 -1.9,-7.6 -0.6,-2.6 -1.1,-5.2 -1.5,-7.8 -0.4,-2.6 -0.8,-5.3 -1.2,-7.9 -0.4,-2.6 -0.7,-5.3 -1,-7.9 -0.1,-2.6 -0.1,-5.2 0,-7.8 0,-1 0,-2.1 0,-3.1 -0.1,-2.6 -0.1,-5.2 0,-7.8 0,-0.9 0,-1.7 0.1,-2.6 0.3,-2.6 0.6,-5.2 1,-7.8 0.3,-2.7 0.7,-5.4 1.1,-8.1 0.5,-2.6 1,-5.2 1.7,-7.8 0.4,-2.3 0.9,-4.6 1.5,-7 0,-0.3 0,-0.7 0,-1 0.3,-0.8 0.6,-1.6 1,-2.3 1.1,-3.5 2.2,-7 3.5,-10.4 0.9,-2.5 1.9,-5 3,-7.4 1,-2.5 2,-4.8 3.1,-7.2 1.2,-2.4 2.4,-4.7 3.8,-7 1.2,-2.3 2.5,-4.6 3.9,-6.9 1.3,-2.2 2.8,-4.5 4.3,-6.6 1.5,-2.2 3,-4.4 4.5,-6.5 1.6,-2.1 3.3,-4.1 5,-6.2 1.7,-1.9 3.5,-3.9 5.3,-5.8 1.9,-2 3.7,-3.8 5.6,-5.7 1.9,-1.8 3.9,-3.6 5.9,-5.4 2,-1.7 4,-3.4 6.1,-5 2.1,-1.7 4.2,-3.3 6.3,-4.8 2.2,-1.5 4.3,-3 6.6,-4.5 2.2,-1.4 4.5,-2.7 6.8,-4.1 2.2,-1.2 4.6,-2.5 6.9,-3.7 2.4,-1.2 4.8,-2.4 7.2,-3.5 2.4,-1 4.9,-2 7.3,-2.9 2.5,-1 5,-1.9 7.6,-2.8 2.5,-0.8 5,-1.5 7.6,-2.2 2.5,-0.7 5.1,-1.3 7.7,-1.9 2.6,-0.6 5.1,-1 7.7,-1.5 2.6,-0.4 5.2,-0.8 7.9,-1.2 2.5,-0.4 5.2,-0.7 7.8,-1 2.6,-0.1 5.3,-0.1 7.9,0 1,0 2.1,0 3.1,0 2.6,-0.1 5.3,-0.1 7.9,0 0.8,0 1.7,0 2.4,0.1 2.7,0.2 5.4,0.6 8.1,1 2.6,0.3 5.2,0.7 7.8,1.1 2.6,0.5 5.2,1 7.7,1.7 2.4,0.4 4.8,0.9 7.1,1.4 0.4,0 0.7,0 1.1,0 0.8,0.4 1.6,0.7 2.3,1.1 3.6,1.1 7,2.2 10.5,3.5 2.5,0.9 4.9,1.9 7.3,3 2.5,1 4.9,2.1 7.3,3.3 2.4,1.1 4.7,2.3 7,3.7 2.3,1.2 4.6,2.5 6.9,3.9 2.2,1.4 4.4,2.8 6.6,4.3 2.2,1.5 4.4,3.1 6.5,4.7 2.1,1.6 4.1,3.2 6.1,4.9 2,1.7 4,3.5 5.9,5.2 2,1.9 3.8,3.7 5.7,5.6 1.8,1.9 3.6,3.8 5.4,5.8 1.7,1.9 3.4,4 5,6.1 1.7,2.1 3.2,4.2 4.8,6.4 1.5,2.1 3,4.3 4.4,6.5 1.5,2.2 2.8,4.5 4.2,6.8 1.2,2.3 2.5,4.7 3.7,7 1.1,2.4 2.3,4.8 3.3,7.2 1.1,2.3 2.1,4.8 3,7.3 1,2.4 1.9,4.9 2.8,7.5 0.8,2.5 1.5,5 2.2,7.5 0.7,2.5 1.4,5.1 2,7.7 0.5,2.6 1,5.2 1.5,7.8 0.4,2.6 0.8,5.2 1.1,7.9 0.5,2.6 0.8,5.2 1.1,7.9 0.1,2.6 0.1,5.2 0,7.8 0,1.1 0,2.1 0,3.1 0.1,2.7 0.1,5.3 0,8 0,0.9 0,1.7 -0.1,2.5 -0.3,2.7 -0.6,5.3 -1,8 -0.4,2.6 -0.7,5.2 -1.1,7.9 -0.5,2.6 -1.1,5.2 -1.7,7.8 -0.4,2.3 -0.9,4.7 -1.5,7 0,0.3 0,0.7 0,1 -0.3,0.8 -0.7,1.6 -1.1,2.3 -1,3.5 -2.1,7 -3.4,10.4 -1,2.5 -1.9,5 -3,7.4 -1,2.4 -2.1,4.8 -3.2,7.2 -1.1,2.4 -2.4,4.7 -3.7,7 -1.2,2.3 -2.5,4.6 -3.9,6.9 -1.4,2.2 -2.8,4.4 -4.3,6.5 -1.5,2.2 -3.1,4.4 -4.7,6.5 -1.6,2.1 -3.2,4.1 -5,6.1 -1.7,2 -3.4,4.1 -5.2,6 -1.9,2 -3.7,3.8 -5.7,5.7 -1.8,1.8 -3.8,3.6 -5.8,5.3 -2,1.8 -4,3.5 -6.1,5.1 -2.1,1.7 -4.2,3.3 -6.3,4.8 -2.2,1.5 -4.4,3 -6.7,4.5 -2.2,1.4 -4.5,2.8 -6.8,4.1 -2.3,1.2 -4.6,2.5 -7,3.7 -2.3,1.2 -4.7,2.3 -7.2,3.4 -2.4,1.1 -4.8,2.1 -7.3,3 -2.4,1 -4.9,1.9 -7.4,2.8 -2.5,0.8 -5.1,1.5 -7.6,2.2 -2.5,0.7 -5.1,1.4 -7.7,2 -2.6,0.6 -5.1,1.1 -7.7,1.5 -2.7,0.4 -5.3,0.8 -8,1.2 -2.6,0.4 -5.2,0.7 -7.8,1 -2.7,0.1 -5.3,0.1 -7.9,0 -1.1,0 -2,0 -3,0 z"
         style="fill:#ffffff;fill-opacity:1;fill-rule:nonzero;stroke:none"
         id="path28" /><path
         d="m 17496.9,14161.2 c -2.6,0.1 -5.3,0.1 -8,0 -0.8,0 -1.6,0 -2.4,-0.1 -2.7,-0.3 -5.4,-0.6 -8,-1 -2.6,-0.3 -5.3,-0.7 -7.9,-1.1 -2.6,-0.5 -5.2,-1.1 -7.8,-1.7 -2.3,-0.4 -4.6,-0.9 -7,-1.5 -0.3,0 -0.7,0 -1,0 -0.8,-0.3 -1.6,-0.7 -2.3,-1 -3.6,-1.1 -7,-2.2 -10.4,-3.5 -2.5,-0.9 -4.9,-1.9 -7.3,-3 -2.5,-1 -4.9,-2.1 -7.3,-3.3 -2.4,-1.1 -4.7,-2.4 -7,-3.7 -2.3,-1.2 -4.6,-2.5 -6.9,-3.9 -2.2,-1.4 -4.4,-2.8 -6.5,-4.3 -2.3,-1.5 -4.4,-3.1 -6.5,-4.7 -2.1,-1.6 -4.2,-3.2 -6.2,-5 -2,-1.6 -3.9,-3.4 -5.9,-5.2 -1.9,-1.9 -3.7,-3.8 -5.6,-5.7 -1.8,-1.8 -3.6,-3.8 -5.4,-5.8 -1.7,-2 -3.4,-4 -5,-6.1 -1.7,-2.1 -3.3,-4.2 -4.8,-6.3 -1.5,-2.2 -3,-4.4 -4.5,-6.6 -1.4,-2.2 -2.8,-4.5 -4.1,-6.8 -1.3,-2.3 -2.5,-4.7 -3.7,-7.1 -1.2,-2.3 -2.3,-4.7 -3.4,-7 -1.1,-2.5 -2.1,-5 -3.1,-7.5 -0.9,-2.4 -1.7,-4.9 -2.6,-7.4 -0.8,-2.5 -1.6,-5 -2.3,-7.6 -0.7,-2.5 -1.3,-5 -1.9,-7.6 -0.6,-2.6 -1.1,-5.2 -1.5,-7.8 -0.4,-2.6 -0.8,-5.3 -1.2,-7.9 -0.4,-2.6 -0.7,-5.3 -1,-7.9 -0.1,-2.6 -0.1,-5.2 0,-7.8 0,-1 0,-2.1 0,-3.1 -0.1,-2.6 -0.1,-5.2 0,-7.8 0,-0.9 0,-1.7 0.1,-2.6 0.3,-2.6 0.6,-5.2 1,-7.8 0.3,-2.7 0.7,-5.4 1.1,-8.1 0.5,-2.6 1,-5.2 1.7,-7.8 0.4,-2.3 0.9,-4.6 1.5,-7 0,-0.3 0,-0.7 0,-1 0.3,-0.8 0.6,-1.6 1,-2.3 1.1,-3.5 2.2,-7 3.5,-10.4 0.9,-2.5 1.9,-5 3,-7.4 1,-2.5 2,-4.8 3.1,-7.2 1.2,-2.4 2.4,-4.7 3.8,-7 1.2,-2.3 2.5,-4.6 3.9,-6.9 1.3,-2.2 2.8,-4.5 4.3,-6.6 1.5,-2.2 3,-4.4 4.5,-6.5 1.6,-2.1 3.3,-4.1 5,-6.2 1.7,-1.9 3.5,-3.9 5.3,-5.8 1.9,-2 3.7,-3.8 5.6,-5.7 1.9,-1.8 3.9,-3.6 5.9,-5.4 2,-1.7 4,-3.4 6.1,-5 2.1,-1.7 4.2,-3.3 6.3,-4.8 2.2,-1.5 4.3,-3 6.6,-4.5 2.2,-1.4 4.5,-2.7 6.8,-4.1 2.2,-1.2 4.6,-2.5 6.9,-3.7 2.4,-1.2 4.8,-2.4 7.2,-3.5 2.4,-1 4.9,-2 7.3,-2.9 2.5,-1 5,-1.9 7.6,-2.8 2.5,-0.8 5,-1.5 7.6,-2.2 2.5,-0.7 5.1,-1.3 7.7,-1.9 2.6,-0.6 5.1,-1 7.7,-1.5 2.6,-0.4 5.2,-0.8 7.9,-1.2 2.5,-0.4 5.2,-0.7 7.8,-1 2.6,-0.1 5.3,-0.1 7.9,0 1,0 2.1,0 3.1,0 2.6,-0.1 5.3,-0.1 7.9,0 0.8,0 1.7,0 2.4,0.1 2.7,0.2 5.4,0.6 8.1,1 2.6,0.3 5.2,0.7 7.8,1.1 2.6,0.5 5.2,1 7.7,1.7 2.4,0.4 4.8,0.9 7.1,1.4 0.4,0 0.7,0 1.1,0 0.8,0.4 1.6,0.7 2.3,1.1 3.6,1.1 7,2.2 10.5,3.5 2.5,0.9 4.9,1.9 7.3,3 2.5,1 4.9,2.1 7.3,3.3 2.4,1.1 4.7,2.3 7,3.7 2.3,1.2 4.6,2.5 6.9,3.9 2.2,1.4 4.4,2.8 6.6,4.3 2.2,1.5 4.4,3.1 6.5,4.7 2.1,1.6 4.1,3.2 6.1,4.9 2,1.7 4,3.5 5.9,5.2 2,1.9 3.8,3.7 5.7,5.6 1.8,1.9 3.6,3.8 5.4,5.8 1.7,1.9 3.4,4 5,6.1 1.7,2.1 3.2,4.2 4.8,6.4 1.5,2.1 3,4.3 4.4,6.5 1.5,2.2 2.8,4.5 4.2,6.8 1.2,2.3 2.5,4.7 3.7,7 1.1,2.4 2.3,4.8 3.3,7.2 1.1,2.3 2.1,4.8 3,7.3 1,2.4 1.9,4.9 2.8,7.5 0.8,2.5 1.5,5 2.2,7.5 0.7,2.5 1.4,5.1 2,7.7 0.5,2.6 1,5.2 1.5,7.8 0.4,2.6 0.8,5.2 1.1,7.9 0.5,2.6 0.8,5.2 1.1,7.9 0.1,2.6 0.1,5.2 0,7.8 0,1.1 0,2.1 0,3.1 0.1,2.7 0.1,5.3 0,8 0,0.9 0,1.7 -0.1,2.5 -0.3,2.7 -0.6,5.3 -1,8 -0.4,2.6 -0.7,5.2 -1.1,7.9 -0.5,2.6 -1.1,5.2 -1.7,7.8 -0.4,2.3 -0.9,4.7 -1.5,7 0,0.3 0,0.7 0,1 -0.3,0.8 -0.7,1.6 -1.1,2.3 -1,3.5 -2.1,7 -3.4,10.4 -1,2.5 -1.9,5 -3,7.4 -1,2.4 -2.1,4.8 -3.2,7.2 -1.1,2.4 -2.4,4.7 -3.7,7 -1.2,2.3 -2.5,4.6 -3.9,6.9 -1.4,2.2 -2.8,4.4 -4.3,6.5 -1.5,2.2 -3.1,4.4 -4.7,6.5 -1.6,2.1 -3.2,4.1 -5,6.1 -1.7,2 -3.4,4.1 -5.2,6 -1.9,2 -3.7,3.8 -5.7,5.7 -1.8,1.8 -3.8,3.6 -5.8,5.3 -2,1.8 -4,3.5 -6.1,5.1 -2.1,1.7 -4.2,3.3 -6.3,4.8 -2.2,1.5 -4.4,3 -6.7,4.5 -2.2,1.4 -4.5,2.8 -6.8,4.1 -2.3,1.2 -4.6,2.5 -7,3.7 -2.3,1.2 -4.7,2.3 -7.2,3.4 -2.4,1.1 -4.8,2.1 -7.3,3 -2.4,1 -4.9,1.9 -7.4,2.8 -2.5,0.8 -5.1,1.5 -7.6,2.2 -2.5,0.7 -5.1,1.4 -7.7,2 -2.6,0.6 -5.1,1.1 -7.7,1.5 -2.7,0.4 -5.3,0.8 -8,1.2 -2.6,0.4 -5.2,0.7 -7.8,1 -2.7,0.1 -5.3,0.1 -7.9,0 -1.1,0 -2,0 -3,0 z"
         style="fill:#ffffff;fill-opacity:1;fill-rule:nonzero;stroke:none"
         id="path30" /><path
         d="m 17496.9,14161.2 c -2.6,0.1 -5.3,0.1 -8,0 -0.8,0 -1.6,0 -2.4,-0.1 -2.7,-0.3 -5.4,-0.6 -8,-1 -2.6,-0.3 -5.3,-0.7 -7.9,-1.1 -2.6,-0.5 -5.2,-1.1 -7.8,-1.7 -2.3,-0.4 -4.6,-0.9 -7,-1.5 -0.3,0 -0.7,0 -1,0 -0.8,-0.3 -1.6,-0.7 -2.3,-1 -3.6,-1.1 -7,-2.2 -10.4,-3.5 -2.5,-0.9 -4.9,-1.9 -7.3,-3 -2.5,-1 -4.9,-2.1 -7.3,-3.3 -2.4,-1.1 -4.7,-2.4 -7,-3.7 -2.3,-1.2 -4.6,-2.5 -6.9,-3.9 -2.2,-1.4 -4.4,-2.8 -6.5,-4.3 -2.3,-1.5 -4.4,-3.1 -6.5,-4.7 -2.1,-1.6 -4.2,-3.2 -6.2,-5 -2,-1.6 -3.9,-3.4 -5.9,-5.2 -1.9,-1.9 -3.7,-3.8 -5.6,-5.7 -1.8,-1.8 -3.6,-3.8 -5.4,-5.8 -1.7,-2 -3.4,-4 -5,-6.1 -1.7,-2.1 -3.3,-4.2 -4.8,-6.3 -1.5,-2.2 -3,-4.4 -4.5,-6.6 -1.4,-2.2 -2.8,-4.5 -4.1,-6.8 -1.3,-2.3 -2.5,-4.7 -3.7,-7.1 -1.2,-2.3 -2.3,-4.7 -3.4,-7 -1.1,-2.5 -2.1,-5 -3.1,-7.5 -0.9,-2.4 -1.7,-4.9 -2.6,-7.4 -0.8,-2.5 -1.6,-5 -2.3,-7.6 -0.7,-2.5 -1.3,-5 -1.9,-7.6 -0.6,-2.6 -1.1,-5.2 -1.5,-7.8 -0.4,-2.6 -0.8,-5.3 -1.2,-7.9 -0.4,-2.6 -0.7,-5.3 -1,-7.9 -0.1,-2.6 -0.1,-5.2 0,-7.8 0,-1 0,-2.1 0,-3.1 -0.1,-2.6 -0.1,-5.2 0,-7.8 0,-0.9 0,-1.7 0.1,-2.6 0.3,-2.6 0.6,-5.2 1,-7.8 0.3,-2.7 0.7,-5.4 1.1,-8.1 0.5,-2.6 1,-5.2 1.7,-7.8 0.4,-2.3 0.9,-4.6 1.5,-7 0,-0.3 0,-0.7 0,-1 0.3,-0.8 0.6,-1.6 1,-2.3 1.1,-3.5 2.2,-7 3.5,-10.4 0.9,-2.5 1.9,-5 3,-7.4 1,-2.5 2,-4.8 3.1,-7.2 1.2,-2.4 2.4,-4.7 3.8,-7 1.2,-2.3 2.5,-4.6 3.9,-6.9 1.3,-2.2 2.8,-4.5 4.3,-6.6 1.5,-2.2 3,-4.4 4.5,-6.5 1.6,-2.1 3.3,-4.1 5,-6.2 1.7,-1.9 3.5,-3.9 5.3,-5.8 1.9,-2 3.7,-3.8 5.6,-5.7 1.9,-1.8 3.9,-3.6 5.9,-5.4 2,-1.7 4,-3.4 6.1,-5 2.1,-1.7 4.2,-3.3 6.3,-4.8 2.2,-1.5 4.3,-3 6.6,-4.5 2.2,-1.4 4.5,-2.7 6.8,-4.1 2.2,-1.2 4.6,-2.5 6.9,-3.7 2.4,-1.2 4.8,-2.4 7.2,-3.5 2.4,-1 4.9,-2 7.3,-2.9 2.5,-1 5,-1.9 7.6,-2.8 2.5,-0.8 5,-1.5 7.6,-2.2 2.5,-0.7 5.1,-1.3 7.7,-1.9 2.6,-0.6 5.1,-1 7.7,-1.5 2.6,-0.4 5.2,-0.8 7.9,-1.2 2.5,-0.4 5.2,-0.7 7.8,-1 2.6,-0.1 5.3,-0.1 7.9,0 1,0 2.1,0 3.1,0 2.6,-0.1 5.3,-0.1 7.9,0 0.8,0 1.7,0 2.4,0.1 2.7,0.2 5.4,0.6 8.1,1 2.6,0.3 5.2,0.7 7.8,1.1 2.6,0.5 5.2,1 7.7,1.7 2.4,0.4 4.8,0.9 7.1,1.4 0.4,0 0.7,0 1.1,0 0.8,0.4 1.6,0.7 2.3,1.1 3.6,1.1 7,2.2 10.5,3.5 2.5,0.9 4.9,1.9 7.3,3 2.5,1 4.9,2.1 7.3,3.3 2.4,1.1 4.7,2.3 7,3.7 2.3,1.2 4.6,2.5 6.9,3.9 2.2,1.4 4.4,2.8 6.6,4.3 2.2,1.5 4.4,3.1 6.5,4.7 2.1,1.6 4.1,3.2 6.1,4.9 2,1.7 4,3.5 5.9,5.2 2,1.9 3.8,3.7 5.7,5.6 1.8,1.9 3.6,3.8 5.4,5.8 1.7,1.9 3.4,4 5,6.1 1.7,2.1 3.2,4.2 4.8,6.4 1.5,2.1 3,4.3 4.4,6.5 1.5,2.2 2.8,4.5 4.2,6.8 1.2,2.3 2.5,4.7 3.7,7 1.1,2.4 2.3,4.8 3.3,7.2 1.1,2.3 2.1,4.8 3,7.3 1,2.4 1.9,4.9 2.8,7.5 0.8,2.5 1.5,5 2.2,7.5 0.7,2.5 1.4,5.1 2,7.7 0.5,2.6 1,5.2 1.5,7.8 0.4,2.6 0.8,5.2 1.1,7.9 0.5,2.6 0.8,5.2 1.1,7.9 0.1,2.6 0.1,5.2 0,7.8 0,1.1 0,2.1 0,3.1 0.1,2.7 0.1,5.3 0,8 0,0.9 0,1.7 -0.1,2.5 -0.3,2.7 -0.6,5.3 -1,8 -0.4,2.6 -0.7,5.2 -1.1,7.9 -0.5,2.6 -1.1,5.2 -1.7,7.8 -0.4,2.3 -0.9,4.7 -1.5,7 0,0.3 0,0.7 0,1 -0.3,0.8 -0.7,1.6 -1.1,2.3 -1,3.5 -2.1,7 -3.4,10.4 -1,2.5 -1.9,5 -3,7.4 -1,2.4 -2.1,4.8 -3.2,7.2 -1.1,2.4 -2.4,4.7 -3.7,7 -1.2,2.3 -2.5,4.6 -3.9,6.9 -1.4,2.2 -2.8,4.4 -4.3,6.5 -1.5,2.2 -3.1,4.4 -4.7,6.5 -1.6,2.1 -3.2,4.1 -5,6.1 -1.7,2 -3.4,4.1 -5.2,6 -1.9,2 -3.7,3.8 -5.7,5.7 -1.8,1.8 -3.8,3.6 -5.8,5.3 -2,1.8 -4,3.5 -6.1,5.1 -2.1,1.7 -4.2,3.3 -6.3,4.8 -2.2,1.5 -4.4,3 -6.7,4.5 -2.2,1.4 -4.5,2.8 -6.8,4.1 -2.3,1.2 -4.6,2.5 -7,3.7 -2.3,1.2 -4.7,2.3 -7.2,3.4 -2.4,1.1 -4.8,2.1 -7.3,3 -2.4,1 -4.9,1.9 -7.4,2.8 -2.5,0.8 -5.1,1.5 -7.6,2.2 -2.5,0.7 -5.1,1.4 -7.7,2 -2.6,0.6 -5.1,1.1 -7.7,1.5 -2.7,0.4 -5.3,0.8 -8,1.2 -2.6,0.4 -5.2,0.7 -7.8,1 -2.7,0.1 -5.3,0.1 -7.9,0 -1.1,0 -2,0 -3,0 z"
         style="fill:#ffffff;fill-opacity:1;fill-rule:nonzero;stroke:none"
         id="path32" /><path
         d="m 17496.9,14161.2 c -2.6,0.1 -5.3,0.1 -8,0 -0.8,0 -1.6,0 -2.4,-0.1 -2.7,-0.3 -5.4,-0.6 -8,-1 -2.6,-0.3 -5.3,-0.7 -7.9,-1.1 -2.6,-0.5 -5.2,-1.1 -7.8,-1.7 -2.3,-0.4 -4.6,-0.9 -7,-1.5 -0.3,0 -0.7,0 -1,0 -0.8,-0.3 -1.6,-0.7 -2.3,-1 -3.6,-1.1 -7,-2.2 -10.4,-3.5 -2.5,-0.9 -4.9,-1.9 -7.3,-3 -2.5,-1 -4.9,-2.1 -7.3,-3.3 -2.4,-1.1 -4.7,-2.4 -7,-3.7 -2.3,-1.2 -4.6,-2.5 -6.9,-3.9 -2.2,-1.4 -4.4,-2.8 -6.5,-4.3 -2.3,-1.5 -4.4,-3.1 -6.5,-4.7 -2.1,-1.6 -4.2,-3.2 -6.2,-5 -2,-1.6 -3.9,-3.4 -5.9,-5.2 -1.9,-1.9 -3.7,-3.8 -5.6,-5.7 -1.8,-1.8 -3.6,-3.8 -5.4,-5.8 -1.7,-2 -3.4,-4 -5,-6.1 -1.7,-2.1 -3.3,-4.2 -4.8,-6.3 -1.5,-2.2 -3,-4.4 -4.5,-6.6 -1.4,-2.2 -2.8,-4.5 -4.1,-6.8 -1.3,-2.3 -2.5,-4.7 -3.7,-7.1 -1.2,-2.3 -2.3,-4.7 -3.4,-7 -1.1,-2.5 -2.1,-5 -3.1,-7.5 -0.9,-2.4 -1.7,-4.9 -2.6,-7.4 -0.8,-2.5 -1.6,-5 -2.3,-7.6 -0.7,-2.5 -1.3,-5 -1.9,-7.6 -0.6,-2.6 -1.1,-5.2 -1.5,-7.8 -0.4,-2.6 -0.8,-5.3 -1.2,-7.9 -0.4,-2.6 -0.7,-5.3 -1,-7.9 -0.1,-2.6 -0.1,-5.2 0,-7.8 0,-1 0,-2.1 0,-3.1 -0.1,-2.6 -0.1,-5.2 0,-7.8 0,-0.9 0,-1.7 0.1,-2.6 0.3,-2.6 0.6,-5.2 1,-7.8 0.3,-2.7 0.7,-5.4 1.1,-8.1 0.5,-2.6 1,-5.2 1.7,-7.8 0.4,-2.3 0.9,-4.6 1.5,-7 0,-0.3 0,-0.7 0,-1 0.3,-0.8 0.6,-1.6 1,-2.3 1.1,-3.5 2.2,-7 3.5,-10.4 0.9,-2.5 1.9,-5 3,-7.4 1,-2.5 2,-4.8 3.1,-7.2 1.2,-2.4 2.4,-4.7 3.8,-7 1.2,-2.3 2.5,-4.6 3.9,-6.9 1.3,-2.2 2.8,-4.5 4.3,-6.6 1.5,-2.2 3,-4.4 4.5,-6.5 1.6,-2.1 3.3,-4.1 5,-6.2 1.7,-1.9 3.5,-3.9 5.3,-5.8 1.9,-2 3.7,-3.8 5.6,-5.7 1.9,-1.8 3.9,-3.6 5.9,-5.4 2,-1.7 4,-3.4 6.1,-5 2.1,-1.7 4.2,-3.3 6.3,-4.8 2.2,-1.5 4.3,-3 6.6,-4.5 2.2,-1.4 4.5,-2.7 6.8,-4.1 2.2,-1.2 4.6,-2.5 6.9,-3.7 2.4,-1.2 4.8,-2.4 7.2,-3.5 2.4,-1 4.9,-2 7.3,-2.9 2.5,-1 5,-1.9 7.6,-2.8 2.5,-0.8 5,-1.5 7.6,-2.2 2.5,-0.7 5.1,-1.3 7.7,-1.9 2.6,-0.6 5.1,-1 7.7,-1.5 2.6,-0.4 5.2,-0.8 7.9,-1.2 2.5,-0.4 5.2,-0.7 7.8,-1 2.6,-0.1 5.3,-0.1 7.9,0 1,0 2.1,0 3.1,0 2.6,-0.1 5.3,-0.1 7.9,0 0.8,0 1.7,0 2.4,0.1 2.7,0.2 5.4,0.6 8.1,1 2.6,0.3 5.2,0.7 7.8,1.1 2.6,0.5 5.2,1 7.7,1.7 2.4,0.4 4.8,0.9 7.1,1.4 0.4,0 0.7,0 1.1,0 0.8,0.4 1.6,0.7 2.3,1.1 3.6,1.1 7,2.2 10.5,3.5 2.5,0.9 4.9,1.9 7.3,3 2.5,1 4.9,2.1 7.3,3.3 2.4,1.1 4.7,2.3 7,3.7 2.3,1.2 4.6,2.5 6.9,3.9 2.2,1.4 4.4,2.8 6.6,4.3 2.2,1.5 4.4,3.1 6.5,4.7 2.1,1.6 4.1,3.2 6.1,4.9 2,1.7 4,3.5 5.9,5.2 2,1.9 3.8,3.7 5.7,5.6 1.8,1.9 3.6,3.8 5.4,5.8 1.7,1.9 3.4,4 5,6.1 1.7,2.1 3.2,4.2 4.8,6.4 1.5,2.1 3,4.3 4.4,6.5 1.5,2.2 2.8,4.5 4.2,6.8 1.2,2.3 2.5,4.7 3.7,7 1.1,2.4 2.3,4.8 3.3,7.2 1.1,2.3 2.1,4.8 3,7.3 1,2.4 1.9,4.9 2.8,7.5 0.8,2.5 1.5,5 2.2,7.5 0.7,2.5 1.4,5.1 2,7.7 0.5,2.6 1,5.2 1.5,7.8 0.4,2.6 0.8,5.2 1.1,7.9 0.5,2.6 0.8,5.2 1.1,7.9 0.1,2.6 0.1,5.2 0,7.8 0,1.1 0,2.1 0,3.1 0.1,2.7 0.1,5.3 0,8 0,0.9 0,1.7 -0.1,2.5 -0.3,2.7 -0.6,5.3 -1,8 -0.4,2.6 -0.7,5.2 -1.1,7.9 -0.5,2.6 -1.1,5.2 -1.7,7.8 -0.4,2.3 -0.9,4.7 -1.5,7 0,0.3 0,0.7 0,1 -0.3,0.8 -0.7,1.6 -1.1,2.3 -1,3.5 -2.1,7 -3.4,10.4 -1,2.5 -1.9,5 -3,7.4 -1,2.4 -2.1,4.8 -3.2,7.2 -1.1,2.4 -2.4,4.7 -3.7,7 -1.2,2.3 -2.5,4.6 -3.9,6.9 -1.4,2.2 -2.8,4.4 -4.3,6.5 -1.5,2.2 -3.1,4.4 -4.7,6.5 -1.6,2.1 -3.2,4.1 -5,6.1 -1.7,2 -3.4,4.1 -5.2,6 -1.9,2 -3.7,3.8 -5.7,5.7 -1.8,1.8 -3.8,3.6 -5.8,5.3 -2,1.8 -4,3.5 -6.1,5.1 -2.1,1.7 -4.2,3.3 -6.3,4.8 -2.2,1.5 -4.4,3 -6.7,4.5 -2.2,1.4 -4.5,2.8 -6.8,4.1 -2.3,1.2 -4.6,2.5 -7,3.7 -2.3,1.2 -4.7,2.3 -7.2,3.4 -2.4,1.1 -4.8,2.1 -7.3,3 -2.4,1 -4.9,1.9 -7.4,2.8 -2.5,0.8 -5.1,1.5 -7.6,2.2 -2.5,0.7 -5.1,1.4 -7.7,2 -2.6,0.6 -5.1,1.1 -7.7,1.5 -2.7,0.4 -5.3,0.8 -8,1.2 -2.6,0.4 -5.2,0.7 -7.8,1 -2.7,0.1 -5.3,0.1 -7.9,0 -1.1,0 -2,0 -3,0 z"
         style="fill:#ffffff;fill-opacity:1;fill-rule:nonzero;stroke:none"
         id="path34" /><path
         d="m 20057.3,6527.77 c 0,-219.18 -348.4,-429.41 -968.4,-584.41 -620,-155 -1460.9,-242.11 -2337.7,-242.11 -1826,0 -3306.2,370.08 -3306.2,826.52 0,456.49 1480.2,826.57 3306.2,826.57 876.8,0 1717.7,-87.11 2337.7,-242.11 620,-155 968.4,-365.24 968.4,-584.46 z"
         style="fill:#cccccc;fill-opacity:1;fill-rule:nonzero;stroke:none"
         id="path36" /><path
         d="m 15716.6,8847.58 c 219.4,-818.79 258.2,-2055.9 -78.6,-2146.13 -336.8,-90.28 -921.7,1000.5 -1141.2,1819.29 -219.3,818.83 97.3,1078.99 346.7,1145.78 249.4,66.84 653.7,0 873.1,-818.94 z"
         style="fill:#ff7ba2;fill-opacity:1;fill-rule:nonzero;stroke:none"
         id="path38" /><path
         d="m 14470.6,8029.45 c 111.1,-297.73 251.4,-596.68 401.2,-849.22 112.9,-190.31 229.7,-353.78 354,-474.25 124.3,-120.47 275.6,-223.6 457.9,-174.77 182.2,48.83 261.5,213.75 309,380.24 47.4,166.52 66.7,366.6 69.4,587.85 3.4,293.63 -24.5,622.57 -77.1,935.93 l -342.6,-91.79 c 45.5,-283.99 70.3,-582.7 67.2,-840.12 -2.3,-201.64 -22.6,-378.91 -55.8,-495.35 -24.9,-87.35 -54.7,-122.42 -62.2,-132.93 -11.8,5.31 -55.3,20.78 -120.5,83.98 -86.9,84.22 -193.2,227.58 -296.1,401.06 -131.3,221.37 -259.2,492.5 -361.8,761.17 z"
         style="fill:#1a1a1a;fill-opacity:1;fill-rule:nonzero;stroke:none"
         id="path40" /><path
         d="m 14798,9836.68 c -161.9,-43.36 -356.1,-159.22 -463,-385.86 -106.9,-226.64 -124.8,-541.29 -8.4,-975.66 46.6,-174.07 108.4,-357.62 180.1,-539.77 l 343.3,91.95 c -74,183.52 -137.3,368.75 -183,539.03 -103,384.45 -72.2,609.29 -13.2,734.14 58.9,124.84 147.9,172.3 235.4,195.74 87.5,23.44 188.2,26.84 301.6,-51.84 113.5,-78.67 252.6,-257.96 355.6,-642.42 45.6,-170.27 83.4,-362.34 111.1,-558.24 l 343.2,91.95 c -28.9,193.64 -67.3,383.44 -113.9,557.5 -116.4,434.38 -289.1,697.97 -495,840.78 -206,142.82 -431.9,146.1 -593.8,102.7 z"
         style="fill:#1a1a1a;fill-opacity:1;fill-rule:nonzero;stroke:none"
         id="path42" /><path
         d="m 19005.5,8520.74 c -219.4,-818.79 -804.3,-1909.57 -1141.1,-1819.29 -336.9,90.23 -298.1,1327.34 -78.7,2146.13 219.4,818.83 623.7,885.78 873.2,818.94 249.3,-66.79 566,-326.99 346.6,-1145.78 z"
         style="fill:#ff7ba2;fill-opacity:1;fill-rule:nonzero;stroke:none"
         id="path44" /><path
         d="m 17517.3,8435.27 c -52.6,-313.4 -80.5,-642.46 -77.1,-936.09 2.7,-221.25 22,-421.21 69.5,-587.7 47.4,-166.52 126.9,-331.48 309.1,-380.31 182.3,-48.83 333.4,54.34 457.8,174.81 124.3,120.5 241.1,284.1 354,474.41 149.8,252.54 290.1,551.41 401.2,849.06 l -342.6,91.8 c -102.6,-268.67 -230.5,-539.77 -361.8,-761.17 -102.9,-173.44 -209.1,-316.84 -296,-401.1 -65.3,-63.2 -108.7,-78.67 -120.5,-83.98 -7.5,10.51 -37.4,45.62 -62.3,132.93 -33.1,116.44 -53.5,293.75 -55.9,495.43 -3,257.38 21.8,556.09 67.3,840.08 z"
         style="fill:#1a1a1a;fill-opacity:1;fill-rule:nonzero;stroke:none"
         id="path46" /><path
         d="m 18704.5,9836.64 c -161.9,43.4 -387.9,40.16 -593.9,-102.66 -205.9,-142.81 -378.7,-406.36 -495,-840.74 -46.7,-174.06 -85,-363.87 -114,-557.5 l 343.2,-91.99 c 27.8,195.9 65.6,387.97 111.2,558.28 103,384.42 242.1,563.75 355.5,642.38 113.5,78.68 214.3,75.28 301.8,51.8 87.5,-23.44 176.4,-70.86 235.3,-195.7 58.9,-124.81 89.7,-349.69 -13.2,-734.1 -45.7,-170.32 -109,-355.55 -183,-539.03 l 343.3,-91.99 c 71.7,182.15 133.4,365.7 180,539.81 116.4,434.37 98.6,748.98 -8.3,975.62 -107,226.64 -301,342.46 -462.9,385.82 z"
         style="fill:#1a1a1a;fill-opacity:1;fill-rule:nonzero;stroke:none"
         id="path48" /><path
         d="m 12622.3,12497.1 c -672.5,-516 -1800.6,-1025.3 -2012.9,-748.7 -212.3,276.7 571.7,1234.5 1244.2,1750.5 672.5,516.1 1034,323.1 1191.2,118.2 157.1,-204.8 250,-604 -422.5,-1120 z"
         style="fill:#ff7ba2;fill-opacity:1;fill-rule:nonzero;stroke:none"
         id="path50" /><path
         d="m 11389.6,13335.2 c -232.5,-216.6 -455,-460.6 -631,-695.7 -132.6,-177.1 -239,-347.6 -302.7,-508.5 -63.7,-161 -101.1,-340.3 13.8,-489.9 114.8,-149.7 297.5,-159.9 469.5,-140 172,19.9 364.2,78.6 569.7,160.9 272.5,109.2 565.8,260.9 835.2,429.3 l -216,281.4 c -244.9,-150.7 -511.4,-287.9 -750.4,-383.6 -187.2,-75 -358.7,-124.1 -479,-138 -90.2,-10.4 -134.1,3.7 -146.6,6.7 0.4,12.9 -2,59 31.5,143.4 44.5,112.6 136.3,265.6 257.1,427 154.3,206.1 355.9,428 564.9,625.6 z"
         style="fill:#1a1a1a;fill-opacity:1;fill-rule:nonzero;stroke:none"
         id="path52" /><path
         d="m 13184.6,13724.3 c -102.1,133 -283.4,268 -533.7,280.1 -250.3,12 -547.8,-91.9 -904.6,-365.6 -142.9,-109.7 -288.9,-237 -429.8,-372.9 l 216.4,-282 c 141.2,138.6 288.1,267.9 428,375.2 315.7,242.3 535.2,299.9 673.1,293.3 137.9,-6.7 215.8,-70.8 271,-142.6 55.1,-71.9 96.8,-163.6 67.5,-298.5 -29.3,-134.9 -141.7,-332.1 -457.4,-574.4 -139.9,-107.3 -302.9,-215.7 -473.3,-316.3 l 216.4,-281.9 c 167.7,100.9 328.4,208.9 471.4,318.6 356.8,273.8 534.2,534.2 587.3,779.1 53.1,245 -30.3,454.9 -132.3,587.9 z"
         style="fill:#1a1a1a;fill-opacity:1;fill-rule:nonzero;stroke:none"
         id="path54" /><path
         d="m 21648.8,13498.6 c 672.5,-516 1456.4,-1473.8 1244.1,-1750.5 -212.3,-276.7 -1340.4,232.6 -2012.9,748.7 -672.5,516 -579.6,915.2 -422.5,1120 157.2,204.8 518.8,397.8 1191.3,-118.2 z"
         style="fill:#ff7ba2;fill-opacity:1;fill-rule:nonzero;stroke:none"
         id="path56" /><path
         d="m 21158.3,12091 c 269.4,-168.5 562.7,-320.3 835.3,-429.4 205.4,-82.3 397.5,-140.9 569.5,-160.8 172,-19.9 354.8,-9.6 469.7,140.1 114.8,149.7 77.4,328.8 13.6,489.8 -63.7,160.9 -170.1,331.4 -302.8,508.6 -176,235 -398.4,479 -630.9,695.6 l -215.9,-281.4 c 209,-197.6 410.5,-419.6 564.8,-625.6 120.9,-161.4 212.7,-314.4 257.3,-427 33.4,-84.4 31.1,-130.4 31.5,-143.3 -12.6,-3 -56.5,-17.2 -146.7,-6.7 -120.2,13.9 -291.9,62.9 -479.1,137.9 -238.9,95.6 -505.4,232.9 -750.4,383.6 z"
         style="fill:#1a1a1a;fill-opacity:1;fill-rule:nonzero;stroke:none"
         id="path58" /><path
         d="m 20317.9,13724.1 c -102.1,-133 -185.6,-343 -132.4,-588 53.1,-244.9 230.5,-505.4 587.2,-779.1 143,-109.7 303.7,-217.8 471.5,-318.6 l 216.4,281.9 c -170.4,100.6 -333.4,209 -473.3,316.3 -315.7,242.3 -428.2,439.4 -457.5,574.3 -29.2,134.9 12.5,226.8 67.7,298.7 55.1,71.8 132.9,135.8 270.8,142.4 137.9,6.7 357.4,-50.9 673.2,-293.2 139.9,-107.3 286.7,-236.7 428,-375.2 l 216.3,281.9 c -140.8,136 -286.8,263.2 -429.8,372.9 -356.7,273.8 -654.2,377.7 -904.6,365.7 -250.3,-12.1 -431.5,-147 -533.5,-280 z"
         style="fill:#1a1a1a;fill-opacity:1;fill-rule:nonzero;stroke:none"
         id="path60" /><path
         d="m 15678.1,18021.4 c -528.5,-1 -1012.7,-278.8 -1286.2,-721.7 -28.3,1.4 -56.4,6.6 -84.9,6.6 -935.2,0 -1698.6,-763.4 -1698.6,-1698.6 0,-62.9 3.9,-125.6 10.8,-188 -394.2,-222.9 -646.9,-643.9 -646.9,-1106.9 0,-97.6 15.3,-193.7 37.4,-288.4 -190.2,-227.6 -296.8,-515.6 -296.8,-815.3 0,-209.6 53.7,-414.1 151.5,-597.5 -135.9,-248.9 -211.7,-526.8 -211.7,-812 0,-557.6 276,-1074.2 727.5,-1389.8 -0.1,-6.8 -1.4,-13.6 -1.4,-20.4 0,-638.74 477.5,-1169.99 1092.9,-1257.99 183.7,-489.46 654,-826.84 1189.2,-826.84 37.1,0 74.1,2.85 111,6.09 286.1,-354.41 718.3,-565.35 1179.4,-565.35 293.5,0 566.8,87.31 799.9,232.35 233.1,-145 506.4,-232.35 799.8,-232.35 0,0 0,0 0,0 461.1,0 893.4,210.98 1179.5,565.39 36.9,-3.24 73.9,-6.05 111,-6.05 535.2,0 1005.4,337.26 1189.1,826.72 615.4,88 1093,619.29 1093,1258.03 0,6.8 -1.4,13.5 -1.4,20.4 451.5,315.6 727.4,832.3 727.4,1389.8 0,285.2 -75.8,563.1 -211.7,811.9 97.8,183.5 151.5,388 151.5,597.6 0,299.7 -106.6,587.7 -296.8,815.3 22.1,94.7 37.4,190.8 37.4,288.3 0,463.1 -252.7,884 -646.9,1106.9 6.9,62.4 10.9,125.1 10.9,188 -0.1,935.2 -763.4,1698.7 -1698.6,1698.7 -28.5,0 -56.6,-5.2 -85,-6.6 -273.5,442.9 -757.7,720.7 -1286.2,721.7 h -2.8 c -417.1,0 -795.4,-170.8 -1070.3,-444.8 -274.8,274 -653,444.8 -1070.2,444.8 h -2.6 z m 0.9,-493.3 h 2 c 364,0 680.4,-188.1 862.5,-472 l 207.7,-323.7 207.6,323.7 c 182.1,283.9 498.5,472 862.6,472 h 1.9 c 397.4,-0.8 757.2,-230.2 925.5,-590.2 l 78.4,-167.8 183,28.5 c 61.2,9.5 123.2,14.3 185.2,14.3 668.5,0 1205.2,-536.7 1205.2,-1205.2 0,-92.6 -10.7,-184.9 -31.8,-275.1 l -50,-213.2 205.7,-74.9 c 308.3,-112.4 512.1,-403.6 512.1,-731.7 0,-92.3 -16.4,-183.9 -48.5,-270.6 l -56.8,-153.4 119.2,-112 c 156.8,-147.4 245.6,-352.6 245.6,-567.7 0,-161.9 -50.5,-319.8 -144.4,-451.7 l -99.4,-139.6 96.2,-141.9 c 135.3,-199.6 207.7,-435.2 207.7,-676.3 0,-434.7 -233.2,-834.7 -611.4,-1048.9 l -146.8,-83.1 24.2,-166.9 c 5.3,-36.8 8,-74 8,-111.3 0,-433.07 -345.8,-778.89 -778.8,-778.89 h -206.6 l -41.5,-195.43 c -76.7,-361.21 -392.6,-617.07 -761.8,-617.07 -56.6,0 -113.1,6.17 -168.4,18.4 l -167.9,37.14 -93,-144.6 c -188.5,-293.33 -512.5,-470.2 -861.2,-470.24 v 0 c -245.3,0.04 -467.9,85.12 -644.8,228.05 l -155,125.23 -155.1,-125.27 c -176.9,-142.97 -399.5,-228.05 -644.8,-228.05 -348.6,0 -672.7,176.92 -861.2,470.28 l -93,144.6 -167.8,-37.14 c -55.4,-12.23 -111.8,-18.4 -168.4,-18.4 -369.3,0 -685.2,255.9 -761.9,617.07 l -41.5,195.43 H 13651 c -433.1,0 -778.9,345.82 -778.9,778.89 0,37.3 2.7,74.5 8.1,111.2 l 24.1,167 -146.7,83.1 c -378.3,214.2 -611.5,614.2 -611.5,1048.9 0.1,241.1 72.4,476.7 207.7,676.3 l 96.2,141.9 -99.4,139.6 c -93.9,131.9 -144.3,289.8 -144.3,451.7 0,215.1 88.8,420.3 245.5,567.7 l 119.3,112 -56.8,153.4 c -32.1,86.7 -48.6,178.3 -48.6,270.6 0,328.1 203.9,619.3 512.2,731.7 l 205.6,74.9 -49.9,213.2 c -21.2,90.1 -31.8,182.4 -31.8,275 0,668.5 536.7,1205.2 1205.2,1205.2 62,0 123.9,-4.7 185.1,-14.3 l 183,-28.4 78.4,167.7 c 168.3,360 528.1,589.5 925.5,590.2 z"
         style="fill:#1a1a1a;fill-opacity:1;fill-rule:nonzero;stroke:none"
         id="path62" /><path
         d="m 16751.2,17189.3 c -225.9,352.1 -620.8,585.5 -1070.2,585.4 h -2.4 c -492.5,-0.9 -940,-286.3 -1148.6,-732.4 -73.7,11.5 -148.3,17.3 -223,17.3 -801.9,0 -1451.9,-650.1 -1452,-1452 0,-111.5 12.9,-222.7 38.4,-331.3 -404.9,-147.6 -674.3,-532.6 -674.3,-963.6 0,-121.6 21.6,-242.1 63.8,-356.2 -206.3,-193.8 -323.3,-464.4 -323.3,-747.4 0,-213.2 66.5,-421.1 190.1,-594.8 -163.1,-240.4 -250.3,-524.3 -250.3,-814.8 0,-523.1 281.4,-1005.7 736.6,-1263.4 -7.1,-48.6 -10.6,-97.7 -10.6,-146.7 0,-566.43 459.2,-1025.57 1025.6,-1025.57 h 6.7 c 100.6,-473.75 518.9,-812.54 1003.2,-812.54 74.5,0 148.9,8.12 221.7,24.26 233.7,-363.71 636.4,-583.56 1068.7,-583.56 302.9,0 581,105.98 799.3,282.81"
         style="fill:#ff7ba2;fill-opacity:1;fill-rule:nonzero;stroke:none"
         id="path64" /><path
         d="m 15680.9,17774.8 c 449.4,0 844.3,-233.4 1070.2,-585.5 v -558 c -185,306.5 -508.4,509.6 -876.5,509.5 h -1.9 c -403.3,-0.7 -769.8,-249.2 -940.6,-637.4 -60.5,9.9 -121.5,14.9 -182.7,14.9 -656.7,0 -1189.1,-565.8 -1189.1,-1263.7 0,-97.1 10.5,-193.9 31.4,-288.4 -331.6,-128.5 -552.3,-463.6 -552.3,-838.7 0,-105.8 17.7,-210.8 52.3,-310.1 -169,-168.7 -264.8,-404.2 -264.8,-650.5 0,-185.6 54.4,-366.5 155.6,-517.7 -133.5,-209.3 -204.8,-456.3 -204.8,-709.2 0,-455.3 230.4,-875.4 603.2,-1099.7 -5.8,-42.3 -8.7,-85 -8.7,-127.7 0,-493 376.1,-892.64 839.9,-892.64 h 5.6 c 82.3,-412.34 424.9,-707.23 821.5,-707.23 61.1,0 122,7.11 181.6,21.14 191.5,-316.57 521.2,-507.93 875.3,-507.93 248,0 475.7,92.18 654.5,246.05 v -597.15 c -218.3,-176.87 -496.4,-282.85 -799.3,-282.85 -432.3,0 -835,219.88 -1068.7,583.56 -72.8,-16.1 -147.2,-24.26 -221.7,-24.26 -484.3,0 -902.6,338.83 -1003.2,812.54 h -6.7 c -566.4,0 -1025.6,459.18 -1025.6,1025.57 0,49.1 3.6,98.1 10.6,146.7 -455.2,257.7 -736.6,740.3 -736.6,1263.5 0,290.5 87.2,574.3 250.3,814.8 -123.6,173.6 -190.1,381.5 -190.1,594.7 0,283 117,553.6 323.3,747.4 -42.2,114.1 -63.8,234.7 -63.8,356.2 0,431 269.4,816 674.3,963.6 -25.5,108.6 -38.4,219.8 -38.4,331.3 0,801.9 650.1,1452 1452,1452 74.7,0 149.3,-5.8 223,-17.3 208.6,446.1 656.1,731.5 1148.6,732.5 z"
         style="fill:#ffb5c0;fill-opacity:1;fill-rule:nonzero;stroke:none"
         id="path66" /><path
         d="m 16082.7,17710 -0.7,-9711.09 c 251.8,25.82 481.9,124.88 668.4,275.93 l 0.7,8914.46 c -155.3,242.1 -390.5,428.1 -668.5,520.7 z"
         style="fill:#f24e8a;fill-opacity:1;fill-rule:nonzero;stroke:none"
         id="path68" /><path
         d="m 16751.2,17189.3 c 225.8,352.1 620.7,585.5 1070.2,585.5 h 2.4 c 492.4,-1 939.9,-286.4 1148.5,-732.5 73.8,11.5 148.4,17.3 223,17.3 801.9,0 1452,-650.1 1452,-1452 0,-111.5 -12.9,-222.7 -38.4,-331.3 405,-147.6 674.4,-532.6 674.4,-963.6 0,-121.5 -21.7,-242.1 -63.9,-356.2 206.3,-193.8 323.3,-464.4 323.3,-747.4 0,-213.2 -66.4,-421.1 -190,-594.8 163,-240.4 250.2,-524.2 250.2,-814.8 0,-523.1 -281.4,-1005.7 -736.6,-1263.4 7.1,-48.6 10.6,-97.6 10.6,-146.7 0,-566.43 -459.2,-1025.57 -1025.5,-1025.57 h -6.7 c -100.6,-473.75 -518.9,-812.54 -1003.2,-812.54 -74.6,0 -148.9,8.12 -221.7,24.26 -233.8,-363.71 -636.5,-583.56 -1068.8,-583.56 -302.8,0 -581,105.98 -799.2,282.85"
         style="fill:#ff7ba2;fill-opacity:1;fill-rule:nonzero;stroke:none"
         id="path70" /><path
         d="m 17821.4,17774.8 c -449.5,0 -844.4,-233.4 -1070.2,-585.5 v -558 c 185,306.5 508.4,509.6 876.4,509.5 h 1.9 c 403.3,-0.7 769.8,-249.2 940.7,-637.4 60.4,9.9 121.4,14.9 182.6,14.9 656.8,0 1189.2,-565.8 1189.2,-1263.7 0,-97.1 -10.6,-193.9 -31.4,-288.4 331.6,-128.5 552.3,-463.6 552.3,-838.7 0,-105.8 -17.8,-210.8 -52.4,-310.1 169,-168.7 264.9,-404.2 264.9,-650.5 0,-185.6 -54.5,-366.5 -155.7,-517.7 133.5,-209.3 204.9,-456.3 204.9,-709.2 0,-455.3 -230.4,-875.4 -603.2,-1099.7 5.8,-42.3 8.6,-85 8.6,-127.7 0,-493 -376,-892.64 -839.9,-892.64 h -5.5 c -82.4,-412.34 -424.9,-707.23 -821.5,-707.23 -61.2,0 -122,7.11 -181.7,21.14 -191.4,-316.57 -521.2,-507.93 -875.3,-507.93 -248,0 -475.7,92.18 -654.5,246.05 v -597.15 c 218.4,-176.87 496.5,-282.85 799.3,-282.85 432.3,0 835,219.88 1068.8,583.56 72.8,-16.1 147.1,-24.26 221.7,-24.26 484.3,0 902.6,338.83 1003.2,812.54 h 6.7 c 566.4,0 1025.5,459.18 1025.5,1025.57 0,49.1 -3.5,98.1 -10.5,146.7 455.1,257.7 736.5,740.3 736.5,1263.5 0,290.5 -87.2,574.3 -250.2,814.8 123.6,173.6 190,381.5 190,594.7 0,283 -117,553.6 -323.3,747.4 42.3,114.1 63.9,234.7 63.9,356.2 0,431 -269.4,816 -674.3,963.6 25.4,108.6 38.3,219.8 38.3,331.3 0,801.9 -650,1452 -1452,1452 -74.6,0 -149.2,-5.8 -223,-17.3 -208.6,446.1 -656.1,731.5 -1148.5,732.5 z"
         style="fill:#f24e8a;fill-opacity:1;fill-rule:nonzero;stroke:none"
         id="path72" /><path
         d="m 17419.5,17710 0.7,-9711.09 c -251.8,25.82 -481.9,124.88 -668.3,275.93 l -0.7,8914.46 c 155.3,242.1 390.5,428.1 668.4,520.7 z"
         style="fill:#ffa5bd;fill-opacity:1;fill-rule:nonzero;stroke:none"
         id="path74" /><path
         d="m 13416.8,13355.9 c -189.5,8 -381.4,-18.6 -566.1,-81.3 -492.5,-167.2 -869.3,-569.5 -1003.9,-1071.9 l 204.3,-54.7 c 116.4,434.4 441.7,781.8 867.6,926.3 425.9,144.6 895.5,67.1 1252.3,-206.7 l 128.7,167.8 c -257.9,197.8 -567,307.1 -882.9,320.5 z"
         style="fill:#d52073;fill-opacity:1;fill-rule:nonzero;stroke:none"
         id="path76" /><path
         d="m 15390.6,9016.87 c -253.8,-330.66 -696.7,-449.37 -1081.8,-289.84 l -80.9,-195.35 c 472.6,-195.74 1019.1,-49.34 1330.5,356.48 z"
         style="fill:#d52073;fill-opacity:1;fill-rule:nonzero;stroke:none"
         id="path78" /><path
         d="m 16645.5,17189.3 0.6,-8914.5 h 211.5 l -0.7,8914.5 z"
         style="fill:#d52073;fill-opacity:1;fill-rule:nonzero;stroke:none"
         id="path80" /><path
         d="m 16175.4,10616.4 c -84.5,-1 -169.7,-15.2 -252.7,-43.3 -331.8,-112.7 -555.6,-425 -555.6,-775.37 h 211.5 c 0,260.57 165.3,491.37 412.1,575.17 246.8,83.7 518.5,1.3 677.1,-205.5 l 167.8,128.8 c -160,208.5 -406.8,323.3 -660.2,320.2 z"
         style="fill:#d52073;fill-opacity:1;fill-rule:nonzero;stroke:none"
         id="path82" /><path
         d="m 18992,17152 27.6,-209.7 c -415,-54.6 -780.9,-299 -990.2,-661.6 l -183.1,105.7 c 242.1,419.3 665.6,702.4 1145.7,765.6 z"
         style="fill:#d52073;fill-opacity:1;fill-rule:nonzero;stroke:none"
         id="path84" /><path
         d="m 18841.4,10708.1 c 511.6,0 960.4,-344.4 1092.8,-838.45 132.4,-494.1 -84.1,-1016.76 -527.1,-1272.5 l -105.7,183.08 c 360.9,208.4 536.4,632.04 428.5,1034.65 -107.9,402.62 -471.6,681.72 -888.5,681.72 z"
         style="fill:#d52073;fill-opacity:1;fill-rule:nonzero;stroke:none"
         id="path86" /><path
         d="m 19177,14259.6 c -556.3,0 -1058.6,-335.5 -1271.5,-849.6 l 195.4,-80.9 c 180.4,435.6 604.7,719.1 1076.1,719.1 471.4,0 895.7,-283.5 1076.2,-719.1 l 195.3,80.9 c -212.9,514.1 -715.1,849.6 -1271.5,849.6 z"
         style="fill:#d52073;fill-opacity:1;fill-rule:nonzero;stroke:none"
         id="path88" /><path
         d="m 17454.2,12466.1 c -84.5,-1.1 -169.7,-15.2 -252.6,-43.4 -331.8,-112.6 -555.7,-424.9 -555.7,-775.3 h 211.5 c 0,260.6 165.3,491.4 412.1,575.1 246.8,83.8 518.5,1.3 677.1,-205.4 l 167.8,128.7 c -160,208.5 -406.8,323.4 -660.2,320.3 z"
         style="fill:#d52073;fill-opacity:1;fill-rule:nonzero;stroke:none"
         id="path90" /><path
         d="m 16048.9,15938.2 c 84.5,-1.1 169.7,-15.3 252.6,-43.4 331.8,-112.7 555.6,-425 555.6,-775.4 h -211.4 c 0,260.6 -165.4,491.4 -412.1,575.1 -246.8,83.8 -518.5,1.4 -677.2,-205.4 l -167.7,128.8 c 160,208.5 406.8,323.4 660.2,320.3 z"
         style="fill:#d52073;fill-opacity:1;fill-rule:nonzero;stroke:none"
         id="path92" /><path
         d="m 13218.1,11434.5 c -373.3,-154.6 -636,-496.9 -688.7,-897.5 -52.8,-400.5 112.4,-799.19 432.9,-1045.13 l 128.7,167.74 c -260.8,200.16 -394.9,523.89 -352,849.79 42.9,326 256.2,603.9 560,729.8 z"
         style="fill:#d52073;fill-opacity:1;fill-rule:nonzero;stroke:none"
         id="path94" /><path
         d="m 15678.4,17880.5 c -507.9,-1 -969.5,-283.8 -1207.5,-727.8 -54.6,5.7 -109,12.6 -163.9,12.6 -859,0 -1557.7,-698.7 -1557.7,-1557.7 0,-90.5 10.5,-180.2 26.1,-269.2 -399.5,-182.8 -662.1,-580.9 -662.1,-1025.6 0,-111 20.3,-220.1 52.3,-326 -198.9,-209.6 -311.7,-487.3 -311.7,-777.7 0,-211.6 62.2,-417 173.5,-595.9 -150.5,-244.9 -233.6,-525.4 -233.7,-813.6 0,-537.9 279.6,-1033.8 732.7,-1317.7 -2.6,-30.8 -6.7,-61.5 -6.7,-92.5 0,-599.13 469.2,-1090.03 1059,-1127.6 139.6,-478.75 576.9,-816.21 1082.2,-816.21 58.7,0 117.1,6.17 175.1,15.27 257.6,-358.28 671.2,-574.61 1115.3,-574.61 298.8,0 573.7,99.1 799.9,261.17 226.2,-162.07 501.1,-261.09 799.8,-261.13 0,0 0,0 0,0 444.2,0.04 857.8,216.29 1115.4,574.57 57.9,-9.1 116.3,-15.27 175.1,-15.27 505.2,0 942.5,337.42 1082.1,816.21 589.8,37.57 1059,528.43 1059,1127.6 0,31 -4.1,61.7 -6.6,92.5 453.1,283.8 732.6,779.8 732.6,1317.7 0,288.2 -83.2,568.7 -233.7,813.6 111.3,178.9 173.5,384.3 173.5,595.9 0,290.4 -112.8,568 -311.6,777.6 32,106 52.2,215.1 52.2,326.1 0,444.7 -262.6,842.7 -662,1025.6 15.6,88.9 26,178.8 26,269.3 0,859 -698.6,1557.6 -1557.6,1557.6 -54.9,0 -109.4,-6.9 -163.9,-12.6 -238.1,444.1 -699.7,726.8 -1207.6,727.8 h -2.5 c -432.1,0 -817.8,-200.3 -1070.2,-512.5 -252.4,312.2 -638.2,512.5 -1070.3,512.5 z m 2143,-211.4 h 2.4 c 451.6,-1 861.4,-262.4 1052.7,-671.5 l 33.6,-71.9 78.4,12.2 c 68.4,10.6 137.6,16 206.9,16 744.7,0 1346.1,-601.5 1346.2,-1346.2 0,-103.5 -11.9,-206.6 -35.5,-307.3 l -21.5,-91.3 88.1,-32.2 c 363.6,-132.5 604.9,-477.3 604.9,-864.1 0,-109.1 -19.4,-217.2 -57.3,-319.5 l -24.4,-65.8 51.1,-48.1 c 185.1,-173.8 290,-416.3 290,-670.3 0,-191.2 -59.6,-377.7 -170.5,-533.4 l -42.6,-59.9 41.3,-60.8 c 151.2,-222.9 232,-486.1 232,-755.4 0,-485.2 -260.8,-932.5 -683,-1171.5 l -62.9,-35.6 10.4,-71.6 c 6.3,-43.6 9.5,-87.5 9.5,-131.5 0,-509.24 -410.6,-919.83 -919.8,-919.83 h -92.4 l -17.7,-83.75 c -90.4,-425.51 -464.8,-728.79 -899.8,-728.79 -66.9,0 -133.6,7.27 -198.9,21.72 l -71.9,15.98 -39.9,-62 c -214.4,-333.51 -583.3,-534.96 -979.8,-535 v 0 c -278.2,0 -532.5,97.04 -733.4,259.34 l -66.4,53.71 -66.5,-53.71 c -200.9,-162.3 -455.2,-259.34 -733.4,-259.34 -396.5,0 -765.4,201.45 -979.8,535 l -39.8,62 -72,-15.98 c -65.3,-14.45 -132,-21.72 -198.8,-21.72 -435,0 -809.5,303.28 -899.8,728.79 l -17.8,83.75 h -92.3 c -509.2,0 -919.8,410.59 -919.8,919.83 0,44 3.1,87.9 9.4,131.5 l 10.4,71.5 -62.9,35.7 c -422.2,239 -682.9,686.3 -682.9,1171.5 0,269.3 80.8,532.5 232,755.4 l 41.2,60.8 -42.6,59.9 c -110.9,155.7 -170.5,342.2 -170.5,533.4 0,254 104.9,496.5 290,670.3 l 51.1,48.1 -24.3,65.8 c -37.9,102.3 -57.3,210.4 -57.3,319.5 0,386.8 241.3,731.6 604.8,864.1 l 88.1,32.2 -21.4,91.3 c -23.6,100.7 -35.6,203.8 -35.6,307.2 0.1,744.7 601.6,1346.3 1346.3,1346.3 69.3,0 138.4,-5.4 206.8,-16 l 78.4,-12.2 33.7,71.9 c 191.2,409.1 601,670.5 1052.7,671.4 h 2.3 c 412.9,0 774.2,-213.9 981.3,-536.8 l 89,-138.7 89,138.7 c 207,322.9 568.4,536.9 981.2,536.9 z"
         style="fill:#1a1a1a;fill-opacity:1;fill-rule:nonzero;stroke:none"
         id="path96" /><path
         d="m 19671.2,11503.6 c 0,-79 -31.4,-154.8 -87.2,-210.6 -55.8,-55.8 -131.6,-87.2 -210.6,-87.2 -79,0 -154.7,31.4 -210.5,87.2 -55.9,55.8 -87.2,131.6 -87.2,210.6 0,164.4 133.3,297.7 297.7,297.7 164.5,0 297.8,-133.3 297.8,-297.7 z"
         style="fill:#f24e8a;fill-opacity:1;fill-rule:nonzero;stroke:none"
         id="path98" /><path
         d="m 18468.4,11319.3 c 0,-89.8 -72.7,-162.6 -162.5,-162.6 -89.8,0 -162.6,72.8 -162.6,162.6 0,43.1 17.1,84.5 47.6,115 30.5,30.4 71.8,47.6 115,47.6 43.1,0 84.4,-17.2 114.9,-47.6 30.5,-30.5 47.6,-71.9 47.6,-115 z"
         style="fill:#f24e8a;fill-opacity:1;fill-rule:nonzero;stroke:none"
         id="path100" /><path
         d="m 19844.9,12858.3 c 0,-43.1 -17.1,-84.4 -47.6,-114.9 -30.5,-30.5 -71.9,-47.7 -115,-47.7 -43.1,0 -84.4,17.2 -115,47.7 -30.4,30.5 -47.6,71.8 -47.6,114.9 0,89.8 72.8,162.6 162.6,162.6 89.8,0 162.6,-72.8 162.6,-162.6 z"
         style="fill:#f24e8a;fill-opacity:1;fill-rule:nonzero;stroke:none"
         id="path102" /><path
         d="m 14551.7,14348.2 c 0,-79 -31.4,-154.8 -87.3,-210.6 -55.8,-55.8 -131.5,-87.2 -210.5,-87.2 -79,0 -154.7,31.4 -210.5,87.2 -55.9,55.8 -87.3,131.6 -87.3,210.6 0,164.4 133.3,297.7 297.8,297.7 164.5,0 297.8,-133.3 297.8,-297.7 z"
         style="fill:#ffb5c0;fill-opacity:1;fill-rule:nonzero;stroke:none"
         id="path104" /><path
         d="m 14963.4,10504.8 c 0,-89.7 -72.8,-162.5 -162.6,-162.5 -89.8,0 -162.6,72.8 -162.6,162.5 0,43.2 17.2,84.5 47.6,115 30.5,30.5 71.9,47.6 115,47.6 43.1,0 84.4,-17.1 114.9,-47.6 30.5,-30.5 47.7,-71.8 47.7,-115 z"
         style="fill:#ffb5c0;fill-opacity:1;fill-rule:nonzero;stroke:none"
         id="path106" /><path
         d="m 13702.2,12578.9 c 0,-43.1 -17.2,-84.5 -47.6,-115 -30.5,-30.4 -71.9,-47.6 -115,-47.6 -43.1,0 -84.5,17.2 -115,47.6 -30.5,30.5 -47.6,71.9 -47.6,115 0,89.8 72.8,162.6 162.6,162.6 89.8,0 162.6,-72.8 162.6,-162.6 z"
         style="fill:#ffb5c0;fill-opacity:1;fill-rule:nonzero;stroke:none"
         id="path108" /><path
         d="m 18320.9,11105.3 c -229.5,0 -415.6,-186.1 -415.6,-415.7 0,-110.2 43.8,-216 121.7,-293.9 78,-78 183.7,-121.8 293.9,-121.8 110.3,0 216,43.8 294,121.8 78,77.9 121.7,183.7 121.7,293.9 0,229.6 -186.1,415.7 -415.7,415.7 z"
         style="fill:#ff5574;fill-opacity:1;fill-rule:nonzero;stroke:none"
         id="path110" /><path
         d="m 18320.9,11175.7 c -267.7,0 -486.1,-218.4 -486.1,-486 0,-17 0.9,-33.7 2.6,-50.3 h 142.4 c -2.4,16.5 -4,33.2 -4,50.3 0,191.4 153.6,345.1 345.1,345.1 191.5,0 345.3,-153.7 345.3,-345.1 0,-17.1 -1.7,-33.8 -4,-50.3 h 142.3 c 1.8,16.6 2.7,33.3 2.7,50.3 0,267.6 -218.6,486 -486.3,486 z"
         style="fill:#1a1a1a;fill-opacity:1;fill-rule:nonzero;stroke:none"
         id="path112" /><path
         d="m 17837.4,10739.7 c -1.7,-16.5 -2.6,-33.1 -2.6,-50 0,-267.7 218.4,-486.3 486.1,-486.3 267.7,0 486.3,218.6 486.3,486.3 0,16.9 -0.9,33.5 -2.7,50 h -142.3 c 2.3,-16.4 4,-33 4,-50 0,-191.5 -153.8,-345.3 -345.3,-345.3 -191.5,0 -345.1,153.8 -345.1,345.3 0,17 1.6,33.6 4,50 z"
         style="fill:#1a1a1a;fill-opacity:1;fill-rule:nonzero;stroke:none"
         id="path114" /><path
         d="m 15253,14817.3 c 402.3,0 726.2,-323.9 726.2,-726.2 v -363.9 c 0,-402.3 -323.9,-726.1 -726.2,-726.1 -402.3,0 -726.1,323.8 -726.1,726.1 v 363.9 c 0,402.3 323.8,726.2 726.1,726.2 z"
         style="fill:#1a1a1a;fill-opacity:1;fill-rule:nonzero;stroke:none"
         id="path116" /><path
         d="m 15441.3,14531 c -129.5,0 -234.4,-104.9 -234.4,-234.4 0,-62.2 24.7,-121.8 68.7,-165.7 43.9,-44 103.5,-68.7 165.7,-68.7 62.1,0 121.8,24.7 165.7,68.7 44,43.9 68.7,103.5 68.7,165.7 0,129.5 -105,234.4 -234.4,234.4 z"
         style="fill:#ffffff;fill-opacity:1;fill-rule:nonzero;stroke:none"
         id="path118" /><path
         d="m 18249.3,14817.3 c 402.3,0 726.2,-323.9 726.2,-726.2 v -363.9 c 0,-402.3 -323.9,-726.1 -726.2,-726.1 -402.3,0 -726.1,323.8 -726.1,726.1 v 363.9 c 0,402.3 323.8,726.2 726.1,726.2 z"
         style="fill:#1a1a1a;fill-opacity:1;fill-rule:nonzero;stroke:none"
         id="path120" /><path
         d="m 18437.6,14531 c -129.5,0 -234.4,-104.9 -234.4,-234.4 0,-62.2 24.7,-121.8 68.6,-165.7 44,-44 103.6,-68.7 165.8,-68.7 62.1,0 121.8,24.7 165.7,68.7 44,43.9 68.7,103.5 68.7,165.7 0,62.2 -24.7,121.8 -68.7,165.8 -44,43.9 -103.6,68.6 -165.7,68.6 z"
         style="fill:#ffffff;fill-opacity:1;fill-rule:nonzero;stroke:none"
         id="path122" /><path
         d="m 16176.8,19204.8 v -558 c 536,-35 1052.5,-41.6 1599.5,-81.8 683.3,-50.3 1090.9,-248.9 1331.6,-491.5 240.7,-242.6 334.1,-544.5 334.1,-872.7 0,-575 -306.6,-960.9 -841.2,-1221.5 -534.6,-260.6 -1294.5,-352.9 -2074.9,-233 -116.4,17.8 -233,40.3 -349.1,67.3 v -576.9 c 87.9,-18.3 175.8,-34.2 263.5,-47.7 875.1,-134.4 1735.6,-44.2 2407.6,283.4 672,327.6 1158,935.6 1158,1728.4 0,442.1 -140,909.2 -497.8,1269.8 -357.8,360.7 -913.6,599.5 -1690.5,656.7 -587.4,43.2 -1111.3,45.6 -1640.8,77.5 z"
         style="fill:#1a1a1a;fill-opacity:1;fill-rule:nonzero;stroke:none"
         id="path124" /><path
         d="m 14152.3,19543.5 184.2,-496.9 45.3,-121.9 c -729.5,78.5 -1466.4,319.1 -1466.4,319.1 l -432.8,151.9 59.9,-454.6 c 293.1,-2226.8 2088,-3443.3 3812.3,-3738.2 v 573 c -1381.2,264.7 -2743.2,1166.6 -3153.7,2797.6 400.3,-115 962,-250.6 1600.2,-247.1 l 402.9,2.2 -166.4,448.6 c 464.7,-81.3 895.3,-117.9 1317,-141.2 v 559 c -539.9,26.7 -1077.9,75.9 -1687.7,223.6 z"
         style="fill:#1a1a1a;fill-opacity:1;fill-rule:nonzero;stroke:none"
         id="path126" /><path
         d="m 14600.8,19144.6 199,-536.4 c -911,-5 -1977.8,369.6 -1977.8,369.6 560.3,-4255.5 6902,-4512.6 6902,-1777 0,770.3 -466.9,1537.9 -1927.1,1645.4 -1097.9,80.7 -2013.2,11.9 -3196.1,298.4 z"
         style="fill:#595959;fill-opacity:1;fill-rule:nonzero;stroke:none"
         id="path128" /><path
         d="m 14600.9,19144.6 198.9,-536.4 c -911,-5 -1977.8,369.6 -1977.8,369.6 1479.1,-1927.6 5829.5,-2170.3 6600,-835.8 -284.6,367.8 -793.8,643 -1625.1,704.2 -1097.9,80.7 -2013.2,11.9 -3196,298.4 z"
         style="fill:#797979;fill-opacity:1;fill-rule:nonzero;stroke:none"
         id="path130" /><path
         d="m 12822,18977.8 c 560.3,-4255.5 6902,-4512.6 6902,-1777 0,125.9 -12.7,251.7 -40,374.6 -1014.4,-2448.9 -6119,-1370.5 -6862,1402.4 z"
         style="fill:#3e3e3e;fill-opacity:1;fill-rule:nonzero;stroke:none"
         id="path132" /><path
         d="m 16176.8,18992.3 v -137.6 c 533.8,-33.4 1052.6,-37.5 1614.9,-78.9 718.4,-52.8 1181.7,-266.5 1466.3,-553.4 284.6,-286.8 395.5,-650.7 395.5,-1021.6 0,-656.7 -374,-1125.7 -960.1,-1411.5 -586.1,-285.7 -1383.7,-377.3 -2199.6,-252 -105.6,16.2 -211.4,36.1 -317,59.5 v -144.2 c 98.6,-21.2 197.2,-39.5 295.5,-54.6 839.6,-129 1662.5,-37.9 2282.9,264.6 620.5,302.4 1039.3,827.1 1039.3,1538.2 0,399.4 -122.5,804.5 -436.4,1120.9 -313.9,316.4 -814.3,540.1 -1556,594.7 -572.9,42.2 -1093.4,44.2 -1625.3,75.9 z"
         style="fill:#1a1a1a;fill-opacity:1;fill-rule:nonzero;stroke:none"
         id="path134" /><path
         d="m 14488.6,19244.3 46.2,-124.2 160.4,-432.9 c -868.1,21.8 -1849.9,357.1 -1849.9,357.1 l -108.2,38 15,-113.7 c 278,-2111.3 1960,-3258.4 3602.7,-3551 v 143.1 c -1558.5,285.6 -3133.1,1354.2 -3443.7,3318 160.7,-54.6 1038.7,-345.6 1889.1,-340.9 l 100.7,0.7 -190.7,514.3 c 593.4,-133.1 1123.1,-181.3 1644.6,-208.4 v 138.3 c -550.4,26.9 -1105.5,77.3 -1737.3,230.4 z"
         style="fill:#1a1a1a;fill-opacity:1;fill-rule:nonzero;stroke:none"
         id="path136" /><path
         d="m 26061.6,21951.3 c -978.1,0 -1916.1,-388.5 -2607.7,-1080.1 -691.6,-691.7 -1080.2,-1629.7 -1080.2,-2607.8 0,-978 388.6,-1916.1 1080.2,-2607.7 691.6,-691.6 1629.6,-1080.1 2607.7,-1080.1 978.1,0 1916.1,388.5 2607.7,1080.1 691.6,691.6 1080.2,1629.7 1080.2,2607.7 0,978.1 -388.6,1916.1 -1080.2,2607.8 -691.6,691.6 -1629.6,1080.1 -2607.7,1080.1 z"
         style="fill:#1a1a1a;fill-opacity:1;fill-rule:nonzero;stroke:none"
         id="path138" /><path
         d="m 25468.6,17587.3 h 1063 v 390.5 c 715.9,173.6 1222.2,752.1 1222.2,1402.9 0,846.1 -679.8,1453.5 -1663.3,1453.5 -708.7,0 -1301.6,-311 -1721,-759.3 l 686.9,-708.7 c 209.7,209.7 513.5,361.6 810,361.6 376,0 636.3,-202.5 636.3,-462.8 0,-303.7 -426.6,-527.9 -1034.1,-542.3 z"
         style="fill:#ffffff;fill-opacity:1;fill-rule:nonzero;stroke:none"
         id="path140" /><path
         d="m 26003.8,15692.7 c 397.7,0 730.3,339.9 730.3,759.3 0,390.5 -332.6,730.3 -730.3,730.3 -433.9,0 -766.6,-339.8 -766.6,-730.3 0,-419.4 332.7,-759.3 766.6,-759.3 z"
         style="fill:#ffffff;fill-opacity:1;fill-rule:nonzero;stroke:none"
         id="path142" /><path
         d="m 8588.91,16721.7 c -491.41,0 -962.66,-195.2 -1310.12,-542.6 -347.42,-347.5 -542.62,-818.7 -542.62,-1310.1 0,-491.4 195.2,-962.6 542.66,-1310.1 347.46,-347.4 818.71,-542.6 1310.08,-542.6 1023.2,0 1852.69,829.5 1852.69,1852.7 0,491.4 -195.2,962.6 -542.65,1310.1 -347.47,347.4 -818.68,542.6 -1310.04,542.6 z"
         style="fill:#1a1a1a;fill-opacity:1;fill-rule:nonzero;stroke:none"
         id="path144" /><path
         d="M 8290.98,14529.3 H 8825 v 196.2 c 359.69,87.2 613.98,377.8 613.98,704.8 0,425.1 -341.48,730.2 -835.58,730.2 -356.02,0 -653.91,-156.2 -864.61,-381.5 l 345.12,-356 c 105.35,105.4 257.93,181.6 406.87,181.6 188.91,0 319.69,-101.7 319.69,-232.5 0,-152.5 -214.34,-265.2 -519.49,-272.4 z"
         style="fill:#ffffff;fill-opacity:1;fill-rule:nonzero;stroke:none"
         id="path146" /><path
         d="m 8559.8,13577.5 c 199.81,0 366.92,170.7 366.92,381.4 0,196.3 -167.11,367 -366.92,367 -217.96,0 -385.07,-170.7 -385.07,-367 0,-210.7 167.11,-381.4 385.07,-381.4 z"
         style="fill:#ffffff;fill-opacity:1;fill-rule:nonzero;stroke:none"
         id="path148" /></g></g></svg>
