<?xml version="1.0" encoding="utf-8"?><svg xmlns="http://www.w3.org/2000/svg" xmlns:xlink="http://www.w3.org/1999/xlink" width="1920" height="1084" preserveAspectRatio="xMidYMid" viewBox="0 0 1920 1084" style="z-index:1;margin-right:-2px;display:block;background-repeat-y:initial;background-repeat-x:initial;background-color:rgb(241, 242, 243);animation-play-state:paused" ><g transform="translate(960,542) scale(1,1) translate(-960,-542)" style="transform:matrix(1, 0, 0, 1, 0, 0);animation-play-state:paused" ><defs style="animation-play-state:paused" ><linearGradient id="ldbk-photon-04gwae0bjuzh-lg" x1="0" x2="898" y1="0" y2="0" gradientUnits="userSpaceOnUse" style="animation-play-state:paused" ><stop stop-color="#1d3f72" offset="0" style="animation-play-state:paused" ></stop>

    
<stop stop-color="#5699d2" offset="1" style="animation-play-state:paused" ></stop></linearGradient>

  
<mask id="ldbk-photon-04gwae0bjuzh-mask" style="animation-play-state:paused" ><g style="animation-play-state:paused" ><path d="M-300 -0.5 L820.2405339835027 -0.5 A16.5 16.5 0 0 1 820.2405339835027 33.5 L-300 33.5" fill="#fff" transform="matrix(1,0,0,1,0,0)" style="transform:matrix(1, 0, 0, 1, 0, 0);animation-play-state:paused" ></path>
<path d="M756.8401248110144 -0.5 L787.2405339835027 -0.5 A16.5 16.5 0 0 1 787.2405339835027 33.5 L756.8401248110144 33.5 A16.5 16.5 0 0 1 756.8401248110144 -0.5" fill="#fff" transform="matrix(1,0,0,1,0,0)" opacity="1" style="transform:matrix(1, 0, 0, 1, 0, 0);animation-play-state:paused" ></path>
<path d="M-300 32.5 L717.3417840187694 32.5 A16.5 16.5 0 0 0 717.3417840187694 66.5 L-300 66.5" fill="#fff" transform="matrix(1,0,0,1,-30.331436157226562,0)" style="transform:matrix(1, 0, 0, 1, -30.3314, 0);animation-play-state:paused" ></path>
<path d="M-43.57060502563961 32.5 L-33 32.5 A16.5 16.5 0 0 1 -33 66.5 L-43.57060502563961 66.5 A16.5 16.5 0 0 1 -43.57060502563961 32.5" fill="#000" transform="matrix(1,0,0,1,0,0)" opacity="1" style="transform:matrix(1, 0, 0, 1, 0, 0);animation-play-state:paused" ></path>
<path d="M-300 65.5 L836.3557814539472 65.5 A16.5 16.5 0 0 1 836.3557814539472 99.5 L-300 99.5" fill="#fff" transform="matrix(1,0,0,1,85.7894058227539,0)" style="transform:matrix(1, 0, 0, 1, 85.7894, 0);animation-play-state:paused" ></path>
<path d="M766.8766932646449 65.5 L803.3557814539472 65.5 A16.5 16.5 0 0 1 803.3557814539472 99.5 L766.8766932646449 99.5 A16.5 16.5 0 0 1 766.8766932646449 65.5" fill="#fff" transform="matrix(1,0,0,1,930.5921020507812,0)" opacity="0.649351" style="transform:matrix(1, 0, 0, 1, 930.592, 0);opacity:0.649351;animation-play-state:paused" ></path>
<path d="M-300 98.5 L771.601196053856 98.5 A16.5 16.5 0 0 0 771.601196053856 132.5 L-300 132.5" fill="#fff" transform="matrix(1,0,0,1,-50.412330627441406,0)" style="transform:matrix(1, 0, 0, 1, -50.4123, 0);animation-play-state:paused" ></path>
<path d="M-71.84461557395844 98.5 L-33.00000000000001 98.5 A16.5 16.5 0 0 1 -33.00000000000001 132.5 L-71.84461557395844 132.5 A16.5 16.5 0 0 1 -71.84461557395844 98.5" fill="#000" transform="matrix(1,0,0,1,0,0)" opacity="1" style="transform:matrix(1, 0, 0, 1, 0, 0);animation-play-state:paused" ></path>
<path d="M-300 131.5 L884.5696276816616 131.5 A16.5 16.5 0 0 1 884.5696276816616 165.5 L-300 165.5" fill="#fff" transform="matrix(1,0,0,1,4.4922776222229,0)" style="transform:matrix(1, 0, 0, 1, 4.49228, 0);animation-play-state:paused" ></path>
<path d="M823.3379238281132 131.5 L851.5696276816616 131.5 A16.5 16.5 0 0 1 851.5696276816616 165.5 L823.3379238281132 165.5 A16.5 16.5 0 0 1 823.3379238281132 131.5" fill="#fff" transform="matrix(1,0,0,1,147.9640350341797,0)" opacity="1" style="transform:matrix(1, 0, 0, 1, 147.964, 0);animation-play-state:paused" ></path>
<path d="M-300 164.5 L752.2996079583211 164.5 A16.5 16.5 0 0 0 752.2996079583211 198.5 L-300 198.5" fill="#fff" transform="matrix(1,0,0,1,-6.058815002441406,0)" style="transform:matrix(1, 0, 0, 1, -6.05882, 0);animation-play-state:paused" ></path>
<path d="M-53.6490959855271 164.5 L-33 164.5 A16.5 16.5 0 0 1 -33 198.5 L-53.6490959855271 198.5 A16.5 16.5 0 0 1 -53.6490959855271 164.5" fill="#000" transform="matrix(1,0,0,1,0,0)" opacity="0.779221" style="transform:matrix(1, 0, 0, 1, 0, 0);opacity:0.779221;animation-play-state:paused" ></path>
<path d="M-300 197.5 L874.5965166715594 197.5 A16.5 16.5 0 0 1 874.5965166715594 231.5 L-300 231.5" fill="#fff" transform="matrix(1,0,0,1,84.10860443115234,0)" style="transform:matrix(1, 0, 0, 1, 84.1086, 0);animation-play-state:paused" ></path>
<path d="M819.089742544382 197.5 L841.5965166715594 197.5 A16.5 16.5 0 0 1 841.5965166715594 231.5 L819.089742544382 231.5 A16.5 16.5 0 0 1 819.089742544382 197.5" fill="#fff" transform="matrix(1,0,0,1,139.0876007080078,0)" opacity="1" style="transform:matrix(1, 0, 0, 1, 139.088, 0);animation-play-state:paused" ></path>
<path d="M-300 230.5 L790.4482815945089 230.5 A16.5 16.5 0 0 0 790.4482815945089 264.5 L-300 264.5" fill="#fff" transform="matrix(1,0,0,1,-65.25148010253906,0)" style="transform:matrix(1, 0, 0, 1, -65.2515, 0);animation-play-state:paused" ></path>
<path d="M-47.741193223856435 230.5 L-33 230.5 A16.5 16.5 0 0 1 -33 264.5 L-47.741193223856435 264.5 A16.5 16.5 0 0 1 -47.741193223856435 230.5" fill="#000" transform="matrix(1,0,0,1,0,0)" opacity="0.519481" style="transform:matrix(1, 0, 0, 1, 0, 0);opacity:0.519481;animation-play-state:paused" ></path>
<path d="M-300 263.5 L952.4850267851889 263.5 A16.5 16.5 0 0 1 952.4850267851889 297.5 L-300 297.5" fill="#fff" transform="matrix(1,0,0,1,24.71881866455078,0)" style="transform:matrix(1, 0, 0, 1, 24.7188, 0);animation-play-state:paused" ></path>
<path d="M901.8578957549925 263.5 L919.4850267851889 263.5 A16.5 16.5 0 0 1 919.4850267851889 297.5 L901.8578957549925 297.5 A16.5 16.5 0 0 1 901.8578957549925 263.5" fill="#fff" transform="matrix(1,0,0,1,320.3914794921875,0)" opacity="1" style="transform:matrix(1, 0, 0, 1, 320.391, 0);animation-play-state:paused" ></path>
<path d="M-300 296.5 L753.6207143367716 296.5 A16.5 16.5 0 0 0 753.6207143367716 330.5 L-300 330.5" fill="#fff" transform="matrix(1,0,0,1,-23.116546630859375,0)" style="transform:matrix(1, 0, 0, 1, -23.1165, 0);animation-play-state:paused" ></path>
<path d="M-43.82266541773481 296.5 L-33 296.5 A16.5 16.5 0 0 1 -33 330.5 L-43.82266541773481 330.5 A16.5 16.5 0 0 1 -43.82266541773481 296.5" fill="#000" transform="matrix(1,0,0,1,0,0)" opacity="0.779221" style="transform:matrix(1, 0, 0, 1, 0, 0);opacity:0.779221;animation-play-state:paused" ></path>
<path d="M-300 329.5 L817.9974396337465 329.5 A16.5 16.5 0 0 1 817.9974396337465 363.5 L-300 363.5" fill="#fff" transform="matrix(1,0,0,1,53.14310836791992,0)" style="transform:matrix(1, 0, 0, 1, 53.1431, 0);animation-play-state:paused" ></path>
<path d="M745.4837415658208 329.5 L784.9974396337465 329.5 A16.5 16.5 0 0 1 784.9974396337465 363.5 L745.4837415658208 363.5 A16.5 16.5 0 0 1 745.4837415658208 329.5" fill="#fff" transform="matrix(1,0,0,1,1331.243408203125,0)" opacity="0.25974" style="transform:matrix(1, 0, 0, 1, 1331.24, 0);opacity:0.25974;animation-play-state:paused" ></path>
<path d="M-300 362.5 L711.5822104323001 362.5 A16.5 16.5 0 0 0 711.5822104323001 396.5 L-300 396.5" fill="#fff" transform="matrix(1,0,0,1,0,0)" style="transform:matrix(1, 0, 0, 1, 0, 0);animation-play-state:paused" ></path>
<path d="M-62.58279754491244 362.5 L-33 362.5 A16.5 16.5 0 0 1 -33 396.5 L-62.58279754491244 396.5 A16.5 16.5 0 0 1 -62.58279754491244 362.5" fill="#000" transform="matrix(1,0,0,1,0,0)" opacity="1" style="transform:matrix(1, 0, 0, 1, 0, 0);animation-play-state:paused" ></path>
<path d="M-300 395.5 L873.3316948545607 395.5 A16.5 16.5 0 0 1 873.3316948545607 429.5 L-300 429.5" fill="#fff" transform="matrix(1,0,0,1,30.155052185058594,0)" style="transform:matrix(1, 0, 0, 1, 30.1551, 0);animation-play-state:paused" ></path>
<path d="M818.0355086747034 395.5 L840.3316948545607 395.5 A16.5 16.5 0 0 1 840.3316948545607 429.5 L818.0355086747034 429.5 A16.5 16.5 0 0 1 818.0355086747034 395.5" fill="#fff" transform="matrix(1,0,0,1,405.6159973144531,0)" opacity="1" style="transform:matrix(1, 0, 0, 1, 405.616, 0);animation-play-state:paused" ></path>
<path d="M-300 428.5 L674.8336213274875 428.5 A16.5 16.5 0 0 0 674.8336213274875 462.5 L-300 462.5" fill="#fff" transform="matrix(1,0,0,1,-87.27947235107422,0)" style="transform:matrix(1, 0, 0, 1, -87.2795, 0);animation-play-state:paused" ></path>
<path d="M-49.440861815286695 428.5 L-33 428.5 A16.5 16.5 0 0 1 -33 462.5 L-49.440861815286695 462.5 A16.5 16.5 0 0 1 -49.440861815286695 428.5" fill="#000" transform="matrix(1,0,0,1,0,0)" opacity="0.909091" style="transform:matrix(1, 0, 0, 1, 0, 0);opacity:0.909091;animation-play-state:paused" ></path>
<path d="M-300 461.5 L849.0010797821803 461.5 A16.5 16.5 0 0 1 849.0010797821803 495.5 L-300 495.5" fill="#fff" transform="matrix(1,0,0,1,93.12939453125,0)" style="transform:matrix(1, 0, 0, 1, 93.1294, 0);animation-play-state:paused" ></path>
<path d="M787.4534221192873 461.5 L816.0010797821803 461.5 A16.5 16.5 0 0 1 816.0010797821803 495.5 L787.4534221192873 495.5 A16.5 16.5 0 0 1 787.4534221192873 461.5" fill="#fff" transform="matrix(1,0,0,1,667.0037841796875,0)" opacity="0.649351" style="transform:matrix(1, 0, 0, 1, 667.004, 0);opacity:0.649351;animation-play-state:paused" ></path>
<path d="M-300 494.5 L738.5719646989396 494.5 A16.5 16.5 0 0 0 738.5719646989396 528.5 L-300 528.5" fill="#fff" transform="matrix(1,0,0,1,-57.91716003417969,0)" style="transform:matrix(1, 0, 0, 1, -57.9172, 0);animation-play-state:paused" ></path>
<path d="M-63.315288774461806 494.5 L-33 494.5 A16.5 16.5 0 0 1 -33 528.5 L-63.315288774461806 528.5 A16.5 16.5 0 0 1 -63.315288774461806 494.5" fill="#000" transform="matrix(1,0,0,1,0,0)" opacity="1" style="transform:matrix(1, 0, 0, 1, 0, 0);animation-play-state:paused" ></path>
<path d="M-300 527.5 L903.6551881117102 527.5 A16.5 16.5 0 0 1 903.6551881117102 561.5 L-300 561.5" fill="#fff" transform="matrix(1,0,0,1,6.159934997558594,0)" style="transform:matrix(1, 0, 0, 1, 6.15993, 0);animation-play-state:paused" ></path>
<path d="M858.6032863778453 527.5 L870.6551881117102 527.5 A16.5 16.5 0 0 1 870.6551881117102 561.5 L858.6032863778453 561.5 A16.5 16.5 0 0 1 858.6032863778453 527.5" fill="#fff" transform="matrix(1,0,0,1,603.6287841796875,0)" opacity="0.909091" style="transform:matrix(1, 0, 0, 1, 603.629, 0);opacity:0.909091;animation-play-state:paused" ></path>
<path d="M-300 560.5 L764.0114347746926 560.5 A16.5 16.5 0 0 0 764.0114347746926 594.5 L-300 594.5" fill="#fff" transform="matrix(1,0,0,1,-3.785855531692505,0)" style="transform:matrix(1, 0, 0, 1, -3.78586, 0);animation-play-state:paused" ></path>
<path d="M-57.17588734992382 560.5 L-33 560.5 A16.5 16.5 0 0 1 -33 594.5 L-57.17588734992382 594.5 A16.5 16.5 0 0 1 -57.17588734992382 560.5" fill="#000" transform="matrix(1,0,0,1,0,0)" opacity="1" style="transform:matrix(1, 0, 0, 1, 0, 0);animation-play-state:paused" ></path>
<path d="M-300 593.5 L940.0445178842415 593.5 A16.5 16.5 0 0 1 940.0445178842415 627.5 L-300 627.5" fill="#fff" transform="matrix(1,0,0,1,76.69860076904297,0)" style="transform:matrix(1, 0, 0, 1, 76.6986, 0);animation-play-state:paused" ></path>
<path d="M894.1909733399324 593.5 L907.0445178842415 593.5 A16.5 16.5 0 0 1 907.0445178842415 627.5 L894.1909733399324 627.5 A16.5 16.5 0 0 1 894.1909733399324 593.5" fill="#fff" transform="matrix(1,0,0,1,1120.161865234375,0)" opacity="0.519481" style="transform:matrix(1, 0, 0, 1, 1120.16, 0);opacity:0.519481;animation-play-state:paused" ></path>
<path d="M-300 626.5 L655.4284579873173 626.5 A16.5 16.5 0 0 0 655.4284579873173 660.5 L-300 660.5" fill="#fff" transform="matrix(1,0,0,1,-73.37986755371094,0)" style="transform:matrix(1, 0, 0, 1, -73.3799, 0);animation-play-state:paused" ></path>
<path d="M-68.04123103312816 626.5 L-33.00000000000001 626.5 A16.5 16.5 0 0 1 -33.00000000000001 660.5 L-68.04123103312816 660.5 A16.5 16.5 0 0 1 -68.04123103312816 626.5" fill="#000" transform="matrix(1,0,0,1,0,0)" opacity="0.779221" style="transform:matrix(1, 0, 0, 1, 0, 0);opacity:0.779221;animation-play-state:paused" ></path>
<path d="M-300 659.5 L838.7737177796448 659.5 A16.5 16.5 0 0 1 838.7737177796448 693.5 L-300 693.5" fill="#fff" transform="matrix(1,0,0,1,28.14946746826172,0)" style="transform:matrix(1, 0, 0, 1, 28.1495, 0);animation-play-state:paused" ></path>
<path d="M773.3951481138279 659.5 L805.7737177796448 659.5 A16.5 16.5 0 0 1 805.7737177796448 693.5 L773.3951481138279 693.5 A16.5 16.5 0 0 1 773.3951481138279 659.5" fill="#fff" transform="matrix(1,0,0,1,863.5736083984375,0)" opacity="0.519481" style="transform:matrix(1, 0, 0, 1, 863.574, 0);opacity:0.519481;animation-play-state:paused" ></path>
<path d="M-300 692.5 L694.3308208431627 692.5 A16.5 16.5 0 0 0 694.3308208431627 726.5 L-300 726.5" fill="#fff" transform="matrix(1,0,0,1,-31.767822265625,0)" style="transform:matrix(1, 0, 0, 1, -31.7678, 0);animation-play-state:paused" ></path>
<path d="M-72.04560737186154 692.5 L-33 692.5 A16.5 16.5 0 0 1 -33 726.5 L-72.04560737186154 726.5 A16.5 16.5 0 0 1 -72.04560737186154 692.5" fill="#000" transform="matrix(1,0,0,1,0,0)" opacity="0.25974" style="transform:matrix(1, 0, 0, 1, 0, 0);opacity:0.25974;animation-play-state:paused" ></path>
<path d="M-300 725.5 L820.0456925681286 725.5 A16.5 16.5 0 0 1 820.0456925681286 759.5 L-300 759.5" fill="#fff" transform="matrix(1,0,0,1,0,0)" style="transform:matrix(1, 0, 0, 1, 0, 0);animation-play-state:paused" ></path>
<path d="M753.3486377394864 725.5 L787.0456925681286 725.5 A16.5 16.5 0 0 1 787.0456925681286 759.5 L753.3486377394864 759.5 A16.5 16.5 0 0 1 753.3486377394864 725.5" fill="#fff" transform="matrix(1,0,0,1,0,0)" opacity="1" style="transform:matrix(1, 0, 0, 1, 0, 0);animation-play-state:paused" ></path>
<path d="M-300 758.5 L649.4604101807774 758.5 A16.5 16.5 0 0 0 649.4604101807774 792.5 L-300 792.5" fill="#fff" transform="matrix(1,0,0,1,-64.98905181884766,0)" style="transform:matrix(1, 0, 0, 1, -64.9891, 0);animation-play-state:paused" ></path>
<path d="M-51.85964441093343 758.5 L-33 758.5 A16.5 16.5 0 0 1 -33 792.5 L-51.85964441093343 792.5 A16.5 16.5 0 0 1 -51.85964441093343 758.5" fill="#000" transform="matrix(1,0,0,1,0,0)" opacity="1" style="transform:matrix(1, 0, 0, 1, 0, 0);animation-play-state:paused" ></path>
<path d="M-300 791.5 L825.951136562237 791.5 A16.5 16.5 0 0 1 825.951136562237 825.5 L-300 825.5" fill="#fff" transform="matrix(1,0,0,1,30.486738204956055,0)" style="transform:matrix(1, 0, 0, 1, 30.4867, 0);animation-play-state:paused" ></path>
<path d="M758.388380436945 791.5 L792.951136562237 791.5 A16.5 16.5 0 0 1 792.951136562237 825.5 L758.388380436945 825.5 A16.5 16.5 0 0 1 758.388380436945 791.5" fill="#fff" transform="matrix(1,0,0,1,348.51263427734375,0)" opacity="1" style="transform:matrix(1, 0, 0, 1, 348.513, 0);animation-play-state:paused" ></path>
<path d="M-300 824.5 L740.0657833045531 824.5 A16.5 16.5 0 0 0 740.0657833045531 858.5 L-300 858.5" fill="#fff" transform="matrix(1,0,0,1,-71.63343811035156,0)" style="transform:matrix(1, 0, 0, 1, -71.6334, 0);animation-play-state:paused" ></path>
<path d="M-53.29902031862971 824.5 L-33 824.5 A16.5 16.5 0 0 1 -33 858.5 L-53.29902031862971 858.5 A16.5 16.5 0 0 1 -53.29902031862971 824.5" fill="#000" transform="matrix(1,0,0,1,0,0)" opacity="0.649351" style="transform:matrix(1, 0, 0, 1, 0, 0);opacity:0.649351;animation-play-state:paused" ></path>
<path d="M-300 857.5 L827.6382410454678 857.5 A16.5 16.5 0 0 1 827.6382410454678 891.5 L-300 891.5" fill="#fff" transform="matrix(1,0,0,1,72.48294830322266,0)" style="transform:matrix(1, 0, 0, 1, 72.4829, 0);animation-play-state:paused" ></path>
<path d="M774.6326465165928 857.5 L794.6382410454678 857.5 A16.5 16.5 0 0 1 794.6382410454678 891.5 L774.6326465165928 891.5 A16.5 16.5 0 0 1 774.6326465165928 857.5" fill="#fff" transform="matrix(1,0,0,1,152.81507873535156,0)" opacity="1" style="transform:matrix(1, 0, 0, 1, 152.815, 0);animation-play-state:paused" ></path>
<path d="M-300 890.5 L726.2965838577348 890.5 A16.5 16.5 0 0 0 726.2965838577348 924.5 L-300 924.5" fill="#fff" transform="matrix(1,0,0,1,-82.78543853759766,0)" style="transform:matrix(1, 0, 0, 1, -82.7854, 0);animation-play-state:paused" ></path>
<path d="M-59.07450342161281 890.5 L-33 890.5 A16.5 16.5 0 0 1 -33 924.5 L-59.07450342161281 924.5 A16.5 16.5 0 0 1 -59.07450342161281 890.5" fill="#000" transform="matrix(1,0,0,1,0,0)" opacity="0.12987" style="transform:matrix(1, 0, 0, 1, 0, 0);opacity:0.12987;animation-play-state:paused" ></path>
<path d="M-300 923.5 L789.5081719116171 923.5 A16.5 16.5 0 0 1 789.5081719116171 957.5 L-300 957.5" fill="#fff" transform="matrix(1,0,0,1,4.3826727867126465,0)" style="transform:matrix(1, 0, 0, 1, 4.38267, 0);animation-play-state:paused" ></path>
<path d="M740.2251927422612 923.5 L756.5081719116171 923.5 A16.5 16.5 0 0 1 756.5081719116171 957.5 L740.2251927422612 957.5 A16.5 16.5 0 0 1 740.2251927422612 923.5" fill="#fff" transform="matrix(1,0,0,1,1124.5006103515625,0)" opacity="0.51948" style="transform:matrix(1, 0, 0, 1, 1124.5, 0);opacity:0.51948;animation-play-state:paused" ></path>
<path d="M-300 956.5 L690.870463878315 956.5 A16.5 16.5 0 0 0 690.870463878315 990.5 L-300 990.5" fill="#fff" transform="matrix(1,0,0,1,-4.0106048583984375,0)" style="transform:matrix(1, 0, 0, 1, -4.0106, 0);animation-play-state:paused" ></path>
<path d="M-71.99763289520567 956.5 L-33.00000000000001 956.5 A16.5 16.5 0 0 1 -33.00000000000001 990.5 L-71.99763289520567 990.5 A16.5 16.5 0 0 1 -71.99763289520567 956.5" fill="#000" transform="matrix(1,0,0,1,0,0)" opacity="0.519481" style="transform:matrix(1, 0, 0, 1, 0, 0);opacity:0.519481;animation-play-state:paused" ></path>
<path d="M-300 989.5 L902.8464545374179 989.5 A16.5 16.5 0 0 1 902.8464545374179 1023.5 L-300 1023.5" fill="#fff" transform="matrix(1,0,0,1,118.0771484375,0)" style="transform:matrix(1, 0, 0, 1, 118.077, 0);animation-play-state:paused" ></path>
<path d="M850.0682301066298 989.5 L869.8464545374179 989.5 A16.5 16.5 0 0 1 869.8464545374179 1023.5 L850.0682301066298 1023.5 A16.5 16.5 0 0 1 850.0682301066298 989.5" fill="#fff" transform="matrix(1,0,0,1,222.0346221923828,0)" opacity="1" style="transform:matrix(1, 0, 0, 1, 222.035, 0);animation-play-state:paused" ></path>
<path d="M-300 1022.5 L733.8370973889581 1022.5 A16.5 16.5 0 0 0 733.8370973889581 1056.5 L-300 1056.5" fill="#fff" transform="matrix(1,0,0,1,-116.98234558105469,0)" style="transform:matrix(1, 0, 0, 1, -116.982, 0);animation-play-state:paused" ></path>
<path d="M-48.844383925565175 1022.5 L-33 1022.5 A16.5 16.5 0 0 1 -33 1056.5 L-48.844383925565175 1056.5 A16.5 16.5 0 0 1 -48.844383925565175 1022.5" fill="#000" transform="matrix(1,0,0,1,0,0)" opacity="0.519481" style="transform:matrix(1, 0, 0, 1, 0, 0);opacity:0.519481;animation-play-state:paused" ></path>
<path d="M-300 1055.5 L896.0670150380898 1055.5 A16.5 16.5 0 0 1 896.0670150380898 1089.5 L-300 1089.5" fill="#fff" transform="matrix(1,0,0,1,68.0572280883789,0)" style="transform:matrix(1, 0, 0, 1, 68.0572, 0);animation-play-state:paused" ></path>
<path d="M845.3104893081734 1055.5 L863.0670150380898 1055.5 A16.5 16.5 0 0 1 863.0670150380898 1089.5 L845.3104893081734 1089.5 A16.5 16.5 0 0 1 845.3104893081734 1055.5" fill="#fff" transform="matrix(1,0,0,1,1464.6143798828125,0)" opacity="0.12987" style="transform:matrix(1, 0, 0, 1, 1464.61, 0);opacity:0.12987;animation-play-state:paused" ></path></g></mask></defs>


<rect x="0" y="0" width="1920" height="1084" fill="url(#ldbk-photon-04gwae0bjuzh-lg)" mask="url(#ldbk-photon-04gwae0bjuzh-mask)" style="animation-play-state:paused" ></rect></g></svg>